<?xml version="1.0" encoding="UTF-8"?>
<svg id="Layer_1" data-name="Layer 1" xmlns="http://www.w3.org/2000/svg" width="960" height="960" viewBox="0 0 96 96">
  <defs>
    <style>
      .cls-1 {
        stroke-width: 4px;
      }

      .cls-1, .cls-2, .cls-3 {
        fill: none;
        stroke: #000;
      }

      .cls-1, .cls-3 {
        stroke-linejoin: round;
      }

      .cls-2, .cls-3 {
        stroke-width: 2px;
      }

      .cls-3 {
        stroke-linecap: round;
      }
    </style>
  </defs>
  <g>
    <path class="cls-3" d="m65.61,5.18c-.69-.27-1.49-.32-2.33-.14l-25.71,5.46c-2.68.57-4.86,3.2-4.86,5.87v72.99c0,1.48.68,2.65,1.87,3.22"/>
    <ellipse cx="50.4" cy="13.77" rx=".92" ry=".74" transform="translate(6.46 42.03) rotate(-48.03)"/>
    <ellipse class="cls-2" cx="58.43" cy="55.97" rx="4.93" ry="2.4" transform="translate(-13.07 18.1) rotate(-15.86)"/>
    <g>
      <path class="cls-2" d="m56.55,26.88l3.76-.8c.46-.1.83.19.83.65v3.76c0,.46-.37.9-.83,1l-3.76.8c-.46.1-.83-.19-.83-.65v-3.76c0-.46.37-.9.83-1Z"/>
      <path class="cls-2" d="m56.55,40.28l3.76-.8c.46-.1.83.19.83.65v3.76c0,.46-.37.9-.83,1l-3.76.8c-.46.1-.83-.19-.83-.65v-3.76c0-.46.37-.9.83-1Z"/>
    </g>
    <path class="cls-1" d="m34.11,93.51l-4.18-1.4-.06-.02h0c-1.58-.66-2.62-2.21-2.62-4.23V13.75c0-3.14,2.55-6.24,5.7-6.9l21.83-4.62c.8-.17,1.56-.17,2.24-.01.01,0,.02.01.02.01.02,0,.03.01.05.01l-.07-.02s.02.01.02.01c.02,0,.03.01.05.01l8.83,1.91.07.04c1.66.64,2.76,2.22,2.76,4.3v72.99c0,3.14-2.55,6.23-5.69,6.9l-25.71,5.46c-1.55.23-3.25-.33-3.25-.33Z"/>
  </g>
  <g>
    <path class="cls-2" d="m40.4,25.41l3.76-.8c.46-.1.83.19.83.65v3.76c0,.46-.37.9-.83,1l-3.76.8c-.46.1-.83-.19-.83-.65v-3.76c0-.46.37-.9.83-1Z"/>
    <path class="cls-2" d="m40.4,38.82l3.76-.8c.46-.1.83.19.83.65v3.76c0,.46-.37.9-.83,1l-3.76.8c-.46.1-.83-.19-.83-.65v-3.76c0-.46.37-.9.83-1Z"/>
  </g>
  <line class="cls-3" x1="34.02" y1="12.81" x2="28.01" y2="10.74"/>
</svg>