<?xml version="1.0" encoding="UTF-8"?>
<svg id="Layer_1" data-name="Layer 1" xmlns="http://www.w3.org/2000/svg" width="960" height="960" viewBox="0 0 96 96">
  <defs>
    <style>
      .cls-1, .cls-2 {
        stroke-width: 4px;
      }

      .cls-1, .cls-2, .cls-3 {
        fill: none;
        stroke: #000;
        stroke-linejoin: round;
      }

      .cls-2, .cls-3 {
        stroke-linecap: round;
      }

      .cls-3 {
        stroke-width: 2px;
      }
    </style>
  </defs>
  <polyline class="cls-3" points="35.04 90.6 28.08 85.25 28.08 29.93 35.04 21.5 86.95 10.46"/>
  <polyline class="cls-2" points="86.95 9.72 93.9 15.2 93.9 72.24 86.95 80.68 35.04 91.71"/>
  <polygon points="50.51 82.37 45.42 83.45 45.42 77.29 50.51 76.21 50.51 82.37"/>
  <polygon points="57.36 80.98 52.28 82.06 52.28 75.89 57.36 74.81 57.36 80.98"/>
  <polygon points="64.01 79.52 58.93 80.61 58.93 74.44 64.01 73.36 64.01 79.52"/>
  <polygon points="70.46 78.17 65.37 79.25 65.37 73.08 70.46 72 70.46 78.17"/>
  <polygon points="76.99 76.76 71.9 77.84 71.9 71.67 76.99 70.59 76.99 76.76"/>
  <g>
    <path class="cls-3" d="m79.44,19.29c0,2.22-1.8,4.4-4.01,4.87-1.22.26-2.31-.06-3.05-.76l-5.31,1.11c-1.44.31-2.6-.61-2.6-2.05s1.16-2.85,2.6-3.15l5.31-1.11c.74-1.02,1.83-1.8,3.05-2.06,2.22-.47,4.01.94,4.01,3.16Z"/>
    <ellipse cx="75.41" cy="20.15" rx="2.28" ry="1.84" transform="translate(10 62.74) rotate(-48.03)"/>
    <ellipse cx="67.13" cy="21.89" rx="1.03" ry=".83" transform="translate(5.97 57.17) rotate(-48.03)"/>
  </g>
  <polyline class="cls-3" points="82.25 11.47 82.25 25.8 39.73 34.83 39.73 20.5"/>
  <polyline class="cls-3" points="39.73 90.12 39.73 75.78 82.25 66.75 82.25 81.09"/>
  <polyline class="cls-1" points="86.95 9.72 71.14 4.28 19.24 15.32 12.28 23.76 12.28 45.72 12.28 45.72 2.1 47.88 2.1 58.02 12.28 55.86 12.28 55.85 12.28 80.81 19.24 86.28 35.04 91.72"/>
  <circle cx="7.63" cy="51.77" r="1.93"/>
  <polyline class="cls-3" points="12.28 45.72 13.28 45.72 13.28 55.85 12.28 55.85"/>
  <path class="cls-3" d="m18.23,16.54c4.11.77,13.45,3.85,16.8,4.97"/>
  <path class="cls-3" d="m12.28,24.81c4.33.93,12.82,3.72,16.07,4.8"/>
  <line class="cls-3" x1="28.08" y1="84.88" x2="12.28" y2="80.21"/>
</svg>