<?xml version="1.0" encoding="UTF-8"?>
<svg id="Layer_1" data-name="Layer 1" xmlns="http://www.w3.org/2000/svg" width="960" height="960" viewBox="0 0 96 96">
  <defs>
    <style>
      .cls-1 {
        stroke-width: 4px;
      }

      .cls-1, .cls-2 {
        fill: none;
        stroke: #000;
        stroke-linecap: round;
        stroke-linejoin: round;
      }

      .cls-2 {
        stroke-width: 2px;
      }
    </style>
  </defs>
  <line class="cls-2" x1="41.61" y1="16.7" x2="29.02" y2="12.44"/>
  <ellipse class="cls-2" cx="61.4" cy="36.08" rx="13.63" ry="11.24" transform="translate(9.34 84.68) rotate(-73.47)"/>
  <ellipse cx="61.07" cy="34.05" rx="1.85" ry="1.53" transform="translate(11.05 82.91) rotate(-73.47)"/>
  <ellipse cx="52.04" cy="35.21" rx="1.85" ry="1.53" transform="translate(3.47 75.08) rotate(-73.47)"/>
  <path d="m57.26,42.86s-.04-.01-.06-.01c-.06-.01-.11-.03-.16-.06l.22.07Z"/>
  <path class="cls-2" d="m53.57,46.76c5.74.15,9.03-2.4,11.25-6.09"/>
  <path class="cls-2" d="m66.28,31.63c.27,1.19.37,2.41.28,3.66"/>
  <path class="cls-2" d="m64.42,27.89c-1.17-1.98-2.91-3.64-5.04-4.73"/>
  <path class="cls-2" d="m65.33,23.08s-.07-.03-.11-.04c-.1-.04-.19-.06-.29-.09-.06-.02-.11-.03-.16-.05-7.57-2.14-16.03,2.62-17.74,10.33-1.65,7.43,3.63,15.35,11.06,16.06"/>
  <path class="cls-2" d="m70.19,35.95c-.06.73-.18,1.48-.38,2.22-.32,1.21-.81,2.33-1.41,3.33l-4.53-1.07v-4.16l2.25-1.07,4.08.74Z"/>
  <path class="cls-2" d="m69.83,32l-5.97-.86v-3.34l4.1.57c.86,1.01,1.5,2.24,1.87,3.62Z"/>
  <line class="cls-2" x1="27.84" y1="22.12" x2="27.84" y2="48.22"/>
  <path class="cls-1" d="m79.88,13.12v63.19c0,5.43-3.54,10.23-8.72,11.83l-24.73,5.43c-3.13.76-6.17.19-9.42-.96l-4.88-1.63c-3.15-1.05-5.28-4.01-5.28-7.33v-37.36c-4.32-1.09-6.24-4.94-6.36-5.21h0v-12.15c.89-1.49,2-2.56,3.14-3.33,1.13-.77,2.28-1.24,3.23-1.52v-5.44c0-4.77,3.39-8.86,8.06-9.75l30.03-6.67c.93-.18,1.87-.14,2.78.11l5.35,1.89c3.95,1.3,6.79,4.75,6.79,8.91Z"/>
  <g>
    <path class="cls-2" d="m79.88,42.81V12.58c0-.5-.08-.97-.22-1.43,0,0,0-.02,0-.03-.72-2.22-3.02-3.68-5.46-3.18l-27.8,5.68c-3.67.75-6.31,3.98-6.31,7.73v65.9c0,4.01,3.73,6.91,7.56,6.04"/>
    <line class="cls-1" x1="79.88" y1="13.12" x2="79.88" y2="76.3"/>
    <line class="cls-2" x1="40.09" y1="21.36" x2="40.09" y2="87.26"/>
  </g>
  <line class="cls-1" x1="20.49" y1="35" x2="16.12" y2="33.54"/>
  <path class="cls-2" d="m73.76,87.1v-43.57c.65-1.33,1.19-2.73,1.59-4.23,1.5-5.57.77-11.08-1.59-15.28v-15.95"/>
  <path class="cls-2" d="m45.96,13.69v13.19c-.78,1.47-1.42,3.07-1.87,4.77-1.55,5.78-.71,11.49,1.87,15.76v46.2"/>
  <line class="cls-2" x1="64.74" y1="43.52" x2="57.28" y2="40.99"/>
  <path class="cls-2" d="m68.52,78.68l-15.73,7.56c-1.55.74-3.14.16-3.56-1.3h0c-.42-1.46.5-3.25,2.05-4l15.73-7.56c1.55-.74,3.14-.16,3.56,1.3h0c.42,1.46-.5,3.25-2.05,4Z"/>
  <ellipse cx="67.83" cy="75.95" rx="1.52" ry="1.23" transform="translate(-34 75.6) rotate(-48.03)"/>
</svg>