<?xml version="1.0" encoding="UTF-8"?>
<svg id="Layer_1" data-name="Layer 1" xmlns="http://www.w3.org/2000/svg" width="960" height="960" viewBox="0 0 96 96">
  <defs>
    <style>
      .cls-1 {
        stroke-width: 4px;
      }

      .cls-1, .cls-2, .cls-3 {
        fill: none;
        stroke: #000;
        stroke-linecap: round;
        stroke-linejoin: round;
      }

      .cls-3 {
        stroke-width: 2px;
      }
    </style>
  </defs>
  <path class="cls-3" d="m54.19,84.23c-3.55-.99-6.27-4.24-6.27-8.24v-33.7c0-5.7,4.09-10.58,9.71-11.57l26.24-4.63c1.38-.24,2.74-.14,3.98.24"/>
  <path class="cls-1" d="m87.85,26.34c3.45,1.06,6.05,4.27,6.05,8.17v29.68c0,7.25-5.05,13.51-12.14,15.05l-23.49,5.1c-.61.13-1.22.2-1.82.2-.78,0-1.54-.11-2.27-.31"/>
  <path class="cls-1" d="m60.57,17.28c-.94-.17-1.91-.17-2.91,0l-31.24,5.46c-5.61.99-9.7,4.5-9.7,10.2v32.55c0,3.81,2.46,6.95,5.77,8.07h-.05s31.67,10.64,31.67,10.64"/>
  <line class="cls-1" x1="87.32" y1="26.2" x2="60.57" y2="17.28"/>
  <line class="cls-3" x1="49.24" y1="36.9" x2="18.96" y2="26.64"/>
  <path class="cls-1" d="m16.72,63.3c-7.06-1.79-10.04-9.26-10.04-9.26v-15.58c2.99-5.79,7.73-7.99,10.57-8.82"/>
  <line class="cls-2" x1="16.72" y1="44.74" x2="6.68" y2="41.77"/>
  <line class="cls-2" x1="6.67" y1="45.02" x2="16.53" y2="48.18"/>
  <path class="cls-3" d="m26.21,54.31l-1.96-.45c-.47-.11-.8-.52-.8-1v-8.8c0-.66.62-1.15,1.26-1l1.96.45c.47.11.8.52.8,1v8.8c0,.66-.62,1.15-1.26,1Z"/>
  <line class="cls-1" x1="6.68" y1="43.9" x2="2.1" y2="42.37"/>
  <ellipse class="cls-3" cx="70.58" cy="54.3" rx="22.79" ry="18.8" transform="translate(-1.56 106.51) rotate(-73.47)"/>
  <ellipse cx="70.03" cy="50.91" rx="3.1" ry="2.55" transform="translate(1.3 103.55) rotate(-73.47)"/>
  <ellipse cx="54.92" cy="52.84" rx="3.1" ry="2.55" transform="translate(-11.37 90.45) rotate(-73.47)"/>
  <path class="cls-3" d="m57.49,72.15c9.6.25,15.1-4.01,18.81-10.18"/>
  <path class="cls-3" d="m78.72,46.86c.45,1.98.63,4.02.46,6.13"/>
  <path class="cls-3" d="m75.62,40.6c-1.95-3.32-4.86-6.09-8.43-7.9"/>
  <path class="cls-3" d="m85.27,54.09c-.09,1.23-.3,2.47-.63,3.71-.54,2.03-1.35,3.9-2.36,5.57l-7.58-1.78v-6.96l3.76-1.78,6.82,1.24Z"/>
  <path class="cls-3" d="m84.67,47.48l-9.97-1.44v-5.58l6.85.96c1.43,1.68,2.51,3.75,3.13,6.05Z"/>
</svg>