<?xml version="1.0" encoding="UTF-8"?>
<svg id="Layer_1" data-name="Layer 1" xmlns="http://www.w3.org/2000/svg" width="960" height="960" viewBox="0 0 96 96">
  <defs>
    <style>
      .cls-1 {
        stroke-width: 4px;
      }

      .cls-1, .cls-2 {
        fill: none;
        stroke: #000;
        stroke-linecap: round;
        stroke-linejoin: round;
      }

      .cls-2 {
        stroke-width: 2px;
      }
    </style>
  </defs>
  <path class="cls-2" d="m38.7,27.17l41.85-8.76s11.58,2.47,8.76,5.17c-2.81,2.7-29.82,9.58-50.61,3.59Z"/>
  <path class="cls-2" d="m38.7,27.17v5.67c19.98,5.75,46.06-.42,50.59-3.32.28-.18.44-.48.44-.81v-5.88"/>
  <path class="cls-2" d="m89.74,60.39c-1.23,5.83-31.57,16.96-51.02,2.76l5.28-1.14h.02"/>
  <path class="cls-2" d="m89.74,60.39v6.19c-1.23,5.83-31.57,16.96-51.02,2.76v-6.19"/>
  <polyline class="cls-2" points="43.37 33.93 43.37 48.4 43.37 61.85"/>
  <path class="cls-2" d="m82.24,32.03v25.97c0,.62-.42,1.35-.62,1.69-2.16,3.87-21.28,7.49-38.48,2.08h-.02"/>
  <ellipse class="cls-2" cx="17.39" cy="52.89" rx="4.9" ry="3.66" transform="translate(-37.77 60.42) rotate(-79.57)"/>
  <path class="cls-1" d="m12.38,62.56c-1.83-.54-3.95-1.22-6.12-1.96v-25.35c1.29.56,2.67,1.19,4.18,1.85.66.29,1.29.58,1.9.87"/>
  <path class="cls-2" d="m12.66,61.6l.63.18c3.14.91,6,.66,8.27-.7,1.97-1.19,3.38-3.14,3.85-5.37,1.07-5.02.84-10.08-13.5-16.83"/>
  <line class="cls-2" x1="33.29" y1="21.9" x2="12.68" y2="14.99"/>
  <path class="cls-1" d="m12.3,37.96v-21.03c0-2.46,1.72-4.57,4.12-5.09L62.26,2.18c.64-.14,1.29-.09,1.91.11l22.96,7.9"/>
  <path class="cls-1" d="m12.3,62.55v20.67c0,1.55.97,2.93,2.45,3.43l20.15,6.98"/>
  <line class="cls-1" x1="12.3" y1="33.98" x2="6.25" y2="35.26"/>
  <path class="cls-1" d="m34.9,93.64c.71.26,1.51.34,2.32.16l49.26-10.8c1.9-.42,3.25-2.1,3.25-4.04V14c0-1.86-1.2-3.38-2.82-3.92"/>
  <path class="cls-2" d="m86.92,10.07c-.68-.23-1.43-.29-2.2-.12l-49.26,10.7c-1.9.41-3.26,2.1-3.26,4.04v65.07c0,1.81,1.15,3.3,2.7,3.88"/>
  <path class="cls-2" d="m82.24,54.71c3.09,1.06,7.49,2.21,7.5,5.64"/>
</svg>