<?xml version="1.0" encoding="UTF-8"?>
<svg id="Layer_1" data-name="Layer 1" xmlns="http://www.w3.org/2000/svg" width="960" height="960" viewBox="0 0 96 96">
  <defs>
    <style>
      .cls-1 {
        stroke-width: 4px;
      }

      .cls-1, .cls-2 {
        fill: none;
        stroke: #000;
        stroke-linejoin: round;
      }

      .cls-3 {
        fill-rule: evenodd;
      }
    </style>
  </defs>
  <path class="cls-2" d="m33.61,9.31c.02.23.14.52.54.65l2.15.78c.26.09.54.11.81.06l24.65-5.23c.55-.12.62-.58.63-.72"/>
  <line class="cls-2" x1="37.22" y1="93.86" x2="37.22" y2="10.77"/>
  <ellipse cx="50.06" cy="13.51" rx="1.36" ry="1.1" transform="translate(6.54 41.7) rotate(-48.03)"/>
  <path class="cls-3" d="m55.86,33.33c-.08,0-.17,0-.25-.02l-3.58-.41v-3.9l4.67.56c.47.07.86.33,1.11.72.26.43.31.98.13,1.51-.31.9-1.19,1.55-2.08,1.55Z"/>
  <path class="cls-3" d="m44.62,31.91c-.46-.07-.85-.32-1.09-.71-.27-.44-.32-1-.14-1.54.3-.9,1.17-1.56,2.07-1.56.08,0,.17,0,.25.02l3.8.55v3.96l-4.89-.72Z"/>
  <path class="cls-3" d="m55.86,42.16c-.08,0-.17,0-.25-.02l-3.58-.41v-3.9l4.67.56c.47.07.86.33,1.11.72.26.43.31.98.13,1.51-.31.9-1.19,1.55-2.08,1.55Z"/>
  <path class="cls-3" d="m44.62,40.74c-.46-.07-.85-.32-1.09-.72-.27-.44-.32-.99-.14-1.54.3-.89,1.18-1.56,2.06-1.56.09,0,.18,0,.27.02l3.79.55v3.96l-4.89-.72Z"/>
  <path class="cls-3" d="m55.86,51.39c-.08,0-.17,0-.25-.02l-3.58-.41v-3.9l4.67.56c.47.07.86.32,1.1.72.26.43.31.98.13,1.51-.31.9-1.19,1.55-2.08,1.55Z"/>
  <path class="cls-3" d="m44.62,49.88c-.46-.07-.85-.32-1.09-.71-.27-.44-.32-1-.14-1.54.3-.9,1.17-1.56,2.07-1.56.09,0,.17,0,.25.02l3.79.55v3.96l-4.89-.72Z"/>
  <line class="cls-2" x1="40.18" y1="93.23" x2="40.18" y2="10.14"/>
  <line class="cls-2" x1="59.97" y1="88.99" x2="59.97" y2="5.94"/>
  <path class="cls-1" d="m32.61,9.43c0-.07-.01-.14-.01-.21,0-.78.49-1.57,1.43-1.77l24.76-5.31c.32-.06.64-.04.95.06l2.43.87c.81.27,1.21.94,1.22,1.64v81.9c.07.85-.41,1.74-1.42,1.96l-24.76,5.3c-.31.07-.64.05-.95-.05l-2.43-.87c-.8-.27-1.2-.94-1.23-1.64V9.22"/>
</svg>