<?xml version="1.0" encoding="UTF-8"?>
<svg id="Layer_1" data-name="Layer 1" xmlns="http://www.w3.org/2000/svg" width="960" height="960" viewBox="0 0 96 96">
  <defs>
    <style>
      .cls-1 {
        stroke-width: 4px;
      }

      .cls-1, .cls-2, .cls-3 {
        fill: none;
        stroke: #000;
        stroke-linejoin: round;
      }

      .cls-1, .cls-3 {
        stroke-linecap: round;
      }

      .cls-2, .cls-3 {
        stroke-width: 2px;
      }
    </style>
  </defs>
  <ellipse cx="60.67" cy="27.61" rx="1.2" ry=".97" transform="translate(-.43 54.26) rotate(-48.03)"/>
  <path class="cls-2" d="m83.13,14.79c-2.12-.49-4.38-.48-6.72.02l-31.06,6.6c-9.32,1.98-16.9,11.17-16.9,20.48v31.06c0,6.21,3.42,11.1,8.92,12.75"/>
  <path class="cls-2" d="m41.45,83.35c-5.93,0-10.07-4.28-10.07-10.4v-31.06c0-7.87,6.68-15.93,14.58-17.61l31.06-6.6c.98-.21,1.95-.31,2.88-.31,5.93,0,10.07,4.28,10.07,10.4v31.06c0,7.87-6.68,15.93-14.58,17.61l-31.06,6.6c-.98.21-1.95.31-2.88.31Z"/>
  <path class="cls-3" d="m75.85,76.32v-7.71c0-1.24-1-2.02-2.25-1.76l-25.93,5.51c-1.24.26-2.24,1.48-2.24,2.71v7.73"/>
  <g>
    <ellipse cx="49.77" cy="76.99" rx="3.05" ry="2.47" transform="translate(-40.75 62.51) rotate(-48.03)"/>
    <ellipse cx="56.99" cy="75.45" rx="3.05" ry="2.47" transform="translate(-37.22 67.37) rotate(-48.03)"/>
    <ellipse cx="64.21" cy="73.92" rx="3.05" ry="2.47" transform="translate(-33.68 72.23) rotate(-48.03)"/>
    <ellipse cx="71.44" cy="72.38" rx="3.05" ry="2.47" transform="translate(-30.15 77.09) rotate(-48.03)"/>
  </g>
  <path class="cls-3" d="m60.64,24.49h0c1.41-.3,2.55.6,2.55,2.01v12.88c0,1.41-1.14,2.79-2.55,3.09h0c-1.41.3-2.55-.6-2.55-2.01v-12.88c0-1.41,1.14-2.79,2.55-3.09Z"/>
  <path class="cls-1" d="m83.36,13.81c6.04,1.84,10.54,6.73,10.54,13.95v31.06c0,9.78-7.92,19.38-17.7,21.46l-31.06,6.6c-2.9.62-5.64.5-8.06-.22l-.76-.26-12.51-4.21c-3.07-1-5.72-2.68-7.59-5.01-1.88-2.33-2.98-5.32-2.98-8.94v-13.96h0s-5.74,1.2-5.74,1.2c-2.78.58-5.4-1.54-5.4-4.38h0c0-2.12,1.49-3.95,3.56-4.38l7.58-1.59h0v-7.95c0-9.77,7.93-19.37,17.7-21.45l31.05-6.61c3.23-.69,6.27-.47,8.86.51l.24.08,12.26,4.13"/>
  <circle cx="6.69" cy="51.14" r="1.74"/>
  <line class="cls-2" x1="14.24" y1="45.13" x2="14.24" y2="54.28"/>
  <line class="cls-3" x1="28.95" y1="37.71" x2="13.83" y2="32.52"/>
  <line class="cls-3" x1="28.53" y1="74.47" x2="13.27" y2="69.22"/>
  <line class="cls-3" x1="40.49" y1="23.16" x2="25.2" y2="17.91"/>
</svg>