<?xml version="1.0" encoding="UTF-8"?>
<svg id="Layer_1" data-name="Layer 1" xmlns="http://www.w3.org/2000/svg" width="960" height="960" viewBox="0 0 96 96">
  <defs>
    <style>
      .cls-1 {
        stroke-width: 4px;
      }

      .cls-1, .cls-2, .cls-3 {
        fill: none;
        stroke: #000;
        stroke-linecap: round;
        stroke-linejoin: round;
      }

      .cls-3 {
        stroke-width: 2px;
      }
    </style>
  </defs>
  <path class="cls-3" d="m88.99,9.13c-.51-.41-1.17-.57-1.81-.43l-62.87,13.66c-.99.21-1.7,1.1-1.7,2.11v55.64l-3.16-1.09v14.87"/>
  <path class="cls-1" d="m5.2,89.46V18.92c0-1.49,1.03-2.77,2.49-3.09L70.56,2.17c.74-.16,1.45-.05,2.07.25"/>
  <polyline class="cls-3" points="22.6 80.12 44.21 75.43 47.05 76.38 47.05 88.98"/>
  <line class="cls-2" x1="27.82" y1="73.76" x2="30.63" y2="73.15"/>
  <line class="cls-2" x1="35.65" y1="71.93" x2="38.65" y2="71.28"/>
  <line class="cls-3" x1="44.21" y1="88.02" x2="44.21" y2="75.43"/>
  <polyline class="cls-3" points="65.66 84.18 65.66 70.27 88.03 65.52"/>
  <ellipse cx="25.86" cy="85.46" rx="3.33" ry="2.69" transform="translate(-54.97 47.54) rotate(-48.03)"/>
  <ellipse cx="36.65" cy="83.17" rx="3.33" ry="2.69" transform="translate(-49.7 54.8) rotate(-48.03)"/>
  <ellipse cx="71.47" cy="75.19" rx="3.33" ry="2.69" transform="translate(-32.23 78.05) rotate(-48.03)"/>
  <ellipse cx="38.69" cy="25.61" rx="2.04" ry="1.65" transform="translate(-6.22 37.25) rotate(-48.03)"/>
  <ellipse cx="30.49" cy="27.41" rx="1.55" ry="1.25" transform="translate(-10.28 31.75) rotate(-48.03)"/>
  <ellipse cx="81.72" cy="73.23" rx="3.33" ry="2.69" transform="translate(-27.38 85.02) rotate(-48.03)"/>
  <path class="cls-1" d="m72.61,2.41h.02s16.21,5.55,16.21,5.55l.78.4c.71.57,1.18,1.45,1.18,2.46v55.07l-2.56.62v11.27l-21.57,4.79v1.62l-19.61,4.79-2.83-.96-25.77,5.88"/>
  <line class="cls-1" x1="18.44" y1="93.9" x2="5.2" y2="89.46"/>
  <line class="cls-2" x1="29.27" y1="72" x2="29.27" y2="75"/>
  <line class="cls-2" x1="71.11" y1="64.71" x2="74.11" y2="64.06"/>
  <line class="cls-2" x1="79.13" y1="62.87" x2="81.95" y2="62.26"/>
  <line class="cls-2" x1="80.59" y1="61.13" x2="80.59" y2="64.13"/>
  <polyline class="cls-3" points="70.35 12.36 70.35 22.67 43.76 28.45 43.76 18.14"/>
  <line class="cls-3" x1="22.8" y1="23.58" x2="5.42" y2="17.76"/>
</svg>