<?xml version="1.0" encoding="UTF-8"?>
<svg id="Layer_1" data-name="Layer 1" xmlns="http://www.w3.org/2000/svg" width="960" height="960" viewBox="0 0 96 96">
  <defs>
    <style>
      .cls-1, .cls-2 {
        stroke-width: 4px;
      }

      .cls-1, .cls-2, .cls-3, .cls-4 {
        fill: none;
        stroke: #000;
        stroke-linejoin: round;
      }

      .cls-2, .cls-3, .cls-4 {
        stroke-linecap: round;
      }

      .cls-4 {
        stroke-width: 2px;
      }

      .cls-5 {
        fill-rule: evenodd;
      }
    </style>
  </defs>
  <ellipse cx="51.46" cy="21.32" rx=".81" ry=".66" transform="translate(1.2 45.33) rotate(-48.03)"/>
  <path class="cls-4" d="m59.76,12.86c-.17-.09-.38-.1-.62-.05l-14.73,3.12c-.74.16-1.39.94-1.39,1.67v74.51c0,.37.17.64.47.73"/>
  <line class="cls-4" x1="50.87" y1="11.51" x2="43.17" y2="13.13"/>
  <path class="cls-5" d="m53.35,17.01v1.91c0,.16-.13.32-.29.36l-3.08.65c-.16.03-.29-.07-.29-.23v-1.91c0-.16.13-.32.29-.36l3.08-.65c.16-.03.29.07.29.23Z"/>
  <path class="cls-2" d="m50.86,10.48v-4.05c0-.2-.17-.33-.36-.29l-6.96,1.47c-.2.05-.37.24-.37.44v4.05"/>
  <line class="cls-2" x1="46.79" y1="6.94" x2="46.79" y2="2.1"/>
  <path class="cls-1" d="m50.87,9.07h.06c.31-.07.6-.07.87-.02l8.3,2.83.13.07c.55.28.91.85.91,1.58v74.53c0,1.21-.99,2.41-2.2,2.66l-14.73,3.13c-.37.08-.71.06-1.01-.03l-.14-.05-6.8-2.34-.38-.12c-.6-.26-1-.87-1-1.63V14.66c0-1.22.98-2.41,2.2-2.67l3.1-.66,2.99-.63"/>
  <line class="cls-4" x1="35.08" y1="13.81" x2="43.37" y2="16.64"/>
  <g>
    <ellipse class="cls-4" cx="51.67" cy="30.67" rx="7.14" ry="5.9" transform="translate(7.56 71.48) rotate(-73.47)"/>
    <ellipse cx="51.07" cy="29.61" rx=".97" ry=".8" transform="translate(8.15 70.14) rotate(-73.47)"/>
    <ellipse cx="46.49" cy="30.7" rx=".97" ry=".8" transform="translate(3.83 66.52) rotate(-73.47)"/>
    <path class="cls-3" d="m47.48,36.21c2.88,0,4.54-1.31,5.68-3.19"/>
    <path class="cls-3" d="m53.92,28.28c.14.62.2,1.26.14,1.92"/>
    <path class="cls-3" d="m52.95,26.31c-.58-.97-1.43-1.8-2.46-2.37"/>
    <path class="cls-3" d="m55.24,30.37c-.03.38-.09.77-.2,1.16-.17.64-.42,1.22-.74,1.75l-1.65-.39v-2.18l1.18-.56,1.41.22Z"/>
    <path class="cls-3" d="m55.05,28.3l-2.4-.28v-1.75l1.42.13c.45.53.79,1.18.98,1.9Z"/>
  </g>
  <g>
    <ellipse class="cls-4" cx="51.67" cy="47.49" rx="7.14" ry="5.9" transform="translate(-8.56 83.51) rotate(-73.47)"/>
    <ellipse cx="51.07" cy="46.42" rx=".97" ry=".8" transform="translate(-7.97 82.17) rotate(-73.47)"/>
    <ellipse cx="46.49" cy="47.51" rx=".97" ry=".8" transform="translate(-12.29 78.56) rotate(-73.47)"/>
    <path class="cls-3" d="m47.48,53.03c2.88,0,4.54-1.31,5.68-3.19"/>
    <path class="cls-3" d="m53.92,45.09c.14.62.2,1.26.14,1.92"/>
    <path class="cls-3" d="m52.95,43.13c-.58-.97-1.43-1.8-2.46-2.37"/>
    <path class="cls-3" d="m55.24,47.19c-.03.38-.09.77-.2,1.16-.17.64-.42,1.22-.74,1.75l-1.65-.39v-2.18l1.18-.56,1.41.22Z"/>
    <path class="cls-3" d="m55.05,45.12l-2.4-.28v-1.75l1.42.13c.45.53.79,1.18.98,1.9Z"/>
  </g>
  <g>
    <ellipse class="cls-4" cx="51.67" cy="64.43" rx="7.14" ry="5.9" transform="translate(-24.79 95.63) rotate(-73.47)"/>
    <ellipse cx="51.07" cy="63.36" rx=".97" ry=".8" transform="translate(-24.2 94.29) rotate(-73.47)"/>
    <ellipse cx="46.49" cy="64.45" rx=".97" ry=".8" transform="translate(-28.53 90.67) rotate(-73.47)"/>
    <path class="cls-3" d="m47.48,69.96c2.88,0,4.54-1.31,5.68-3.19"/>
    <path class="cls-3" d="m53.92,62.03c.14.62.2,1.26.14,1.92"/>
    <path class="cls-3" d="m52.95,60.06c-.58-.97-1.43-1.8-2.46-2.37"/>
    <path class="cls-3" d="m55.24,64.13c-.03.38-.09.77-.2,1.16-.17.64-.42,1.22-.74,1.75l-1.65-.39v-2.18l1.18-.56,1.41.22Z"/>
    <path class="cls-3" d="m55.05,62.05l-2.4-.28v-1.75l1.42.13c.45.53.79,1.18.98,1.9Z"/>
  </g>
  <g>
    <ellipse class="cls-4" cx="51.67" cy="81.52" rx="7.14" ry="5.9" transform="translate(-41.18 107.86) rotate(-73.47)"/>
    <ellipse cx="51.07" cy="80.45" rx=".97" ry=".8" transform="translate(-40.59 106.52) rotate(-73.47)"/>
    <ellipse cx="46.49" cy="81.54" rx=".97" ry=".8" transform="translate(-44.91 102.9) rotate(-73.47)"/>
    <path class="cls-3" d="m47.48,87.05c2.88,0,4.54-1.31,5.68-3.19"/>
    <path class="cls-3" d="m53.92,79.12c.14.62.2,1.26.14,1.92"/>
    <path class="cls-3" d="m52.95,77.15c-.58-.97-1.43-1.8-2.46-2.37"/>
    <path class="cls-3" d="m55.24,81.22c-.03.38-.09.77-.2,1.16-.17.64-.42,1.22-.74,1.75l-1.65-.39v-2.18l1.18-.56,1.41.22Z"/>
    <path class="cls-3" d="m55.05,79.15l-2.4-.28v-1.75l1.42.13c.45.53.79,1.18.98,1.9Z"/>
  </g>
</svg>