<?xml version="1.0" encoding="UTF-8"?>
<svg id="Layer_1" data-name="Layer 1" xmlns="http://www.w3.org/2000/svg" width="960" height="960" viewBox="0 0 96 96">
  <defs>
    <style>
      .cls-1 {
        stroke-width: 4px;
      }

      .cls-1, .cls-2, .cls-3 {
        fill: none;
        stroke: #000;
        stroke-linejoin: round;
      }

      .cls-2, .cls-3 {
        stroke-width: 2px;
      }

      .cls-3 {
        stroke-linecap: round;
      }
    </style>
  </defs>
  <ellipse cx="58.18" cy="21.71" rx="2.07" ry="1.68" transform="translate(3.13 50.45) rotate(-48.03)"/>
  <path class="cls-2" d="m41.76,92.86h-.03v-19.2l-1.59-1.04V24.62c0-8.86,7.18-17.56,16.04-19.45h0c2.53-.54,4.92-.46,7.04.13"/>
  <path class="cls-2" d="m58.23,14.98c4.66-.99,8.44,1.98,8.44,6.64v48.72l-16.88,3.59V25.22c0-4.66,3.78-9.24,8.44-10.23Z"/>
  <polyline class="cls-2" points="67.22 89.75 67.22 70.23 49.13 74.07 49.13 93.9"/>
  <path class="cls-2" d="m41.73,73.66l7.39.42"/>
  <line class="cls-2" x1="66.75" y1="69.42" x2="70.6" y2="66.33"/>
  <line class="cls-2" x1="40.15" y1="72.6" x2="33.94" y2="70.37"/>
  <path class="cls-1" d="m23.77,65.3v-8.2l8.23-1.75V21.91c0-8.86,7.18-17.56,16.04-19.44,1.16-.24,2.28-.37,3.36-.37,1.33,0,4.53.75,4.84.87l6.99,2.34s.03.01.05.02c5.29,1.48,8.94,6.17,8.94,12.48v49.04l-1,.26v19.53l-4.01,3.11-18.08,4.15-7.37-1.04h-.03l-8.14-2.72v-18.83h-1.59v-7.77l-8.23,1.76Z"/>
  <circle cx="28.25" cy="60.24" r="1.31"/>
  <line class="cls-2" x1="33.01" y1="55.34" x2="33.01" y2="63.54"/>
  <path class="cls-3" d="m58.06,36.08c-.14,0-.28-.02-.41-.05-.45-.11-.85-.41-1.1-.85-.34-.57-.42-1.31-.23-2.02.3-1.13,1.22-1.95,2.19-1.95.14,0,.28.02.41.05.45.11.85.41,1.1.85.34.57.42,1.31.23,2.02-.3,1.13-1.22,1.95-2.19,1.95Z"/>
  <path class="cls-3" d="m57.93,84.45c-.16,0-.31-.02-.46-.06-.51-.13-.95-.47-1.25-.96-.38-.64-.48-1.47-.26-2.28.34-1.27,1.37-2.2,2.47-2.2.16,0,.31.02.46.06.51.13.95.47,1.25.96.38.64.48,1.47.26,2.28-.34,1.27-1.37,2.2-2.47,2.2Z"/>
  <line class="cls-3" x1="40.39" y1="21.79" x2="32.27" y2="18.99"/>
</svg>