<?xml version="1.0" encoding="UTF-8"?>
<svg id="Layer_1" data-name="Layer 1" xmlns="http://www.w3.org/2000/svg" width="960" height="960" viewBox="0 0 96 96">
  <defs>
    <style>
      .cls-1 {
        stroke-width: 4px;
      }

      .cls-1, .cls-2 {
        fill: none;
        stroke: #000;
        stroke-linecap: round;
        stroke-linejoin: round;
      }

      .cls-2 {
        stroke-width: 2px;
      }
    </style>
  </defs>
  <ellipse class="cls-2" cx="74.1" cy="56.33" rx="17.98" ry="14.84" transform="translate(-.98 111.34) rotate(-73.47)"/>
  <path class="cls-2" d="m69.87,39.9c4.58,3.9,6.65,11.06,4.72,18.34-1.58,6.01-5.5,10.68-10.17,12.84"/>
  <path class="cls-2" d="m66.26,42.2c1.52.96,2.54,2.27,3.19,3.37,1.92,3.23,2.38,7.47,1.28,11.65-1.38,5.23-4.95,9.29-9.06,10.67"/>
  <path class="cls-2" d="m63.37,45.21c1.05.4,1.93,1.2,2.64,2.39,1.37,2.32,1.68,5.45.85,8.6-1.08,4.09-3.92,7.3-6.92,8.04"/>
  <path class="cls-2" d="m61.01,49.1c.27-.13.53-.19.75-.19.04,0,.09,0,.12.01.28.07.58.53.69.72.82,1.38.97,3.45.42,5.54-.75,2.86-2.6,4.74-3.89,5.15"/>
  <path class="cls-2" d="m68.5,77.78c-.08-.02-.14-.04-.19-.05-.69-.18-1.32-.39-1.95-.65-2.75-1.14-5.17-3.13-7.02-5.76-3.67-5.23-4.75-12.55-2.89-19.58,2.71-10.25,11.04-17.69,19.81-17.69,1.06,0,2.13.11,3.16.33.21.04.37.07.53.11"/>
  <path class="cls-2" d="m61.39,28.33c-1.97-2.78-4.43-4.89-7.31-6.26-1.09-.51-2.19-.91-3.32-1.19-.13-.03-.26-.06-.39-.08l-.24-.05c-11.19-2.37-23.19,6.69-26.76,20.2-2.16,8.18-.9,16.71,3.37,22.8,2.14,3.06,4.97,5.38,8.17,6.7.76.32,1.5.56,2.2.74.17.06.25.08.33.1,3.24.81,6.61.69,9.97-.38"/>
  <path class="cls-2" d="m52.41,21.38c-.63-.31-8.39-2.76-9.7-3.09-.13-.03-.25-.06-.37-.08l-.26-.05c-11.18-2.38-23.19,6.69-26.76,20.2-2.16,8.18-.9,16.71,3.37,22.8,2.14,3.06,4.97,5.38,8.17,6.7l.1.05c.83.34,9.13,3.17,10.07,3.28"/>
  <path class="cls-2" d="m44.57,33.92c-3.59,3.04-6.11,6.98-7.27,11.39-2.97,11.29,3.92,22.86,11.96,26.18l.04.02,1.91.64,17.1,5.58"/>
  <path class="cls-2" d="m55.49,28.73c2.33-.41,4.6-.39,6.76.05l17.06,5.57,3.47,1.15"/>
  <path class="cls-2" d="m13.39,48.97l-3.36-1.1-1.04-.35c-4.61-1.91-8.08-8.21-6.51-14.18,1.67-6.35,8.27-10.03,13.54-8.94h0l1.88.63,2.65.86"/>
  <path class="cls-2" d="m17.45,24.87h0c-4.1,2.07-7.58,5.83-8.89,10.77-1.12,4.27-.38,8.65,1.49,12.24"/>
  <path class="cls-2" d="m46.87,35.79l-3.85-4.82s3.8-3.87,9.76-5.27l.3,5.76,8.19,2.05-5.34,4.49-9.06-2.22Z"/>
  <path class="cls-2" d="m46.87,35.79c1.71-2.08,4.69-4.42,6.24-4.39"/>
  <polyline class="cls-2" points="52.78 25.7 55.84 29.13 61.27 30.92 61.27 33.52"/>
  <g>
    <path class="cls-1" d="m83.19,34.59l-3.56-1.19.57.12c1.05.26,2.04.62,2.99,1.07Z"/>
    <path class="cls-1" d="m52.93,20.53s-.04-.02-.07-.04"/>
    <path class="cls-1" d="m92.96,60.79c-3.29,12.49-14.35,20.54-24.7,17.96-.08-.02-.18-.05-.26-.08-.12-.03-.23-.06-.34-.1l-1.34-.45-.34-.11h-.02s-15.06-4.91-15.06-4.91l-2.01-.67h-.01c-.39-.17-.77-.35-1.15-.55h-.01c-3.42,1.07-7.01,1.26-10.53.38-.07-.02-.16-.04-.23-.07-.01,0-.02,0-.03-.01-.02,0-.03,0-.05-.01-1.3-.2-9.64-3.06-10.38-3.37h-.02c-3.49-1.46-6.41-3.92-8.61-7.06-2.49-3.54-4.06-7.96-4.48-12.77l-3.34-1.08h-.02s-1.04-.36-1.04-.36c-4.61-1.91-8.08-8.21-6.5-14.19,1.67-6.34,8.27-10.02,13.54-8.94h0l1.39.48.48.16,2.66.85c5.67-6.8,13.84-10.38,21.72-8.71.22.05.43.08.66.14,1.13.28,8.47,2.58,9.8,3.12.04.02.08.04.11.05.55.19,1.08.41,1.6.66l.05.02c3.07,1.47,5.68,3.74,7.69,6.58.09.02.17.03.26.05h.02l3.64,1.22,13.51,4.38,3.56,1.19.03.02h.01c8.39,3.98,12.7,14.97,9.73,26.18Z"/>
    <line class="cls-1" x1="67.99" y1="78.68" x2="67.66" y2="78.57"/>
    <path class="cls-1" d="m17.43,24.88s.01-.01.01-.01h.01"/>
  </g>
</svg>