<?xml version="1.0" encoding="UTF-8"?>
<svg id="Layer_1" data-name="Layer 1" xmlns="http://www.w3.org/2000/svg" width="960" height="960" viewBox="0 0 96 96">
  <defs>
    <style>
      .cls-1 {
        stroke-width: 4px;
      }

      .cls-1, .cls-2, .cls-3 {
        fill: none;
        stroke: #000;
        stroke-linejoin: round;
      }

      .cls-2, .cls-3 {
        stroke-width: 2px;
      }

      .cls-3 {
        stroke-linecap: round;
      }

      .cls-4 {
        fill-rule: evenodd;
      }
    </style>
  </defs>
  <g>
    <path class="cls-4" d="m48.38,75.5l3.58-.76v3.88l-3.58.76v-3.88Z"/>
    <path class="cls-4" d="m52.9,74.52l3.58-.76v3.88l-3.58.76v-3.88Z"/>
    <path class="cls-4" d="m60.02,73.12l3.58-.76v3.88l-3.58.76v-3.88Z"/>
    <path class="cls-4" d="m64.43,72.12l3.58-.76v3.88l-3.58.76v-3.88Z"/>
  </g>
  <path class="cls-3" d="m42.78,88.41l-8.44-6.49-8.43-7.86v-33.31s8.43-10.49,8.43-10.49l8.44-10.08,34.25-7.28"/>
  <path class="cls-2" d="m46.58,74.01l26.35-5.6v13.59l-26.35,5.6v-13.59Z"/>
  <polygon class="cls-1" points="11.06 53.79 2.1 55.69 2.1 45.92 11.06 44.02 11.06 35.27 19.49 24.78 27.93 14.7 61.37 7.59 77.03 12.9 85.47 19.39 93.9 26.29 93.9 60.56 85.47 71.05 77.03 81.12 42.78 88.4 25.22 82.32 11.06 69.54 11.06 53.79 11.06 53.79"/>
  <line class="cls-2" x1="70.14" y1="82.56" x2="70.14" y2="69"/>
  <circle cx="6.58" cy="49.85" r="1.86"/>
  <line class="cls-3" x1="12.06" y1="44.02" x2="12.06" y2="53.79"/>
  <polygon class="cls-2" points="55.31 33.61 55.31 67.29 46.78 69.1 46.78 35.42 55.31 33.61"/>
  <polygon class="cls-2" points="65.58 21.41 65.58 34.61 58.89 36.03 58.89 22.83 65.58 21.41"/>
  <ellipse cx="62.2" cy="25.8" rx="1.8" ry="1.45" transform="translate(1.43 54.79) rotate(-48.03)"/>
  <ellipse cx="62.2" cy="31.6" rx="1.8" ry="1.45" transform="translate(-2.89 56.72) rotate(-48.03)"/>
  <line class="cls-3" x1="42.71" y1="20.27" x2="27.61" y2="15.08"/>
  <line class="cls-3" x1="25.9" y1="41.03" x2="11.06" y2="35.93"/>
  <line class="cls-3" x1="25.9" y1="73.58" x2="11.06" y2="68.48"/>
</svg>