<?xml version="1.0" encoding="UTF-8"?>
<svg id="Layer_1" data-name="Layer 1" xmlns="http://www.w3.org/2000/svg" width="960" height="960" viewBox="0 0 96 96">
  <defs>
    <style>
      .cls-1 {
        stroke-width: 4px;
      }

      .cls-1, .cls-2 {
        fill: none;
        stroke: #000;
        stroke-linejoin: round;
      }

      .cls-2 {
        stroke-width: 2px;
      }
    </style>
  </defs>
  <path class="cls-2" d="m84.52,5.47c-.88-.32-1.9-.37-2.95-.14l-62.01,13.18c-3.47.74-6.29,4.15-6.29,7.6v62.01c0,.48.06.95.17,1.39.41,1.59,1.53,2.74,3.09,3.15"/>
  <path class="cls-1" d="m78.67,2.39c-1-.33-2.14-.39-3.36-.13L14.65,15.14c-3.94.83-7.13,4.71-7.13,8.64v62.77c0,2.55,1.34,4.51,3.36,5.33.01.01,0,0,0,0,.01.01,5.36,1.8,5.36,1.8,0,0,1.98.28,3.08.05l62.01-13.18c3.94-.84,7.13-4.71,7.13-8.65V9.9c0-2.65-1.45-4.66-3.6-5.43l-6.2-2.07Z"/>
  <path class="cls-2" d="m76.22,71.85l-45.32,9.63c-1.62.34-3.14-.89-3.14-2.55v-45.2c0-1.23.86-2.29,2.06-2.55l45.32-9.63c1.62-.34,3.14.89,3.14,2.55v45.2c0,1.23-.86,2.29-2.06,2.55Z"/>
  <line class="cls-2" x1="28.44" y1="31.99" x2="25.11" y2="29.92"/>
  <path class="cls-2" d="m76.42,21.62l-3.37-1.09c-1.33-.45-2.76-.53-4.13-.24l-42.42,8.87c-1.28.27-2.2,1.4-2.2,2.71v45.64c0,1.31.86,2.46,2.11,2.84l3.3,1.09"/>
  <ellipse cx="51.54" cy="18.11" rx="1.15" ry=".91" transform="translate(-.16 35.75) rotate(-38.21)"/>
  <polyline class="cls-2" points="50.13 24.38 53.11 26.24 53.24 26.32 52.85 76.82"/>
  <line class="cls-2" x1="14.99" y1="21.46" x2="8.84" y2="19.39"/>
</svg>