<?xml version="1.0" encoding="UTF-8"?>
<svg id="Layer_1" data-name="Layer 1" xmlns="http://www.w3.org/2000/svg" width="960" height="960" viewBox="0 0 96 96">
  <defs>
    <style>
      .cls-1 {
        stroke-linecap: round;
        stroke-width: 4px;
      }

      .cls-1, .cls-2 {
        fill: none;
        stroke: #000;
        stroke-linejoin: round;
      }

      .cls-2 {
        stroke-width: 2px;
      }

      .cls-3 {
        fill-rule: evenodd;
      }
    </style>
  </defs>
  <g>
    <path class="cls-2" d="m72.59,10.32s0,0-.02,0l-39.22,8.33c-.71.15-1.22.78-1.22,1.5v65.3c0,3.03,1.82,5.73,4.65,6.86"/>
    <g>
      <ellipse cx="52.86" cy="84.02" rx="1.65" ry="1.33" transform="translate(-46.34 80.31) rotate(-55.68)"/>
      <path class="cls-3" d="m61.49,71.17c-.41-.78-1.15-1.34-2.12-1.49l-11.1-1.66c-.97-.15-2.01.15-2.88.74-.87.59-1.59,1.48-1.95,2.52h0s0,.01,0,.01c-.35,1.05-.28,2.06.13,2.84s1.15,1.34,2.12,1.49l11.1,1.66c.98.15,2.01-.15,2.88-.74s1.6-1.48,1.95-2.53v-.03s.01,0,.01,0c.34-1.03.26-2.03-.14-2.8h0Z"/>
      <path class="cls-3" d="m61.49,55.24c-.41-.78-1.15-1.34-2.12-1.49l-11.1-1.66c-.97-.15-2.01.15-2.88.74-.87.59-1.59,1.48-1.95,2.52h0s0,.01,0,.01c-.35,1.05-.28,2.06.13,2.84s1.15,1.34,2.12,1.49l11.1,1.66c.98.15,2.01-.15,2.88-.74s1.6-1.48,1.95-2.53v-.03s.01,0,.01,0c.34-1.03.26-2.03-.14-2.8h0Z"/>
    </g>
    <path class="cls-1" d="m49.44,7.54l8.36-1.78c1.83-.4,3.72-.3,5.48.3l9.79,3.29-.16-.03c.33.12.55.43.55.83v69.78c0,3.97-2.78,7.41-6.66,8.26l-25.49,5.52c-1.72.37-3.42.19-4.92-.41l.24.07-10.95-5.68c-1.93-1.02-3.14-3.03-3.14-5.23V15.94c0-1.55,1.08-2.89,2.6-3.22l17.35-3.7v-2.64c0-1.91,1.55-3.8,3.47-4.2,1.91-.41,3.47.81,3.47,2.73v2.63Z"/>
  </g>
  <line class="cls-2" x1="32.74" y1="18.93" x2="22.57" y2="15.51"/>
  <line class="cls-2" x1="49.64" y1="8.52" x2="42.7" y2="10"/>
</svg>