<svg height="960" viewBox="0 0 960 960" width="960" xmlns="http://www.w3.org/2000/svg"><g fill="none" fill-rule="evenodd"><path d="m39.338961 124.929736 102.642937-102.6315859h676.714126l102.642937 102.6315859v723.129361l-90.248886 90.239053h-689.108177l-102.642937-102.631586z" stroke="#000" stroke-linejoin="round" stroke-width="40"/><g fill="#000"><circle cx="678" cy="118" r="24" transform="matrix(-1 0 0 1 1356 0)"/><circle cx="552.5" cy="118.5" r="12.5" transform="matrix(-1 0 0 1 1105 0)"/><path d="m170.338961 738.29815h72v72h-72z"/><path d="m266.338961 738.29815h72v72h-72z"/><path d="m362.338961 738.29815h72v72h-72z"/><path d="m458.338961 738.29815h72v72h-72z"/><path d="m554.338961 738.29815h72v72h-72z"/><path d="m650.338961 738.29815h72v72h-72z"/></g><path d="m148 714h692v224h-692z" stroke="#000" stroke-linecap="round" stroke-linejoin="round" stroke-width="20"/><path d="m746.338961 738.29815h72v72h-72z" fill="#000"/><circle cx="308.954346" cy="118" fill="#000" r="24"/><circle cx="434.454346" cy="118.5" fill="#000" r="12.5"/></g></svg>