<?xml version="1.0" encoding="UTF-8"?>
<svg id="Layer_1" data-name="Layer 1" xmlns="http://www.w3.org/2000/svg" width="960" height="960" viewBox="0 0 96 96">
  <defs>
    <style>
      .cls-1 {
        stroke-width: 4px;
      }

      .cls-1, .cls-2, .cls-3 {
        fill: none;
        stroke: #000;
        stroke-linejoin: round;
      }

      .cls-2, .cls-3 {
        stroke-width: 2px;
      }

      .cls-3 {
        stroke-linecap: round;
      }
    </style>
  </defs>
  <path class="cls-2" d="m62.37,6.06c-.36-.12-.77-.13-1.2-.04l-19.54,4.15c-1.52.32-2.81,1.87-2.81,3.39v77.43c0,.95.49,1.64,1.32,1.85"/>
  <line class="cls-3" x1="45.15" y1="27.34" x2="48.89" y2="26.54"/>
  <line class="cls-3" x1="53.45" y1="25.57" x2="57.19" y2="24.78"/>
  <line class="cls-3" x1="45.15" y1="33.35" x2="48.89" y2="32.56"/>
  <line class="cls-3" x1="53.45" y1="31.59" x2="57.19" y2="30.79"/>
  <line class="cls-3" x1="45.15" y1="39.35" x2="48.89" y2="38.56"/>
  <line class="cls-3" x1="53.45" y1="37.59" x2="57.19" y2="36.79"/>
  <line class="cls-3" x1="45.15" y1="45.29" x2="48.89" y2="44.5"/>
  <line class="cls-3" x1="53.45" y1="43.53" x2="57.19" y2="42.73"/>
  <line class="cls-3" x1="45.15" y1="51.21" x2="48.89" y2="50.42"/>
  <line class="cls-3" x1="53.45" y1="49.45" x2="57.19" y2="48.65"/>
  <path class="cls-3" d="m54.39,58.26l-6.38,1.36c-1.23.26-2.23-.52-2.23-1.75h0c0-1.23,1-2.44,2.23-2.7l6.38-1.36c1.23-.26,2.23.52,2.23,1.75h0c0,1.23-1,2.44-2.23,2.7Z"/>
  <ellipse cx="48.18" cy="57.41" rx="1.07" ry=".86" transform="translate(-26.73 54.84) rotate(-48.03)"/>
  <path class="cls-1" d="m64.57,7.87v77.43c0,1.99-1.61,3.94-3.6,4.36l-19.54,4.16c-.55.12-1.06.1-1.52-.02l-.23-.05-6.25-2.15c-1.19-.41-1.99-1.53-1.99-2.79V9.29c0-1.85,1.31-3.43,3.12-3.79l16.82-3.29c1.09-.21,2.22-.14,3.27.21l7.76,2.61.29.08c1.12.37,1.88,1.39,1.88,2.76Z"/>
  <line class="cls-2" x1="40.32" y1="10.78" x2="31.8" y2="7.65"/>
</svg>