<?xml version="1.0" encoding="UTF-8"?>
<svg id="Layer_1" data-name="Layer 1" xmlns="http://www.w3.org/2000/svg" width="960" height="960" viewBox="0 0 96 96">
  <defs>
    <style>
      .cls-1 {
        stroke-width: 4px;
      }

      .cls-1, .cls-2 {
        fill: none;
        stroke: #000;
        stroke-linecap: round;
        stroke-linejoin: round;
      }

      .cls-2 {
        stroke-width: 2px;
      }
    </style>
  </defs>
  <line class="cls-2" x1="50.5" y1="13.93" x2="29.7" y2="11.43"/>
  <ellipse class="cls-2" cx="62.03" cy="69.14" rx="14.94" ry="12.33" transform="translate(-21.91 108.93) rotate(-73.47)"/>
  <ellipse cx="61.66" cy="66.91" rx="2.03" ry="1.67" transform="translate(-20.03 106.99) rotate(-73.47)"/>
  <ellipse cx="51.76" cy="68.18" rx="2.03" ry="1.67" transform="translate(-28.34 98.4) rotate(-73.47)"/>
  <path class="cls-2" d="m53.46,80.92c4.88-.08,9.37-2.71,11.85-6.87"/>
  <path class="cls-2" d="m66.88,64.04c.31,1.34.43,2.73.31,4.14"/>
  <path class="cls-2" d="m65.33,60.15c-1.28-2.17-3.19-3.99-5.53-5.18"/>
  <path class="cls-2" d="m66.33,54.88s-.08-.03-.12-.04c-.11-.04-.21-.07-.32-.1-.06-.02-.12-.03-.18-.05-8.3-2.35-17.57,2.87-19.45,11.33-1.81,8.15,3.98,16.83,12.13,17.61"/>
  <path class="cls-2" d="m71.66,69c-.06.8-.2,1.62-.41,2.43-.35,1.33-.88,2.56-1.55,3.65l-4.97-1.17v-4.56l2.46-1.17,4.47.82Z"/>
  <path class="cls-2" d="m71.26,64.66l-6.54-.94v-3.66l4.49.63c.94,1.1,1.64,2.46,2.05,3.97Z"/>
  <path class="cls-1" d="m28.69,78.12v1.75c0,4.44,2.33,8.47,6.11,10.7.41.25.86.43,1.32.58l2.69.9c3.51,1.18,6.28,2.47,9.41,1.51l21.13-4.74c5.24-1.62,8.82-6.47,8.82-11.95V10.9c0-2.82-1.88-5.29-4.6-6.03l-7.42-2.47c-.92-.25-1.46-.4-2.4-.21l-29.99,6.42c-2.95.56-5.09,3.13-5.09,6.13v40.96h0c-1.91.57-4.66,1.89-6.44,4.89v12.28h.01c.12.27,2.06,4.17,6.43,5.27h0Z"/>
  <path class="cls-2" d="m50.16,93.14c-4.03,1.25-8.11-1.76-8.11-5.98v-31.78c0-.47.08-.92.23-1.36,1.34-3.92,8.22-24.72,8.22-40.09l23.05-5c.04,16.74.81,28.61,4.51,37.2"/>
  <line class="cls-2" x1="73.55" y1="8.92" x2="76.43" y2="6.57"/>
  <g>
    <path class="cls-2" d="m63.16,31.9h0c-1.11.3-2-.36-2-1.47v-10.48c0-1.11.9-2.24,2-2.54h0c1.11-.3,2,.36,2,1.47v10.48c0,1.11-.9,2.24-2,2.54Z"/>
    <path class="cls-2" d="m63.16,31.9h0c-1.11.3-2-.36-2-1.47v-1.56c0-1.11.9-2.24,2-2.54h0c1.11-.3,2,.36,2,1.47v1.56c0,1.11-.9,2.24-2,2.54Z"/>
    <polygon class="cls-2" points="65.16 23 61.16 24.07 61.16 20.72 65.16 19.64 65.16 23"/>
  </g>
  <line class="cls-1" x1="22.25" y1="66.71" x2="17.83" y2="65.23"/>
  <line class="cls-2" x1="29.68" y1="55.69" x2="29.68" y2="78.12"/>
</svg>