<?xml version="1.0" encoding="UTF-8"?>
<svg id="Layer_1" data-name="Layer 1" xmlns="http://www.w3.org/2000/svg" width="960" height="960" viewBox="0 0 96 96">
  <defs>
    <style>
      .cls-1 {
        stroke-width: 4px;
      }

      .cls-1, .cls-2 {
        fill: none;
        stroke: #000;
        stroke-linejoin: round;
      }

      .cls-2 {
        stroke-width: 2px;
      }
    </style>
  </defs>
  <path class="cls-2" d="m84.52,5.47c-.88-.32-1.9-.37-2.95-.14l-62.01,13.18c-3.47.74-6.29,4.15-6.29,7.6v62.01c0,.48.06.95.17,1.39.41,1.59,1.53,2.74,3.09,3.15"/>
  <path class="cls-1" d="m78.67,2.39c-1-.33-2.14-.39-3.36-.13L14.65,15.14c-3.94.83-7.13,4.71-7.13,8.64v62.77c0,2.55,1.34,4.51,3.36,5.33.01.01.03.02.04.02.21.09.43.16.65.21l-.69-.23s.03.02.04.02l.65.21,3.94,1.32s.04.01.06.02l.66.22h0c.93.25,1.98.28,3.08.05l62.01-13.18c3.94-.84,7.13-4.71,7.13-8.65V9.9c0-2.65-1.45-4.66-3.6-5.43l-6.2-2.07Z"/>
  <path class="cls-2" d="m81.14,71.19c-.09.7-.62,1.27-1.32,1.42l-56.1,11.9c-1.78.38-3.23-.76-3.23-2.54V28.74c0-1.78,1.45-3.54,3.23-3.92,0,0,44.22-9.32,54.06-11.4,0-.05,4.34,1.62,4.37,1.97,1.77,18.58,1.43,37.29-1.01,55.8Z"/>
  <path class="cls-2" d="m54.03,21.59c1.97,18.83,1.79,37.82-.58,56.61"/>
  <path class="cls-2" d="m24.08,84.43c2.47-17.95,2.72-36.13.77-54.15l-.11-1.01c-.09-.76.42-1.46,1.17-1.63l56.25-12.1"/>
  <polyline class="cls-2" points="48.19 19.64 48.2 19.64 54.03 21.59"/>
  <line class="cls-2" x1="24.99" y1="28.27" x2="20.98" y2="26.93"/>
  <line class="cls-2" x1="15.45" y1="20.91" x2="9.23" y2="18.82"/>
</svg>