<?xml version="1.0" encoding="UTF-8"?>
<svg id="Layer_1" data-name="Layer 1" xmlns="http://www.w3.org/2000/svg" width="960" height="960" viewBox="0 0 96 96">
  <defs>
    <style>
      .cls-1 {
        stroke-width: 4px;
      }

      .cls-1, .cls-2, .cls-3 {
        fill: none;
        stroke: #000;
        stroke-linejoin: round;
      }

      .cls-1, .cls-3 {
        stroke-linecap: round;
      }

      .cls-2, .cls-3 {
        stroke-width: 2px;
      }
    </style>
  </defs>
  <path class="cls-3" d="m17.12,14.78c4.92,3.15,17.83,5.44,30.71,5.44h0c13.08,0,26.14-2.28,31.05-5.43"/>
  <ellipse class="cls-2" cx="47.93" cy="11.33" rx="22.2" ry="4.96" transform="translate(-.07 .29) rotate(-.34)"/>
  <path class="cls-1" d="m81.98,11.9c0,1.33-.91,2.58-2.56,3.74-.04,22.78-2.73,42.11-16.82,49.45v19.14c0,2.05-1.43,3.51-3.43,3.52l-20.48.07c-2.71,0-5.27-2.6-5.27-5.37v-17.15l-.32-.15c-14.43-7.3-16.48-26.68-16.51-49.51-1.65-1.15-2.56-2.42-2.56-3.73,0-5.41,15.22-9.8,33.98-9.8,18.76,0,33.98,4.39,33.98,9.8Z"/>
  <line class="cls-1" x1="41.56" y1="93.9" x2="41.56" y2="87.9"/>
  <line class="cls-1" x1="54.44" y1="93.9" x2="54.44" y2="87.76"/>
  <path class="cls-2" d="m37.9,19.78l.58,12.4c.1,1.98,2.02,3.26,3.96,2.62l1.49-.5c1.34-.45,2.71-.72,4.07-.81,1.36.09,2.73.36,4.07.81l1.49.5c1.94.64,3.86-.64,3.96-2.62l.58-12.42"/>
  <path class="cls-2" d="m33.85,64.4c3.91,1.93,8.53,2.86,14.15,2.86,5.25,0,10.14-1.06,14.15-3.07"/>
</svg>