<?xml version="1.0" encoding="UTF-8"?>
<svg id="Layer_1" data-name="Layer 1" xmlns="http://www.w3.org/2000/svg" width="960" height="960" viewBox="0 0 96 96">
  <defs>
    <style>
      .cls-1 {
        stroke-width: 4px;
      }

      .cls-1, .cls-2 {
        fill: none;
        stroke: #000;
        stroke-linecap: round;
        stroke-linejoin: round;
      }

      .cls-2 {
        stroke-width: 2px;
      }
    </style>
  </defs>
  <path class="cls-2" d="m65.84,10.98v8.5c0,1.49-1.21,2.95-2.69,3.26l-17.45,3.71c-1.48.32-2.69-.63-2.69-2.12v-8.5"/>
  <ellipse cx="36.74" cy="25.85" rx="1.72" ry="1.39" transform="translate(-7.05 35.88) rotate(-48.03)"/>
  <ellipse cx="27.61" cy="27.79" rx="1.45" ry="1.17" transform="translate(-11.51 29.73) rotate(-48.03)"/>
  <polyline class="cls-2" points="42.2 88.87 42.2 70.49 19.08 75.27"/>
  <polygon class="cls-2" points="90.43 60.24 90.43 78.63 67.31 83.55 67.31 65.16 90.43 60.24"/>
  <g>
    <ellipse cx="84.14" cy="70.75" rx="2.65" ry="2.14" transform="translate(-25.25 81.71) rotate(-45.78)"/>
    <ellipse cx="72.81" cy="73.16" rx="2.65" ry="2.14" transform="translate(-30.4 74.32) rotate(-45.78)"/>
  </g>
  <g>
    <ellipse cx="36.46" cy="80.89" rx="2.65" ry="2.14" transform="translate(-46.94 50.6) rotate(-45.78)"/>
    <ellipse cx="25.13" cy="83.29" rx="2.65" ry="2.14" transform="translate(-52.09 43.21) rotate(-45.78)"/>
  </g>
  <polygon class="cls-1" points="19.08 93.9 5.57 89.38 5.57 21.36 10.96 14.81 70.8 2.1 85.08 6.89 85.08 6.89 90.43 11.19 90.43 78.63 67.31 83.55 66.46 83.72 66.46 79.33 42.98 84.33 42.98 88.71 19.08 93.9 19.08 93.9"/>
  <line class="cls-2" x1="24.75" y1="19.43" x2="10.96" y2="14.81"/>
  <line class="cls-2" x1="19.36" y1="25.98" x2="5.57" y2="21.36"/>
  <polyline class="cls-2" points="19.08 93.9 19.09 26.31 24.48 19.77 85.08 6.89"/>
</svg>