<?xml version="1.0" encoding="UTF-8"?>
<svg id="Layer_1" data-name="Layer 1" xmlns="http://www.w3.org/2000/svg" width="960" height="960" viewBox="0 0 96 96">
  <defs>
    <style>
      .cls-1 {
        stroke-width: 4px;
      }

      .cls-1, .cls-2 {
        fill: none;
        stroke: #000;
        stroke-linejoin: round;
      }

      .cls-2 {
        stroke-linecap: round;
        stroke-width: 2px;
      }
    </style>
  </defs>
  <path class="cls-2" d="m86.14,5.84c-.33-.26-.78-.34-1.29-.23L16.24,20.19c-1.2.25-2.21,1.47-2.21,2.66v68.61c0,.82.5,1.38,1.28,1.42"/>
  <path class="cls-2" d="m26.29,26.94c.75,8.11,1.13,17.19,1.13,27.24s-.38,19.22-1.13,27.53"/>
  <path class="cls-2" d="m74.59,71.45c1.85-.39,3.42-2.07,3.7-3.96,1.57-10.53,2.35-18.76,2.35-24.71s-.78-13.85-2.35-23.71c-.28-1.77-1.85-2.78-3.7-2.39l-48.61,10.33c-1.85.39-3.42,2.07-3.7,3.96-1.57,10.53-2.35,18.76-2.35,24.71s.78,13.85,2.35,23.71c.28,1.77,1.85,2.78,3.7,2.39l48.61-10.33Z"/>
  <path class="cls-2" d="m75.44,16.6c-.76,8.43-1.16,17.68-1.16,27.76s.39,18.9,1.14,26.82"/>
  <path class="cls-2" d="m31.81,53.2l37.23-8.03"/>
  <line class="cls-2" x1="14.9" y1="20.94" x2="8.52" y2="18.8"/>
  <path class="cls-1" d="m14.67,93.8l-3.55-1.2c-1.65-.55-2.77-2.1-2.77-3.85V19.83s0-.1,0-.14c.08-1.61,1.38-3.16,3.01-3.5L77,2.19c.71-.15,1.45-.11,2.14.12l6.69,2.3.47.15.46.28c.54.43.88,1.11.88,1.94v68.61c0,1.66-1.35,3.3-3.01,3.65l-68.61,14.58c-.27.06-.53.08-.77.06l-.58-.09Z"/>
</svg>