<?xml version="1.0" encoding="UTF-8"?>
<svg id="Layer_1" data-name="Layer 1" xmlns="http://www.w3.org/2000/svg" width="960" height="960" viewBox="0 0 96 96">
  <defs>
    <style>
      .cls-1 {
        stroke-width: 4px;
      }

      .cls-1, .cls-2 {
        fill: none;
        stroke: #000;
        stroke-linecap: round;
        stroke-linejoin: round;
      }

      .cls-2 {
        stroke-width: 2px;
      }
    </style>
  </defs>
  <line class="cls-2" x1="43.6" y1="15.9" x2="30.88" y2="11.6"/>
  <ellipse class="cls-2" cx="61.44" cy="68.98" rx="15.21" ry="12.55" transform="translate(-22.17 108.25) rotate(-73.47)"/>
  <ellipse cx="61.07" cy="66.71" rx="2.07" ry="1.7" transform="translate(-20.26 106.28) rotate(-73.47)"/>
  <ellipse cx="50.99" cy="68" rx="2.07" ry="1.7" transform="translate(-28.71 97.53) rotate(-73.47)"/>
  <path class="cls-2" d="m52.7,80.89c6.41.17,10.08-2.68,12.55-6.79"/>
  <path class="cls-2" d="m66.88,64.01c.3,1.32.42,2.69.31,4.09"/>
  <path class="cls-2" d="m64.81,59.83c-1.3-2.21-3.24-4.06-5.63-5.27"/>
  <path class="cls-2" d="m65.82,54.47s-.08-.03-.12-.04c-.11-.04-.22-.07-.32-.1-.06-.02-.12-.03-.18-.05-8.45-2.39-17.89,2.92-19.8,11.53-1.85,8.29,4.05,17.13,12.34,17.92"/>
  <path class="cls-2" d="m71.25,68.83c-.06.82-.2,1.65-.42,2.48-.36,1.35-.9,2.61-1.58,3.72l-5.06-1.19v-4.64l2.51-1.19,4.55.83Z"/>
  <path class="cls-2" d="m70.84,64.42l-6.66-.96v-3.72l4.57.64c.96,1.12,1.67,2.5,2.09,4.04Z"/>
  <line class="cls-2" x1="29.69" y1="53.7" x2="29.69" y2="80.06"/>
  <path class="cls-1" d="m78.16,13.23v63.84c0,5.48-3.58,10.34-8.81,11.95l-20.88,4.54c-3.16.76-6.23.19-9.51-.97l-4.93-1.65c-3.18-1.07-5.33-4.05-5.33-7.41v-5.43c-4.37-1.1-6.31-4.99-6.43-5.26h0v-12.28c.9-1.5,2.02-2.59,3.17-3.36,1.14-.78,2.31-1.25,3.26-1.53V17.85c0-4.82,3.42-8.95,8.15-9.85l26.24-5.79c.94-.18,1.89-.14,2.81.11l5.41,1.91c3.99,1.32,6.86,4.8,6.86,9Z"/>
  <path class="cls-2" d="m78.16,43.23V12.69c0-.51-.08-.98-.22-1.44,0,0,0-.02,0-.03-.73-2.24-3.05-3.72-5.51-3.21l-23.99,4.8c-3.71.76-6.38,4.02-6.38,7.81v66.58c0,4.05,3.77,6.98,7.64,6.1"/>
  <ellipse cx="60.97" cy="30.89" rx="1.89" ry="1.56" transform="translate(14.01 80.55) rotate(-73.47)"/>
  <line class="cls-1" x1="22.26" y1="66.71" x2="17.84" y2="65.23"/>
</svg>