<?xml version="1.0" encoding="UTF-8"?>
<svg id="Layer_1" data-name="Layer 1" xmlns="http://www.w3.org/2000/svg" width="960" height="960" viewBox="0 0 96 96">
  <defs>
    <style>
      .cls-1, .cls-2 {
        stroke-width: 4px;
      }

      .cls-1, .cls-2, .cls-3, .cls-4 {
        fill: none;
        stroke: #000;
        stroke-linejoin: round;
      }

      .cls-2, .cls-4 {
        stroke-linecap: round;
      }

      .cls-3, .cls-4 {
        stroke-width: 2px;
      }
    </style>
  </defs>
  <g>
    <path d="m55.56,71.68v5.9l-1.67.41c-1.4.35-2.54-.69-2.54-2.33s1.14-3.24,2.54-3.57l1.67-.41Z"/>
    <path d="m69.16,71.72c0,1.63-1.14,3.24-2.55,3.58l-1.49.36v-5.9l1.49-.37c1.41-.35,2.55.69,2.55,2.33Z"/>
    <polygon points="59.98 76.69 56.31 77.47 56.31 71.54 59.98 70.76 59.98 76.69"/>
    <polygon points="64.4 75.78 60.72 76.56 60.72 70.64 64.4 69.86 64.4 75.78"/>
    <polygon class="cls-3" points="73.15 65.43 47.28 70.93 47.28 63.23 73.15 57.73 73.15 65.43"/>
  </g>
  <path class="cls-3" d="m60.16,31.13l.93-.2c1.8-.38,3.27.77,3.27,2.57v10.19c0,1.8-1.46,3.58-3.27,3.96l-.93.2c-1.8.38-3.27-.77-3.27-2.57v-10.19c0-1.8,1.46-3.58,3.27-3.96Z"/>
  <ellipse cx="60.63" cy="34.84" rx="2.07" ry="1.68" transform="translate(-5.82 56.62) rotate(-48.03)"/>
  <ellipse cx="60.63" cy="43.47" rx="2.07" ry="1.68" transform="translate(-12.24 59.48) rotate(-48.03)"/>
  <path class="cls-4" d="m45.09,89.2l-.33-.1c-2.38-.71-4.64-1.68-6.73-2.91l-1.42-.83,1.59-1.8-4.39-3.46-1.59,1.66-.98-1.08c-1.7-1.87-3.17-3.97-4.36-6.26l-.15-.28v-32.91l.15-.35c1.26-2.94,2.81-5.8,4.63-8.52l.99-1.47,1.23.76.09.05,5.51-6.65h0s-.95-1.02-.95-1.02c2.34-2.32,3.98-3.8,6.67-5.63l29.91-6.74"/>
  <path class="cls-2" d="m74.94,11.66l.06.02s-.06-.02-.06-.02Z"/>
  <line class="cls-4" x1="32.99" y1="49.99" x2="37.35" y2="49.05"/>
  <line class="cls-4" x1="32.99" y1="52.8" x2="37.35" y2="51.86"/>
  <line class="cls-4" x1="32.99" y1="55.61" x2="37.35" y2="54.66"/>
  <line class="cls-4" x1="32.99" y1="58.41" x2="37.35" y2="57.47"/>
  <line class="cls-4" x1="37.36" y1="60.28" x2="33.03" y2="61.21"/>
  <line class="cls-4" x1="37.36" y1="63.09" x2="33.75" y2="63.86"/>
  <line class="cls-4" x1="86" y1="39.53" x2="82.34" y2="40.32"/>
  <line class="cls-4" x1="86.43" y1="42.24" x2="82.34" y2="43.13"/>
  <line class="cls-4" x1="82.34" y1="45.93" x2="86.71" y2="44.99"/>
  <line class="cls-4" x1="82.34" y1="48.74" x2="86.71" y2="47.79"/>
  <line class="cls-4" x1="86.46" y1="50.65" x2="82.34" y2="51.54"/>
  <line class="cls-4" x1="86.04" y1="53.56" x2="82.34" y2="54.35"/>
  <path class="cls-1" d="m11.63,53.28l-9.53,2.02v-10.4l9.53-2.02h0s0-6.51,0-6.51l.15-.34c1.26-2.95,2.81-5.8,4.62-8.52l.99-1.47,1.23.76.09.05,5.5-6.65h.01l-.96-1.01c2.34-2.32,7.88-6.46,7.88-6.46l28.7-5.92,15.41,4.94-.26-.05c.6.19,5.45,1.78,7.59,2.97l1.47.82-1.47,1.66,4.38,3.46,1.55-1.61.99,1.03c1.62,1.7,3.03,3.61,4.21,5.68l.17.3v35.19l-.17.36c-1.12,2.44-2.44,4.81-3.95,7.08l-.99,1.48-1.82-1.12-4.38,5.32,1.78,1.26-1.44,1.44c-2.03,2.03-4.21,3.9-6.51,5.56l-.34.23-30.98,6.4-.34-.1-23.23-8.6,1.59-1.8-4.4-3.46-1.59,1.66-.99-1.07c-1.7-1.87-3.16-3.97-4.35-6.27l-.15-.28v-16.01h0Z"/>
  <circle cx="6.87" cy="49.09" r="1.98"/>
  <line class="cls-4" x1="12.7" y1="42.88" x2="12.7" y2="53.28"/>
  <ellipse class="cls-4" cx="59.42" cy="49.92" rx="32.45" ry="26.77" transform="translate(-5.35 92.68) rotate(-73.47)"/>
  <line class="cls-4" x1="45.37" y1="18.33" x2="30.48" y2="13.22"/>
  <line class="cls-4" x1="26.72" y1="41.46" x2="11.68" y2="36.28"/>
  <line class="cls-4" x1="26.72" y1="73.74" x2="11.64" y2="68.55"/>
</svg>