<?xml version="1.0" encoding="UTF-8"?>
<svg id="Layer_1" data-name="Layer 1" xmlns="http://www.w3.org/2000/svg" width="960" height="960" viewBox="0 0 96 96">
  <defs>
    <style>
      .cls-1 {
        stroke-width: 4px;
      }

      .cls-1, .cls-2, .cls-3 {
        fill: none;
        stroke: #000;
        stroke-linejoin: round;
      }

      .cls-2, .cls-3 {
        stroke-width: 2px;
      }

      .cls-3 {
        stroke-linecap: round;
      }
    </style>
  </defs>
  <g>
    <path class="cls-2" d="m90.74,43.39c0,8.52-3.23,16.97-8.51,23.87l-45.94,9.99c-5.28-4.61-8.51-11.65-8.51-20.17s3.24-16.98,8.52-23.89l45.91-9.98c5.29,4.61,8.52,11.66,8.52,20.18Z"/>
    <path class="cls-2" d="m49.64,34.61h0c1.57-.33,2.84.67,2.84,2.24v7.63c0,1.57-1.27,3.11-2.84,3.44h0c-1.57.33-2.84-.67-2.84-2.24v-7.63c0-1.57,1.27-3.11,2.84-3.44Z"/>
    <ellipse cx="49.64" cy="37.72" rx="1.58" ry="1.28" transform="translate(-11.6 49.41) rotate(-48.03)"/>
    <ellipse cx="49.54" cy="43.78" rx="2.56" ry="1.43" transform="translate(1.05 88.73) rotate(-84.3)"/>
    <path class="cls-2" d="m58.57,32.5h0c1.57-.33,2.84.67,2.84,2.24v7.63c0,1.57-1.27,3.11-2.84,3.44h0c-1.57.33-2.84-.67-2.84-2.24v-7.63c0-1.57,1.27-3.11,2.84-3.44Z"/>
    <ellipse cx="58.57" cy="35.6" rx="1.58" ry="1.28" transform="translate(-7.07 55.35) rotate(-48.03)"/>
    <ellipse cx="58.57" cy="41.9" rx="2.51" ry="1.4" transform="translate(11.06 96.02) rotate(-84.3)"/>
    <path class="cls-2" d="m67.42,30.12h0c1.6-.34,2.89.68,2.89,2.28v7.77c0,1.6-1.29,3.17-2.89,3.5h0c-1.6.34-2.89-.68-2.89-2.28v-7.77c0-1.6,1.29-3.17,2.89-3.5Z"/>
    <ellipse cx="67.42" cy="33.28" rx="1.61" ry="1.3" transform="translate(-2.41 61.16) rotate(-48.03)"/>
    <ellipse cx="67.42" cy="39.69" rx="2.56" ry="1.43" transform="translate(21.23 102.84) rotate(-84.3)"/>
    <path class="cls-2" d="m90.42,20.04c-.54-.12-1.13-.12-1.74,0-.27.06-.54.14-.81.24l-.43.17-.41-.22c-1.58-.86-3.19-1.17-4.55-.88-1.45.32-9.24,1.98-23.35,4.98l-.76.16c-14.11,3-21.9,4.65-23.35,4.95-1.38.29-3.11,1.36-4.74,2.94l-.28.27h-.39c-.26.02-.52.05-.79.11-2.51.53-4.56,3.01-4.56,5.51,0,.75.19,1.44.56,1.99l.26.39-.14.45c-.51,1.66-.76,3.35-.76,5v23.12c0,1.65.26,3.22.76,4.66l.14.41-.2.39c-.41.78-.63,1.62-.63,2.42,0,1.36.62,2.46,1.71,2.99"/>
    <g>
      <g>
        <path d="m55.16,70.2l-1.46.31c-.53-.02-.91-.45-.91-1.01v-1.9c0-.57.39-1.16.93-1.4l1.45-.31c1.15-.24,2.08.52,2.08,1.71,0,1.19-.93,2.35-2.08,2.59h0Z"/>
        <path d="m50.05,71.28l1.46-.31c.53-.25.91-.83.91-1.39v-1.9c0-.57-.39-.99-.93-1.01l-1.45.31c-1.15.24-2.08,1.41-2.08,2.59,0,1.19.93,1.95,2.08,1.71h0Z"/>
      </g>
      <g>
        <path d="m43.07,72.77l-1.46.31c-.53-.02-.91-.45-.91-1.01v-1.9c0-.57.39-1.16.93-1.4l1.45-.31c1.15-.24,2.08.52,2.08,1.71,0,1.19-.93,2.35-2.08,2.59h0Z"/>
        <path d="m37.96,73.85l1.46-.31c.53-.25.91-.83.91-1.39v-1.9c0-.57-.39-.99-.93-1.01l-1.45.31c-1.15.24-2.08,1.41-2.08,2.59,0,1.19.93,1.95,2.08,1.71h0Z"/>
      </g>
      <g>
        <path d="m67.25,67.63l-1.46.31c-.53-.02-.91-.45-.91-1.01v-1.9c0-.57.39-1.16.93-1.4l1.45-.31c1.15-.24,2.08.52,2.08,1.71,0,1.19-.93,2.35-2.08,2.59h0Z"/>
        <path d="m62.14,68.71l1.46-.31c.53-.25.91-.83.91-1.39v-1.9c0-.57-.39-.99-.93-1.01l-1.45.31c-1.15.24-2.08,1.41-2.08,2.59,0,1.19.93,1.95,2.08,1.71h0Z"/>
      </g>
      <g>
        <path d="m79.42,65.04l-1.46.31c-.53-.02-.91-.45-.91-1.01v-1.9c0-.57.39-1.16.93-1.4l1.45-.31c1.15-.24,2.08.52,2.08,1.71,0,1.19-.93,2.35-2.08,2.59h0Z"/>
        <path d="m74.31,66.13l1.46-.31c.53-.25.91-.83.91-1.39v-1.9c0-.57-.39-.99-.93-1.01l-1.45.31c-1.15.24-2.08,1.41-2.08,2.59,0,1.19.93,1.95,2.08,1.71h0Z"/>
      </g>
    </g>
    <path class="cls-1" d="m91.3,19.28l-.03-.02-.48-.15h-.02s-11.63-3.9-11.63-3.9c-1.11-.44-2.06-.72-3.32-.46-.32.07-.65.17-.96.3-1.32-.72-2.7-1.1-3.99-1.1-.42,0-.85.03-1.24.12-1.46.32-9.24,1.98-23.35,4.97l-.35.08-.41.09c-14.09,2.99-21.89,4.63-23.33,4.94-1.62.33-3.48,1.5-5.24,3.2-.32.01-.64.05-.97.12-2.95.62-5.35,3.53-5.35,6.49,0,.96.27,1.83.74,2.54-.54,1.74-.81,3.51-.81,5.28v6.6l-8.44,1.79v10.15l8.44-1.79v6.38c0,1.8.28,3.47.82,4.99-.48.91-.75,1.9-.75,2.88,0,2.09,1.2,3.64,2.95,4.16l11.97,4.04c.87.43,1.94.57,3.09.33.35-.08.71-.18,1.05-.33,1.73.92,3.57,1.28,5.16.93,1.45-.32,9.24-1.98,23.34-4.98l.33-.07h0c14.38-3.05,22.31-4.73,23.77-5.04,1.59-.33,3.43-1.47,5.16-3.12.34,0,.69-.04,1.05-.12,2.96-.63,5.35-3.53,5.35-6.49,0-.97-.26-1.85-.74-2.57.54-1.75.82-3.55.82-5.34v-1.07c0-2.46,0-5.96,0-10.49,0-4.35,0-7.74,0-10.19v-.3s0-1.07,0-1.07c0-1.77-.28-3.43-.8-4.94.47-.91.73-1.89.73-2.85,0-2.18-1.31-3.78-3.18-4.22l.66.22Z"/>
    <circle cx="7.64" cy="54.07" r="1.93"/>
    <line class="cls-2" x1="11.54" y1="48.39" x2="11.54" y2="58.54"/>
  </g>
  <line class="cls-3" x1="24.89" y1="41.31" x2="11.31" y2="36.65"/>
  <polyline class="cls-3" points="14.84 27.84 29.07 32.73 29.08 32.73"/>
  <line class="cls-3" x1="24.91" y1="73.78" x2="11.08" y2="69.03"/>
</svg>