<?xml version="1.0" encoding="UTF-8"?>
<svg id="Layer_1" data-name="Layer 1" xmlns="http://www.w3.org/2000/svg" width="960" height="960" viewBox="0 0 96 96">
  <defs>
    <style>
      .cls-1 {
        stroke-width: 4px;
      }

      .cls-1, .cls-2, .cls-3 {
        fill: none;
        stroke: #000;
        stroke-linejoin: round;
      }

      .cls-2, .cls-3 {
        stroke-width: 2px;
      }

      .cls-3 {
        stroke-linecap: round;
      }
    </style>
  </defs>
  <line class="cls-2" x1="16.55" y1="20.7" x2="7.18" y2="17.56"/>
  <path class="cls-2" d="m18.9,93.5c-2.59-.93-4.5-3.4-4.5-6.39V25.66c0-3.2,2.24-5.97,5.38-6.64l61.75-13.13c1.37-.29,2.71-.15,3.9.32"/>
  <path class="cls-2" d="m79.54,73.75l-53.74,11.42c-1.8.38-3.5-.99-3.5-2.83V28.73c0-1.37.96-2.55,2.29-2.83l53.74-11.42c1.8-.38,3.5.99,3.5,2.83v53.61c0,1.37-.96,2.55-2.29,2.83Z"/>
  <path class="cls-1" d="m18.72,93.43l-6.98-2.34h-.02l-1.55-.52s-.01-.01-.02-.01c-2.26-1.07-3.87-3.37-3.87-6.12l.07-63.64c0-3.2,2.25-5.97,5.38-6.64L70.22,2.25c1.1-.23,2.17-.19,3.17.09.29.07,11.76,3.77,11.76,3.77l.29.11c2.48.98,4.3,3.4,4.3,6.32v61.45c0,3.2-2.24,5.97-5.38,6.64l-61.75,13.13c-1.29.27-2.56.16-3.7-.24l-.19-.07Z"/>
  <path class="cls-3" d="m74.96,28.84v29.38s0,.09-.01.14"/>
  <path class="cls-3" d="m31.15,32.94c44.41,8.27,43.88-9.14,43.8-9.1"/>
  <path class="cls-3" d="m74.95,23.8v5.02c0,.7,2.09,17.14-43.1,10.45h-.01c-.23-.04-.46-.1-.69-.17"/>
  <polyline class="cls-3" points="31.15 39.13 31.15 39.11 31.15 32.93 74.94 23.77"/>
  <path class="cls-3" d="m31.15,63.84c42.44,5.99,43.88-9.14,43.8-9.1"/>
  <path class="cls-3" d="m74.95,54.7v5.02c0,.7-.09,15.19-43.06,10.32,0,0-.33-.02-.74-.03v-.46s0-.01,0-.01v-31.57"/>
  <line class="cls-3" x1="44.28" y1="65.13" x2="44.28" y2="40.65"/>
  <line class="cls-3" x1="69.42" y1="61.29" x2="69.42" y2="37.39"/>
</svg>