<?xml version="1.0" encoding="UTF-8"?>
<svg id="Layer_1" data-name="Layer 1" xmlns="http://www.w3.org/2000/svg" width="960" height="960" viewBox="0 0 96 96">
  <defs>
    <style>
      .cls-1 {
        stroke-width: 4px;
      }

      .cls-1, .cls-2, .cls-3 {
        fill: none;
        stroke: #000;
        stroke-linejoin: round;
      }

      .cls-2, .cls-3 {
        stroke-width: 2px;
      }

      .cls-3 {
        stroke-linecap: round;
      }

      .cls-4 {
        fill-rule: evenodd;
      }
    </style>
  </defs>
  <g>
    <path class="cls-4" d="m50.61,75.05l3.58-.76v3.88l-3.58.76v-3.88Z"/>
    <path class="cls-4" d="m56.66,73.76l3.58-.76v3.88l-3.58.76v-3.88Z"/>
    <path class="cls-4" d="m62.78,72.46l3.58-.76v3.88l-3.58.76v-3.88Z"/>
  </g>
  <path class="cls-3" d="m42.78,88.41l-8.44-6.49-8.43-6.9v-34.27s8.43-10.49,8.43-10.49l8.44-10.08,34.25-7.28"/>
  <path class="cls-2" d="m46.58,74.01l26.35-5.6v13.59l-26.35,5.6v-13.59Z"/>
  <path class="cls-2" d="m80.92,42.34c0,1.42-1.16,2.82-2.57,3.12l-36.58,7.78c-1.42.3-2.57-.61-2.57-2.03v-17.22l5.56-6.76,30.53-6.49,5.64,4.45v17.15Z"/>
  <polygon class="cls-1" points="11.06 53.79 2.1 55.69 2.1 45.92 11.06 44.02 11.06 35.27 19.49 24.78 27.93 14.7 61.37 7.59 77.03 12.9 85.47 19.39 93.9 26.29 93.9 60.56 85.47 71.05 77.03 81.12 42.78 88.4 25.9 82.93 11.06 71.07 11.06 53.79 11.06 53.79"/>
  <line class="cls-2" x1="68.94" y1="69.26" x2="68.94" y2="82.84"/>
  <circle cx="6.58" cy="49.85" r="1.86"/>
  <line class="cls-3" x1="12.06" y1="44.02" x2="12.06" y2="53.79"/>
  <line class="cls-3" x1="42.72" y1="20.26" x2="27.62" y2="15.07"/>
  <line class="cls-3" x1="25.9" y1="40.8" x2="11.06" y2="35.7"/>
  <line class="cls-3" x1="26.41" y1="75.42" x2="11.06" y2="70.15"/>
</svg>