<svg height="960" viewBox="0 0 960 960" width="960" xmlns="http://www.w3.org/2000/svg"><g fill="none" fill-rule="evenodd"><g stroke="#000" stroke-linecap="round" stroke-linejoin="round"><path d="m764.417791 316c114.973024 0 147.885485 8.630023 155.637895 13.906875 5.168273 3.517901 9.22752 8.115616 12.17774 13.793146 4.164066 2.018656 6.804254 4.262499 7.920563 6.731529l.033439.077521.066576.17574.066174.203338c.010995.03619.021974.073529.032936.112019l.06557.244736.097602.418851.128726.655062.095489.563742.094584.625839.124704.931046.092471.77073.121887 1.124234.150096 1.560533.118266 1.37262.14557 1.871015.143054 2.043505.196053 3.150689.191124 3.488769.159897 3.259458.181971 4.116632.201932 5.118697.243362 7.019335.094528 3.000922c-4.913849 8.796107-12.561954 15.079714-22.944314 18.850822l-.482103.173774-1.053724.371228c-.371166.128833-.762277.262643-1.173398.401086l-1.293451.428892-1.413884.454641c-22.359085 7.080288-86.402814 22.336731-198.076287 13.517978l-6.634669-.529651-6.50033-.530477-6.365991-.531303-6.231652-.532129c45.79677 23.760374 76.203153 78.517972 78.110132 142.013473l.04905 1.926758c.32091 10.742247-.264439 21.7767-1.836622 32.963359l-.2471 1.708796c-13.140134 93.496912-83.510481 161.08237-157.816772 152.190832l.784639.187939c-15.148165.703684-31.821021-.725294-50.018568-4.286933l-.925179-.121197c-9.55011-1.34218-18.69652-3.888912-27.360318-7.506242l-1.732818-.611144-3.033173-1.087943-2.557165-.932797-2.673272-.988308-2.789375-1.043827-3.649981-1.382866-4.619418-1.77398-3.224721-1.252081-4.194142-1.643222-4.375511-1.730034-5.490011-2.190652-4.774496-1.921068-2.951742-1.194331-46.802521-11.354948c-32.675229-15.139256-55.526227-32.474368-68.552995-52.005335-.803132-.094256-1.609825-.198549-2.417262-.312027-32.995256-4.637181-60.566597-23.672682-77.730641-50.205492l.527577-131.45508c23.613434-36.340585 65.675852-57.76619 109.981026-51.539504.769651.108167 1.536352.224169 2.300038.347917l.684796-.58155c26.761134-22.464447 59.759272-33.820375 93.560614-29.069906 2.421996.34039 4.81723.759128 7.184286 1.253897l1.146617-4.292008.780561-1.783918 1.009827-2.272462.734179-1.624776.947986-2.060271.687798-1.465633.667921-1.397429.434237-.893727.634792-1.283756.614914-1.215551.398899-.772476.390065-.742164.381231-.71185.372396-.681538.363561-.651225.354727-.620912.345892-.590599c.056913-.095907.113457-.190551.169634-.283932l.33264-.545129.323806-.514817c.053232-.083277.106095-.16529.158591-.246041l.310554-.469348.30172-.439034.292885-.408722c3.827177-5.221524 12.39327-10.981778 18.928638-11.178855l.342055-.005203c4.383601 0 8.366881-.679088 11.949841-2.037265l24.634044-26.441581 7.878272-1.641976 10.183649-2.103728 1.065712-.232014 3.350536-.754034 2.473365-.549194 2.129235-.461033 1.552371-.32851 1.660108-.344037 1.769075-.358368 1.87927-.371501 1.990693-.383437 2.103345-.394178c1.440054-.266098 2.956028-.538558 4.54956-.815784l2.448673-.419214c.83575-.140796 1.691094-.282585 2.566238-.425166l2.685033-.42992c27.448398-4.318985 72.900278-9.171632 141.884093-9.171632z" stroke-width="20"/><path d="m629.953658 735.09594c64.113197 9.061272 125.50998-51.017216 137.133553-134.189057 11.623574-83.171841-30.927673-157.941552-95.040869-167.002823-64.113197-9.061272-125.50998 51.017216-137.133553 134.189057-11.623574 83.171841 30.927673 157.941552 95.040869 167.002823z" stroke-width="10"/><path d="m628.989924 410-25.785226 7.904383c-53.761186 18.033014-97.946228 74.755072-108.077186 146.914266-13.258114 94.432807 36.826247 179.543867 111.86655 190.100874 75.040302 10.557006 146.620312-57.437764 159.878426-151.870571 9.965383-70.979865-15.855761-136.693233-61.16238-169.438843" stroke-width="10"/><path d="m611.795534 713.313056c52.047308 7.330671 102.390404-44.84593 112.444453-116.539701s-23.988214-135.755739-76.035521-143.086411c-52.047308-7.330671-102.390404 44.84593-112.444453 116.539701s23.988214 135.755739 76.035521 143.086411z" stroke-width="10"/><path d="m565 694c30.118283-11.368598 56.153047-41.518309 69.177073-81.233533m8.399649-43.246783c.734554-10.603426.501553-20.967396-.609466-30.924084m-15.227051-51.190124c-6.123283-11.585512-13.807055-21.570343-22.758267-29.405224" stroke-width="10"/><path d="m565 694c30.118283-11.368598 56.153047-41.518309 69.177073-81.233533m8.399649-43.246783c.734554-10.603426.501553-20.967396-.609466-30.924084m-15.227051-51.190124c-6.123283-11.585512-13.807055-21.570343-22.758267-29.405224" stroke-width="10"/><path d="m495.405646 457c-22.155119 25.509426-37.995871 59.372129-43.413448 97.828419-12.842825 91.163891 37.752491 175.061568 113.007802 185.612832" stroke-width="10"/><path d="m410 431c-29.741603 25.230418-51.640492 64.286442-58.093207 110.177041-6.513188 46.320669 4.021337 90.283365 26.069899 122.822959" stroke-width="10"/><path d="m507.5 414.750139-7.5 4.249861c-35.498008 23.932746-63.686692 72.651127-71.745584 131.799591-10.729837 78.751944 17.782823 149.876451 65.504985 172.200409" stroke-width="10"/><path d="m514.969925 389.573346c4.73666-10.915084 8.401362-18.1448 10.994106-21.689148 3.889116-5.316521 12.678329-11.191198 19.244943-11.191198 4.377743 0 8.3557-.679522 11.933873-2.038566l24.601126-26.458461c5.273064-1.106761 11.183463-2.334749 17.731197-3.683966 9.821601-2.023826 59.361855-15.512007 174.181248-15.512007 114.819394 0 147.687876 8.635533 155.429927 13.915753 5.161367 3.520147 9.21519 8.120797 12.161468 13.801952 4.158501 2.019945 6.795161 4.26522 7.909979 6.735826 1.114817 2.470606 2.06222 16.447868 2.842208 41.931786-4.907283 8.801722-12.545168 15.08934-22.913655 18.862856-15.552731 5.660273-80.666811 25.054521-203.220933 15.357397-81.702749-6.464749-133.416696-13.114246-155.141841-19.948491l-17.847344 4.591094c-12.796943 14.774847-20.222342 26.943417-22.276197 36.505709s-4.212729 22.310998-6.47662 38.246118l-32.12341-3.243925z" stroke-width="10"/><path d="m634 568 70.826779 6.276484c.422023 9.809595.072906 17.826094-1.047352 24.049496s-2.980158 13.448075-5.5797 21.67402l-61.859566-7.880631z" stroke-width="10"/><path d="m631.782388 533.431279 69.217612 3.568721c-5.841065-18.038167-10.66589-30.638687-14.474477-37.80156-18.824387-1.114176-37.666228-2.180322-56.525523-3.19844z" stroke-width="10"/><path d="m555 354c26.477225 16.439964 73.323906 27.552673 140.54004 33.338128 100.824202 8.678182 241.514359-4.828601 247.45996-26.518659" stroke-width="10"/><path d="m286.656089 530.408631-33.314573-4.43277c-8.323338-1.107487-16.056442 4.49639-17.595569 12.750817-1.419799 7.614468 3.601972 14.938189 11.21644 16.357988.302755.056452.607287.102916.913101.139317l40.124512 4.776017" stroke-width="10"/></g><path d="m596.750367 574.897353c7.861312 1.095388 15.465217-6.701116 16.983798-17.413978 1.51858-10.712862-3.62322-20.28534-11.484532-21.380728s-15.465217 6.701116-16.983798 17.413978c-1.51858 10.712862 3.62322 20.28534 11.484532 21.380728z" fill="#000"/><path d="m42.8890221 609.274852c52.1239826 7.325548 102.5412429-44.814586 112.6101039-116.458249 10.06886-71.643664-24.023553-135.660858-76.1475355-142.986406-52.1239826-7.325548-102.5412434 44.814586-112.6101036 116.458249-10.0688603 71.643664 24.02355249 135.660858 76.1475352 142.986406z" stroke="#000" stroke-linecap="round" stroke-linejoin="round" stroke-width="10"/><path d="m-3.26077012 590.892278c30.17967892-11.412398 56.26751512-41.678266 69.31809062-81.546501m7.4167714-45.413401c.7360512-10.644277.5025754-21.048176-.6107078-31.043225m-10.2580917-43.387344c-6.1357511-11.630251-13.8351738-21.653637-22.8046245-29.518767" stroke="#000" stroke-linecap="round" stroke-linejoin="round" stroke-width="10"/><path d="m64.440138 464.243165 71.050906 6.369795c.423359 9.955434.073137 18.091113-1.050666 24.407037-1.123803 6.315925-2.989588 13.648006-5.597356 21.996246l-62.055318-7.997792z" stroke="#000" stroke-linecap="round" stroke-linejoin="round" stroke-width="10"/><path d="m62.6015914 429.897965 69.8051036 3.56261c-5.890642-18.00728-10.756418-30.586224-14.597331-37.736831-18.9841606-1.112268-37.9859235-2.176589-57.0052884-3.192964z" stroke="#000" stroke-linecap="round" stroke-linejoin="round" stroke-width="10"/><path d="m27.9998243 471.30216c7.8029914 1.096639 15.3504855-6.70877 16.8577999-17.43387 1.5073144-10.725099-3.5963402-20.308511-11.3993316-21.40515s-15.3504855 6.70877-16.8578 17.433869c-1.5073144 10.7251 3.5963402 20.308512 11.3993317 21.405151z" fill="#000"/><path d="m427.291347 821.416907-191.520298-45.296674" stroke="#000" stroke-linecap="round" stroke-linejoin="round" stroke-width="20"/><path d="m265.653322 807.810379-29.882273-32.64618 53.686619-8.348812" stroke="#000" stroke-linecap="round" stroke-linejoin="round" stroke-width="20"/><path d="m250.382436 557.39624-1.903658 97.956009c-.288061 15.740109-10.109211 29.726929-24.816393 35.342339l-215.51325736 82.286003c-3.67074858 1.401544-7.42283611 2.205505-11.14912764 2.459813m2.85491454-545.60432c46.67081966-9.779566 116.67704946-24.448916 210.01868846-44.008049 20.857815-4.37062 41.309501 8.994893 45.68012 29.852707.593769 2.833628.866742 5.72508.813766 8.619765l-5.985053 295.189775" stroke="#000" stroke-linecap="round" stroke-linejoin="round" stroke-width="20"/></g></svg>