<?xml version="1.0" encoding="UTF-8"?>
<svg id="Layer_1" data-name="Layer 1" xmlns="http://www.w3.org/2000/svg" width="960" height="960" viewBox="0 0 96 96">
  <defs>
    <style>
      .cls-1 {
        stroke-width: 4px;
      }

      .cls-1, .cls-2 {
        fill: none;
        stroke: #000;
        stroke-linecap: round;
        stroke-linejoin: round;
      }

      .cls-2 {
        stroke-width: 2px;
      }
    </style>
  </defs>
  <path class="cls-2" d="m40.89,93.86V10.14l14.76-.95s8.28-.87,16.46-2.5l4.63-2.93"/>
  <line class="cls-2" x1="54.98" y1="9.23" x2="54.98" y2="92.41"/>
  <line class="cls-2" x1="72.11" y1="6.69" x2="72.11" y2="86.3"/>
  <line class="cls-2" x1="40.89" y1="10.14" x2="31.42" y2="6.97"/>
  <ellipse cx="59.83" cy="56" rx="1.05" ry=".82" transform="translate(-15.07 89.24) rotate(-67.04)"/>
  <ellipse cx="62.82" cy="55.33" rx="1.05" ry=".82" transform="translate(-12.64 91.58) rotate(-67.04)"/>
  <ellipse cx="68.33" cy="53.98" rx="1.05" ry=".82" transform="translate(-8.03 95.83) rotate(-67.04)"/>
  <ellipse cx="65.54" cy="54.66" rx="1.05" ry=".82" transform="translate(-10.36 93.68) rotate(-67.04)"/>
  <ellipse cx="59.83" cy="59.84" rx="1.05" ry=".82" transform="translate(-18.61 91.58) rotate(-67.04)"/>
  <ellipse cx="62.82" cy="59.17" rx="1.05" ry=".82" transform="translate(-16.18 93.93) rotate(-67.04)"/>
  <ellipse cx="68.33" cy="57.82" rx="1.05" ry=".82" transform="translate(-11.56 98.18) rotate(-67.04)"/>
  <ellipse cx="65.54" cy="58.5" rx="1.05" ry=".82" transform="translate(-13.89 96.02) rotate(-67.04)"/>
  <ellipse cx="59.83" cy="63.68" rx="1.05" ry=".82" transform="translate(-22.15 93.92) rotate(-67.04)"/>
  <ellipse cx="62.82" cy="63.01" rx="1.05" ry=".82" transform="translate(-19.71 96.27) rotate(-67.04)"/>
  <ellipse cx="68.33" cy="61.66" rx="1.05" ry=".82" transform="translate(-15.1 100.52) rotate(-67.04)"/>
  <ellipse cx="65.54" cy="62.34" rx="1.05" ry=".82" transform="translate(-17.43 98.36) rotate(-67.04)"/>
  <ellipse cx="59.83" cy="67.52" rx="1.05" ry=".82" transform="translate(-25.68 96.26) rotate(-67.04)"/>
  <ellipse cx="62.82" cy="66.85" rx="1.05" ry=".82" transform="translate(-23.25 98.61) rotate(-67.04)"/>
  <ellipse cx="68.33" cy="65.5" rx="1.05" ry=".82" transform="translate(-18.63 102.86) rotate(-67.04)"/>
  <ellipse cx="65.54" cy="66.18" rx="1.05" ry=".82" transform="translate(-20.96 100.71) rotate(-67.04)"/>
  <ellipse cx="59.83" cy="71.36" rx="1.05" ry=".82" transform="translate(-29.22 98.61) rotate(-67.04)"/>
  <ellipse cx="62.82" cy="70.69" rx="1.05" ry=".82" transform="translate(-26.78 100.95) rotate(-67.04)"/>
  <ellipse cx="68.33" cy="69.34" rx="1.05" ry=".82" transform="translate(-22.17 105.2) rotate(-67.04)"/>
  <ellipse cx="65.54" cy="70.02" rx="1.05" ry=".82" transform="translate(-24.5 103.05) rotate(-67.04)"/>
  <ellipse cx="59.83" cy="75.24" rx="1.05" ry=".82" transform="translate(-32.79 100.97) rotate(-67.04)"/>
  <ellipse cx="62.82" cy="74.58" rx="1.05" ry=".82" transform="translate(-30.36 103.32) rotate(-67.04)"/>
  <ellipse cx="68.33" cy="73.22" rx="1.05" ry=".82" transform="translate(-25.74 107.57) rotate(-67.04)"/>
  <ellipse cx="65.54" cy="73.9" rx="1.05" ry=".82" transform="translate(-28.07 105.41) rotate(-67.04)"/>
  <ellipse cx="59.83" cy="79.08" rx="1.05" ry=".82" transform="translate(-36.33 103.31) rotate(-67.04)"/>
  <ellipse cx="62.82" cy="78.42" rx="1.05" ry=".82" transform="translate(-33.89 105.66) rotate(-67.04)"/>
  <ellipse cx="68.33" cy="77.06" rx="1.05" ry=".82" transform="translate(-29.28 109.91) rotate(-67.04)"/>
  <ellipse cx="65.54" cy="77.74" rx="1.05" ry=".82" transform="translate(-31.61 107.76) rotate(-67.04)"/>
  <path class="cls-2" d="m64.84,49.18h0c-1.22.28-2.21-.48-2.21-1.7v-28.36c0-1.22.99-2.43,2.21-2.72h0c1.22-.28,2.21.48,2.21,1.7v28.36c0,1.22-.99,2.43-2.21,2.72Z"/>
  <ellipse cx="36.52" cy="23.94" rx="1.43" ry="2.1" transform="translate(-6.49 16.39) rotate(-23.29)"/>
  <ellipse cx="36.52" cy="32.79" rx="1.43" ry="2.1" transform="translate(-9.99 17.11) rotate(-23.29)"/>
  <ellipse cx="36.52" cy="41.64" rx="1.43" ry="2.1" transform="translate(-13.49 17.83) rotate(-23.29)"/>
  <path class="cls-1" d="m31.42,31.61l-3.57-1.25-3.32-4.29,4.33-7.02,2.56.8h0s0-11.2,0-11.2c0-.97.71-1.79,1.67-1.93l31.51-4.6c.13-.02.26-.02.4-.02l7.42.44c.15,0,.3.03.44.08l2.49.74c.83.25,1.39,1,1.39,1.87v75.86c0,1.04-.48,2.02-1.3,2.65-.76.59-1.86,1.44-3.33,2.56-3.06,1.73-6.32,3.08-9.7,4.06l-7.61,2.2-13.09,1.32c-.47.05-.95,0-1.41-.16l-6.59-2.21c-1.37-.46-2.29-1.74-2.29-3.19V31.61h0Z"/>
  <line class="cls-1" x1="26.65" y1="22.64" x2="19.92" y2="20.36"/>
  <line class="cls-2" x1="32.42" y1="19.85" x2="32.42" y2="31.61"/>
</svg>