<?xml version="1.0" encoding="UTF-8"?>
<svg id="Layer_1" data-name="Layer 1" xmlns="http://www.w3.org/2000/svg" width="960" height="960" viewBox="0 0 96 96">
  <defs>
    <style>
      .cls-1 {
        stroke-width: 4px;
      }

      .cls-1, .cls-2 {
        fill: none;
        stroke: #000;
        stroke-linecap: round;
        stroke-linejoin: round;
      }

      .cls-2 {
        stroke-width: 2px;
      }
    </style>
  </defs>
  <path class="cls-1" d="m70.34,8.51v75.78c0,1.72-1.1,3.24-2.73,3.78l-26,5.68c-1.13.38-2.05.01-3.38-.42l-9.14-3.03c-2.05-.68-3.43-2.59-3.43-4.75V11.31c0-1.91,1.35-3.55,3.23-3.9l27.11-5.19c.93-.18,1.9-.14,2.82.12l8.6,2.34c1.73.47,2.93,2.04,2.93,3.84Z"/>
  <path class="cls-2" d="m26.19,9.32l12.92,4.63.4,79.78"/>
  <polyline class="cls-2" points="39.12 13.99 44.1 12.88 63.9 8.42 70.06 7.04"/>
  <path class="cls-2" d="m44.1,93.22V14.85c0-1.16.8-2.16,1.93-2.42l16.19-3.64c1.55-.35,3.02.83,3.02,2.42v77.34"/>
  <path class="cls-2" d="m48.78,66.82l10.52-2.19c1.35-.28,2.73.87,2.73,2.29v14.65c0,.91-.58,1.65-1.44,1.84l-10.52,2.37c-1.36.31-2.76-.85-2.76-2.28v-14.84c0-.92.6-1.67,1.47-1.85Z"/>
  <ellipse cx="55.3" cy="19.14" rx="1.9" ry="1.57" transform="translate(21.22 66.71) rotate(-73.47)"/>
</svg>