<?xml version="1.0" encoding="UTF-8"?>
<svg width="960" height="960" version="1.1" viewBox="0 0 960 960" xmlns="http://www.w3.org/2000/svg">
 <style type="text/css">#pair {
            animation: press 3s infinite;
        }

        @keyframes press {
            0%, 10%,  90%, 100%  {
                fill: rgba(0,0,0,0);
            }
            15%, 25%, 55%, 85%{
                fill: #0074CC;
            }
        }</style>
 <g fill-rule="evenodd">
  <path id="pair" d="m483.99 145.6v120.05h-151.63v-115.95c0-1.1316 0.55302-2.1561 1.4452-2.8977 0.89218-0.74158 2.1247-1.2012 3.4861-1.2012z" fill="#0074cc" stroke-width="1.4983"/>
  <path d="m740.25 12c24.853 0 45 20.147 45 45v844c0 24.853-20.147 45-45 45h-519.51c-24.853 0-45-20.147-45-45v-844c0-24.853 20.147-45 45-45zm0 20h-519.51c-13.807 0-25 11.193-25 25v844c0 13.807 11.193 25 25 25h519.51c13.807 0 25-11.193 25-25v-844c0-13.807-11.193-25-25-25zm-125.86 108.12c13.807 0 25 11.193 25 25v629.85c0 13.669-10.97 24.776-24.587 24.997l-0.41342 0.00335h-264.67c-13.807 0-25-11.193-25-25v-629.85c0-13.807 11.193-25 25-25zm14.999 499h-294.67l3.01e-4 155.85c0 8.2843 6.7157 15 15 15h264.67c8.2843 0 15-6.7157 15-15zm-149.07 56.246c5.0469 0 9.1087 1.2894 12.186 3.8682s4.9583 6.2367 5.6445 10.974h-6.375c-1.1953-6.3971-5.0026-9.5957-11.422-9.5957-4.2721 0-7.5094 1.4997-9.7119 4.499-2.2025 2.9993-3.3148 7.3434-3.3369 13.032v3.9512c0 5.4232 1.2396 9.734 3.7188 12.933 2.4792 3.1986 5.8327 4.7979 10.061 4.7979 2.3906 0 4.4824-0.26562 6.2754-0.79688s3.276-1.4277 4.4492-2.6895v-10.857h-11.189v-5.1797h17.531v17.73c-1.638 2.3464-3.9235 4.1006-6.8564 5.2627-2.9329 1.1621-6.3473 1.7432-10.243 1.7432-3.9401 0-7.4375-0.92415-10.492-2.7725-3.0547-1.8483-5.4176-4.4769-7.0889-7.8857-1.6712-3.4089-2.529-7.36-2.5732-11.854v-4.2168c0-7.2826 1.6989-12.927 5.0967-16.934 3.3978-4.0065 8.1735-6.0098 14.327-6.0098zm149.07-178.58h-294.67v112.34h294.67zm-138.53 30.247v32.107h6.707v5.0137h-6.707v11.223h-6.1758v-11.223h-22.014v-3.6191l21.648-33.502zm-6.1758 8.4004-0.73047 1.3281-14.311 22.379h15.041zm144.71-160.98h-294.67v112.34h294.67zm-148.05 32.542c4.5599 0 8.1348 1.2064 10.725 3.6191 2.5898 2.4128 3.8848 5.7663 3.8848 10.061 0 2.1029-0.68066 4.1393-2.042 6.1094s-3.2152 3.4421-5.5615 4.416c2.6562 0.84114 4.7093 2.2357 6.1592 4.1836 1.4499 1.9479 2.1748 4.3275 2.1748 7.1387 0 4.3385-1.4167 7.7806-4.25 10.326s-6.5189 3.8184-11.057 3.8184c-4.5378 0-8.2288-1.2285-11.073-3.6855-2.8444-2.457-4.2666-5.6999-4.2666-9.7285h6.1758c0 2.5456 0.83008 4.582 2.4902 6.1094s3.8848 2.291 6.6738 2.291c2.9661 0 5.235-0.77474 6.8066-2.3242s2.3574-3.7741 2.3574-6.6738c0-2.8112-0.86328-4.9694-2.5898-6.4746-1.7266-1.5052-4.2168-2.2799-7.4707-2.3242h-4.6152v-5.0137h4.6152c2.8997-0.044271 5.1797-0.80794 6.8398-2.291 1.6602-1.4831 2.4902-3.4863 2.4902-6.0098 0-5.6667-2.8223-8.5-8.4668-8.5-2.6562 0-4.7757 0.75814-6.3584 2.2744-1.5827 1.5163-2.374 3.5251-2.374 6.0264h-6.1426c0-3.8294 1.4001-7.0114 4.2002-9.5459 2.8001-2.5345 6.3584-3.8018 10.675-3.8018zm148.05-154.88h-294.67v112.34h294.67zm-149.59 29.255c4.4935 0 8.0462 1.1787 10.658 3.5361 2.612 2.3574 3.918 5.4951 3.918 9.4131 0 4.7591-3.0326 10.426-9.0977 17l-12.949 14.045h24.271v5.0137h-31.676v-4.416l16.734-18.594c2.4792-2.8112 4.1891-5.0967 5.1299-6.8564 0.94076-1.7598 1.4111-3.5804 1.4111-5.4619 0-2.5234-0.76367-4.5931-2.291-6.209-1.5273-1.6159-3.5638-2.4238-6.1094-2.4238-3.0547 0-5.4287 0.86882-7.1221 2.6064-1.6934 1.7376-2.54 4.1559-2.54 7.2549h-6.1426c0-4.4492 1.4333-8.0462 4.2998-10.791 2.8665-2.7448 6.7015-4.1172 11.505-4.1172zm134.59-151.25h-264.67c-8.2843 0-15 6.7157-15 15l-3.01e-4 96.995h294.67l9.68e-4 -96.995c0-8.2843-6.7157-15-15-15zm-127.28 32.305v48.576h-6.1758v-40.939l-12.385 4.5488v-5.5781l17.598-6.6074z" fill-rule="nonzero"/>
 </g>
</svg>
