<?xml version="1.0" encoding="UTF-8"?>
<svg id="Layer_1" data-name="Layer 1" xmlns="http://www.w3.org/2000/svg" width="960" height="960" viewBox="0 0 96 96">
  <defs>
    <style>
      .cls-1 {
        stroke-width: 4px;
      }

      .cls-1, .cls-2 {
        fill: none;
        stroke: #000;
        stroke-linecap: round;
        stroke-linejoin: round;
      }

      .cls-2 {
        stroke-width: 2px;
      }
    </style>
  </defs>
  <path class="cls-2" d="m24.94,79.14c.11.67,9.87,6.23,12.16,5.66,2.29-.57,22.26-9.9,28.66-8.82"/>
  <path class="cls-2" d="m38.89,4.59s-4.73,17.19-4.7,40.67,1.84,39.51,1.84,39.51"/>
  <path class="cls-2" d="m41.34,3.95s1.93.76,1.49,2.84c-.62,2.89-3.64,16.98-3.94,35.6-.2,12.31.96,21.43,1.77,26.21.37,2.17,2.37,3.45,4.67,2.98,3.7-.75,8.3-1.69,12.54-2.8,2.05-.54,3.86-2.31,4.1-4.39,1.29-11.11,5.89-36.77.34-62.25"/>
  <ellipse class="cls-2" cx="53.03" cy="62.6" rx="4.63" ry="2.88" transform="translate(-21.61 28.53) rotate(-25.2)"/>
  <path class="cls-1" d="m65.76,75.97s2.22-19.98,3.67-37.91c1.45-17.93-1.28-31.18-1.58-32.15-.6-1.99-.22-4.17-9.8-3.76-9.59.4-13.65,1.02-17.97,2.11-2.73.69-12.03,2.86-13.1,8.24-1.3,6.55-3.17,24.4-3.51,38.22-.29,11.92.83,24.24,1.48,28.42h0s-.03.08-.03.08c0,0-6.46,5.24-1.31,8.19,3.58,2.06,7.16,5.79,12.37,6.36s9.79-.79,13.06-4.23c3.28-3.44,4.03-4.28,14.13-3.89,10.1.39,17.97-7.05,2.6-9.68Z"/>
</svg>