<?xml version="1.0" encoding="UTF-8"?>
<svg id="Layer_1" data-name="Layer 1" xmlns="http://www.w3.org/2000/svg" width="960" height="960" viewBox="0 0 96 96">
  <defs>
    <style>
      .cls-1 {
        stroke-width: 4px;
      }

      .cls-1, .cls-2, .cls-3 {
        fill: none;
        stroke: #000;
        stroke-linejoin: round;
      }

      .cls-1, .cls-3 {
        stroke-linecap: round;
      }

      .cls-2, .cls-3 {
        stroke-width: 2px;
      }
    </style>
  </defs>
  <path class="cls-3" d="m19.25,13.86c4.67,2.99,16.64,5.15,28.47,5.15h0c12.16,0,24.37-2.16,29.03-5.15"/>
  <path class="cls-2" d="m34.83,60.17c3.65,1.8,7.96,2.68,13.17,2.68,4.87,0,9.42-.99,13.17-2.87"/>
  <ellipse class="cls-2" cx="47.94" cy="10.71" rx="20.72" ry="4.62" transform="translate(-.06 .29) rotate(-.34)"/>
  <path class="cls-1" d="m79.71,11.24c0,1.24-.85,2.42-2.4,3.49-.04,21.25-2.54,39.3-15.69,46.14v17.11c0,3.42-1.98,6.59-5.13,7.95-2.48,1.08-5.36,1.65-8.68,1.65-2.88,0-5.42-.39-7.65-1.15-3.49-1.17-5.77-4.54-5.77-8.22v-17.14l-.3-.14c-13.46-6.81-15.37-24.89-15.4-46.2-1.55-1.07-2.4-2.25-2.4-3.49,0-5.04,14.2-9.14,31.71-9.14s31.71,4.1,31.71,9.14Z"/>
  <line class="cls-1" x1="41.99" y1="93.83" x2="41.99" y2="86.95"/>
  <line class="cls-1" x1="52.53" y1="93.9" x2="55.53" y2="93.9"/>
  <line class="cls-1" x1="40.49" y1="93.9" x2="43.49" y2="93.9"/>
  <line class="cls-1" x1="54.01" y1="93.83" x2="54.01" y2="86.8"/>
  <path class="cls-2" d="m37.84,18.52l.65,13.66c.1,1.99,2.02,3.27,3.96,2.62l1.49-.5c1.34-.45,2.7-.72,4.07-.81,1.36.09,2.73.36,4.07.81l1.49.5c1.95.65,3.86-.63,3.96-2.62l.65-13.69"/>
</svg>