<?xml version="1.0" encoding="UTF-8"?>
<svg id="Layer_1" data-name="Layer 1" xmlns="http://www.w3.org/2000/svg" width="960" height="960" viewBox="0 0 96 96">
  <defs>
    <style>
      .cls-1, .cls-2 {
        stroke-width: 4px;
      }

      .cls-1, .cls-2, .cls-3, .cls-4, .cls-5, .cls-6 {
        fill: none;
        stroke: #000;
        stroke-linejoin: round;
      }

      .cls-2, .cls-4, .cls-5, .cls-6 {
        stroke-linecap: round;
      }

      .cls-3, .cls-6 {
        stroke-width: 2px;
      }

      .cls-4 {
        stroke-width: 1.25px;
      }

      .cls-7 {
        fill-rule: evenodd;
      }
    </style>
  </defs>
  <polyline class="cls-2" points="64.84 2.47 66.07 2.88 74.63 5.81"/>
  <path class="cls-3" d="m32.03,35.4c.65,9.78,2.5,17.35,5.5,22.48,2.99,5.12,7.22,7.96,12.56,8.45.73.07,1.15.07,2.31-.18s1.58-.43,2.31-.8c5.34-2.76,9.57-7.4,12.56-13.79,3-6.41,4.86-14.76,5.5-24.82-.03-3.66-.67-6.31-3.72-7.4-2.91-1.04-7.89-.69-16.65,1.18-8.76,1.86-13.74,3.63-16.65,5.9-3.04,2.38-3.69,5.31-3.72,8.98h0Z"/>
  <path class="cls-1" d="m74.76,5.9c1.2.49,2.18,1.22,2.95,2.2,1.38,1.75,2.13,4.28,2.45,8.17.52,6.53.82,15.1.82,23.5,0,6.1-.32,12.37-.63,18.44l-.06,1.17c-.22,4.47-.89,10.68-2.02,13.5-1.15,2.81-4.83,7.43-10.34,8.6l-.63.13c-.37.08-.73.19-1.06.3-2.58.79-4.31,2.02-5.17,3.66h0c-1.32,2.36-2.71,4.25-4.13,5.6-1.45,1.38-2.98,2.26-4.54,2.6-1.25.25-2.48.16-3.66-.29l-15.44-5.21-3.69-1.23-5.35-1.85-3.2-1.08s-.01-.01-.02-.01h-.01"/>
  <path class="cls-6" d="m74.32,6.99c-1.23-.5-2.8-.71-4.65-.64-4.04.17-12.48,1.6-17.03,2.56-4.53.96-12.98,3.12-17.05,4.68-3.51,1.34-5.96,3.26-7.5,5.85-1.27,2.16-1.98,4.84-2.28,8.71-.52,6.7-.81,15.36-.81,23.76,0,6.01.31,12.09.62,17.98l.07,1.27c.24,4.6.92,10.15,1.9,12.19.46.95,1.4,1.92,2.52,2.6l3.44,1.15c.96.1,1.99.04,3.07-.19l.61-.14c.47-.08.85-.14,1.2-.18,3.03-.36,5.15.3,6.28,1.98l.07.11c1.19,1.59,2.18,2.98,3.4,3.62"/>
  <path class="cls-1" d="m66.08,2.88h-.01c-.38-.17-.79-.3-1.23-.41-1.16-.3-2.49-.41-4-.35-4.13.18-12.66,1.62-17.24,2.59-4.56.97-13.09,3.15-17.22,4.74-3.77,1.44-6.41,3.52-8.09,6.36-1.37,2.34-2.13,5.19-2.43,9.23-.52,6.75-.83,15.44-.83,23.84,0,6.08.32,12.23.63,18.17l.06,1.15c.22,4.37.89,10.3,2.03,12.64.54,1.11,1.65,2.39,3.28,3.28h.01s.01.01.02.01"/>
  <path class="cls-7" d="m52.44,85.05c-2.11.45-3.58,1.81-3.58,2.74s1.47,1.67,3.58,1.22c2.11-.45,3.58-1.81,3.58-2.74s-1.47-1.67-3.58-1.22Z"/>
  <ellipse cx="52.44" cy="15.74" rx="2.94" ry="2.37" transform="translate(5.67 44.2) rotate(-48.03)"/>
  <path class="cls-4" d="m42.35,29.86v6.41"/>
  <path class="cls-6" d="m41.72,39.53c-.36,0-.71-.04-1.05-.13-1.17-.29-2.17-1.07-2.84-2.19-.87-1.46-1.08-3.36-.6-5.2.77-2.9,3.13-5.01,5.62-5.01.36,0,.71.04,1.05.13,1.17.29,2.17,1.07,2.84,2.19.87,1.46,1.08,3.36.6,5.2-.77,2.9-3.13,5.01-5.62,5.01Z"/>
  <path class="cls-6" d="m61.63,35.17c-.36,0-.71-.04-1.05-.13-1.17-.29-2.17-1.07-2.84-2.19-.87-1.46-1.08-3.36-.6-5.2.77-2.9,3.13-5.01,5.62-5.01.36,0,.71.04,1.05.13,1.17.29,2.17,1.07,2.84,2.19.87,1.46,1.08,3.36.6,5.2-.77,2.9-3.13,5.01-5.62,5.01Z"/>
  <path class="cls-5" d="m61.63,32.57c-.15,0-.29-.02-.43-.05-.48-.12-.92-.47-1.23-.99-.5-.85-.62-2.05-.32-3.21.45-1.72,1.82-3.07,3.11-3.07.14,0,.29.02.43.05.48.12.92.47,1.22.99.51.85.63,2.05.32,3.21-.45,1.72-1.82,3.07-3.11,3.07Z"/>
  <line class="cls-6" x1="28.69" y1="18.56" x2="18.71" y2="15.13"/>
</svg>