<?xml version="1.0" encoding="UTF-8"?>
<svg id="Layer_1" data-name="Layer 1" xmlns="http://www.w3.org/2000/svg" width="960" height="960" viewBox="0 0 96 96">
  <defs>
    <style>
      .cls-1 {
        stroke-width: 4px;
      }

      .cls-1, .cls-2, .cls-3 {
        fill: none;
        stroke: #000;
        stroke-linejoin: round;
      }

      .cls-2, .cls-3 {
        stroke-width: 2px;
      }

      .cls-3 {
        stroke-linecap: round;
      }
    </style>
  </defs>
  <path class="cls-2" d="m85.82,6.05c-.18-.08-.41-.1-.64-.05L19.61,20.15c-.81.17-1.52,1.03-1.52,1.84l-.02,70.01c0,.2.05.55.35.73"/>
  <path class="cls-1" d="m86.26,5.08c.64.29,1.05.93,1.05,1.75v70c0,1.31-1.06,2.6-2.37,2.88l-65.55,14.15c-.52.11-.98.02-1.39-.15l-8.31-2.81c-.61-.29-1.01-.92-1.01-1.72V19.18c0-1.32,1.06-2.61,2.37-2.88L76.6,2.15c.31-.06.61-.06.89-.02l.43.14,8.27,2.78.07.03Z"/>
  <line class="cls-2" x1="18.37" y1="21.07" x2="9.01" y2="17.91"/>
  <ellipse class="cls-3" cx="51.93" cy="49.5" rx="31.65" ry="26.11" transform="translate(-10.3 85.19) rotate(-73.47)"/>
  <path class="cls-3" d="m49.16,75.7c-1.38,0-2.76-.17-4.09-.5-4.62-1.15-8.48-4.15-11.16-8.68-3.64-6.14-4.53-14.18-2.46-22.04,3.24-12.28,13.01-21.19,23.24-21.19,1.38,0,2.76.17,4.09.5,4.62,1.15,8.48,4.15,11.16,8.68,3.64,6.14,4.53,14.18,2.46,22.05-3.24,12.28-13.01,21.19-23.24,21.19Z"/>
  <ellipse class="cls-3" cx="51.49" cy="37.34" rx="8.57" ry="7.07" transform="translate(1.04 76.07) rotate(-73.47)"/>
  <path d="m50.69,43.14c-.26,0-.51-.03-.76-.09-1.1-.27-1.77-1.07-2.13-1.69-.81-1.37-1-3.2-.52-5.01.72-2.74,2.87-4.8,5.01-4.8.26,0,.51.03.76.09,1.1.27,1.77,1.07,2.14,1.69.81,1.37,1,3.2.52,5.01-.72,2.74-2.87,4.8-5.01,4.8Z"/>
  <ellipse class="cls-3" cx="61.62" cy="53.83" rx="8.57" ry="7.07" transform="translate(-7.52 97.59) rotate(-73.47)"/>
  <path d="m60.83,59.63c-.26,0-.51-.03-.76-.09-1.1-.27-1.77-1.07-2.13-1.69-.81-1.37-1-3.2-.52-5.01.72-2.74,2.87-4.8,5.01-4.8.26,0,.51.03.76.09,1.1.27,1.77,1.07,2.14,1.69.81,1.37,1,3.2.52,5.01-.72,2.74-2.87,4.8-5.01,4.8Z"/>
  <ellipse class="cls-3" cx="43.04" cy="57.8" rx="8.57" ry="7.07" transform="translate(-24.61 82.62) rotate(-73.47)"/>
  <path d="m42.25,63.6c-.26,0-.51-.03-.76-.09-1.1-.27-1.77-1.07-2.13-1.69-.81-1.37-1-3.2-.52-5.01.72-2.74,2.87-4.8,5.01-4.8.26,0,.51.03.76.09,1.1.27,1.77,1.07,2.14,1.69.81,1.37,1,3.2.52,5.01-.72,2.74-2.87,4.8-5.01,4.8Z"/>
</svg>