<?xml version="1.0" encoding="UTF-8"?>
<svg id="Layer_1" data-name="Layer 1" xmlns="http://www.w3.org/2000/svg" width="960" height="960" viewBox="0 0 96 96">
  <defs>
    <style>
      .cls-1 {
        stroke-width: 4px;
      }

      .cls-1, .cls-2, .cls-3 {
        fill: none;
        stroke: #000;
        stroke-linecap: round;
        stroke-linejoin: round;
      }

      .cls-2 {
        stroke-width: 1.5px;
      }

      .cls-3 {
        stroke-width: 2px;
      }
    </style>
  </defs>
  <polyline class="cls-3" points="34.92 93.9 34.92 12.36 66.63 5.62"/>
  <polyline class="cls-1" points="66.63 5.62 66.63 87.16 34.92 93.9 28.15 91.57 28.15 8.2 56.14 2.1 66.63 5.62"/>
  <line class="cls-3" x1="34.92" y1="12.36" x2="28.15" y2="10.09"/>
  <polygon class="cls-2" points="62.73 63.98 38.82 69.06 38.82 15.28 62.73 10.2 62.73 63.98"/>
  <polygon class="cls-2" points="60 38.65 41.55 42.57 41.55 17.26 60 13.34 60 38.65"/>
  <path class="cls-2" d="m44.71,50.81l-2.7.57c-.69.15-1.26-.3-1.26-.99h0c0-.69.56-1.38,1.26-1.52l2.7-.57c.69-.15,1.26.3,1.26.99h0c0,.69-.56,1.38-1.26,1.52Z"/>
  <path class="cls-2" d="m52.16,49.22l-2.7.57c-.69.15-1.26-.3-1.26-.99h0c0-.69.56-1.38,1.26-1.52l2.7-.57c.69-.15,1.26.3,1.26.99h0c0,.69-.56,1.38-1.26,1.52Z"/>
  <path class="cls-2" d="m59.51,47.66l-2.7.57c-.69.15-1.26-.3-1.26-.99h0c0-.69.56-1.38,1.26-1.52l2.7-.57c.69-.15,1.26.3,1.26.99h0c0,.69-.56,1.38-1.26,1.52Z"/>
  <path class="cls-2" d="m44.71,57.63l-2.7.57c-.69.15-1.26-.3-1.26-.99h0c0-.69.56-1.38,1.26-1.52l2.7-.57c.69-.15,1.26.3,1.26.99h0c0,.69-.56,1.38-1.26,1.52Z"/>
  <path class="cls-2" d="m52.16,56.05l-2.7.57c-.69.15-1.26-.3-1.26-.99h0c0-.69.56-1.38,1.26-1.52l2.7-.57c.69-.15,1.26.3,1.26.99h0c0,.69-.56,1.38-1.26,1.52Z"/>
  <path class="cls-2" d="m59.51,54.48l-2.7.57c-.69.15-1.26-.3-1.26-.99h0c0-.69.56-1.38,1.26-1.52l2.7-.57c.69-.15,1.26.3,1.26.99h0c0,.69-.56,1.38-1.26,1.52Z"/>
  <path class="cls-2" d="m44.71,64.47l-2.7.57c-.69.15-1.26-.3-1.26-.99h0c0-.69.56-1.38,1.26-1.52l2.7-.57c.69-.15,1.26.3,1.26.99h0c0,.69-.56,1.38-1.26,1.52Z"/>
  <path class="cls-2" d="m52.16,62.88l-2.7.57c-.69.15-1.26-.3-1.26-.99h0c0-.69.56-1.38,1.26-1.52l2.7-.57c.69-.15,1.26.3,1.26.99h0c0,.69-.56,1.38-1.26,1.52Z"/>
  <path class="cls-2" d="m59.51,61.32l-2.7.57c-.69.15-1.26-.3-1.26-.99h0c0-.69.56-1.38,1.26-1.52l2.7-.57c.69-.15,1.26.3,1.26.99h0c0,.69-.56,1.38-1.26,1.52Z"/>
</svg>