<?xml version="1.0" encoding="UTF-8"?>
<svg id="Layer_1" data-name="Layer 1" xmlns="http://www.w3.org/2000/svg" width="960" height="960" viewBox="0 0 96 96">
  <defs>
    <style>
      .cls-1 {
        stroke-width: 4px;
      }

      .cls-1, .cls-2 {
        fill: none;
        stroke: #000;
        stroke-linecap: round;
        stroke-linejoin: round;
      }

      .cls-2 {
        stroke-width: 2px;
      }
    </style>
  </defs>
  <path class="cls-1" d="m78.2,10.69v71.25c0,2.5-1.79,4.84-4.26,5.57,0,0-29.2,6.31-29.51,6.35-.23.03-.46.04-.69.04-.83,0-1.54,0-2.39-.24l-8.57-2.87c-2.44-.82-4.09-3.11-4.09-5.69v-7.73c-4.36-1.1-6.31-5-6.43-5.26h0v-12.29c1.78-3.01,4.53-4.33,6.44-4.9V14.39c0-2.88,2.25-5.58,5.14-6.14l27.19-5.9c2.13-.42,4.33-.33,6.43.27l6.17,1.97c2.72.78,4.59,3.27,4.59,6.1Z"/>
  <line class="cls-2" x1="42.85" y1="14.89" x2="29.7" y2="10.51"/>
  <path class="cls-2" d="m44.71,93.8c-1.47.09-2.66-.97-2.66-2.5V17.26c0-1.88,1.31-3.5,3.15-3.9l31.44-6.82"/>
  <ellipse class="cls-2" cx="62.69" cy="66.5" rx="14.19" ry="11.7" transform="translate(-18.9 107.67) rotate(-73.47)"/>
  <ellipse cx="62.34" cy="64.39" rx="1.93" ry="1.59" transform="translate(-17.12 105.83) rotate(-73.47)"/>
  <ellipse cx="72.84" cy="45.21" rx="1.93" ry="1.59" transform="translate(8.78 102.17) rotate(-73.47)"/>
  <ellipse cx="52.94" cy="65.59" rx="1.93" ry="1.59" transform="translate(-25.01 97.67) rotate(-73.47)"/>
  <path class="cls-2" d="m54.56,77.69c4.62-.07,8.9-2.57,11.23-6.53"/>
  <path class="cls-2" d="m67.3,61.66c.3,1.27.4,2.6.29,3.94"/>
  <path class="cls-2" d="m65.83,57.97c-1.22-2.06-3.03-3.79-5.25-4.92"/>
  <path class="cls-2" d="m57.74,79.79s-.03,0-.05-.02c-8.01-2.63-12.85-10.09-10.96-17.25,1.95-7.37,10.31-11.69,18.89-9.88.17.03.34.07.51.11h0c.06.02.11.03.18.05.05,0,.11.03.17.04.05,0,.1.03.16.05.05,0,.09.02.13.03"/>
  <path class="cls-2" d="m71.83,66.36c-.06.76-.19,1.54-.39,2.31-.33,1.26-.84,2.43-1.47,3.47l-4.72-1.11v-4.32s2.33-1.11,2.33-1.11l4.25.77Z"/>
  <path class="cls-2" d="m71.46,62.25l-6.21-.89v-3.47l4.26.6c.89,1.05,1.56,2.33,1.95,3.77Z"/>
  <path class="cls-2" d="m43.26,93.82s3.51-6.91,16.76-10.06c10.43-2.49,15.09.62,16.6,2.06"/>
  <path class="cls-2" d="m43.49,14.2c.4,6.35,3.32,41.34,19.09,34.25,9.94-4.46,11.91-33.86,12.24-41.51"/>
  <line class="cls-2" x1="29.69" y1="52.95" x2="29.69" y2="79.34"/>
  <line class="cls-1" x1="22.24" y1="66.57" x2="17.8" y2="65.08"/>
</svg>