<?xml version="1.0" encoding="UTF-8"?>
<svg id="Layer_1" data-name="Layer 1" xmlns="http://www.w3.org/2000/svg" width="960" height="960" viewBox="0 0 96 96">
  <defs>
    <style>
      .cls-1 {
        stroke-width: 4px;
      }

      .cls-1, .cls-2, .cls-3 {
        fill: none;
        stroke: #000;
        stroke-linecap: round;
        stroke-linejoin: round;
      }

      .cls-3 {
        stroke-width: 2px;
      }
    </style>
  </defs>
  <path class="cls-1" d="m76.13,10.68v69.82c0,2.44-1.75,4.71-4.16,5.42l-35.86,7.76c-.31.09-.62.15-.92.19-.22.03-.45.04-.66.04-.81,0-1.6-.19-2.3-.55l-8.97-2.99c-2.03-.68-3.39-2.57-3.39-4.71V16c0-2.81,2.19-5.44,5-5.98L60.45,2.35c.6-.12,1.2-.19,1.8-.23,2.07-.12,4.13.35,6.03,1.17l2.47,1.06c.77.33,1.52.7,2.22,1.16,2,1.31,3.17,2.88,3.17,5.17Z"/>
  <line class="cls-3" x1="33.67" y1="16.47" x2="21.21" y2="12.31"/>
  <path class="cls-3" d="m74.63,6.64l-38.67,8.34c-1.79.39-3.07,1.96-3.07,3.8v72.59c0,1.51,1.19,2.54,2.62,2.44.2,0,.41-.05.62-.11"/>
  <g>
    <polygon class="cls-2" points="60.31 30.87 60.31 28.09 57.89 27.38 55.48 29.47 55.48 32.26 57.89 32.96 60.31 30.87"/>
    <path class="cls-2" d="m60.97,31.06l-.66-.19v-2.79l.71-.61"/>
    <polyline class="cls-2" points="60.97 31.06 60.31 30.87 57.89 32.96 57.89 35.75 58.77 36"/>
    <polyline class="cls-2" points="58.77 36 57.89 35.75 55.83 37.53 55.83 37.54"/>
    <polygon class="cls-2" points="55.48 32.26 55.48 29.47 53.06 28.77 50.65 30.86 50.65 33.64 53.06 34.35 55.48 32.26"/>
    <path class="cls-2" d="m57.89,32.96v2.79l-2.06,1.78h0c-.35.07-.71.1-1.07.1-.01,0-.03-.01-.05-.01l-1.65-.48v-2.79l2.42-2.08,2.41.7Z"/>
    <polyline class="cls-2" points="58.24 24.3 57.89 24.6 57.89 27.38 57.89 27.39 59.1 27.74 60.31 28.08 60.96 27.53 61.02 27.48"/>
    <polyline class="cls-2" points="55.47 23.82 55.47 23.89 53.06 25.98 51.93 25.65"/>
    <polygon class="cls-2" points="57.89 27.38 57.89 24.59 55.48 23.89 53.06 25.98 53.06 28.77 55.48 29.47 57.89 27.38"/>
    <path class="cls-2" d="m52.95,37.24l.11-.1,1.65.48s.03.01.05.01"/>
    <polyline class="cls-2" points="50.08 34.13 50.64 33.65 50.65 33.64 53.06 34.34 53.06 37.13 52.95 37.24"/>
    <polyline class="cls-2" points="49.95 30.65 50.64 30.86 50.65 30.86 53.06 28.78 53.06 28.76 53.06 25.98 51.93 25.65"/>
    <path class="cls-3" d="m61.08,32.09c-.42,1.59-1.25,2.95-2.32,3.9-.87.79-1.88,1.33-2.94,1.53h0c-.35.07-.71.1-1.07.1-.01,0-.03-.01-.05-.01-.35,0-.69-.04-1.04-.14-.26-.07-.5-.15-.73-.25-1.32-.56-2.32-1.69-2.87-3.11-.56-1.41-.68-3.11-.22-4.83.38-1.45,1.13-2.71,2.07-3.66,1.01-1.01,2.25-1.67,3.54-1.82.6-.08,1.19-.04,1.79.1.35.09.68.2.98.37,1.27.62,2.22,1.79,2.72,3.23.47,1.36.55,2.96.12,4.57Z"/>
  </g>
</svg>