<?xml version="1.0" encoding="UTF-8"?>
<svg id="Layer_1" data-name="Layer 1" xmlns="http://www.w3.org/2000/svg" width="960" height="960" viewBox="0 0 96 96">
  <defs>
    <style>
      .cls-1 {
        stroke-width: 4px;
      }

      .cls-1, .cls-2 {
        fill: none;
        stroke: #000;
        stroke-linecap: round;
        stroke-linejoin: round;
      }

      .cls-2 {
        stroke-width: 2px;
      }
    </style>
  </defs>
  <g>
    <g>
      <path class="cls-2" d="m82.64,7.65c-2.11-.56-4.48-.52-6.84-.02l-2.36.5c-8.8,1.87-15.96,10.55-15.96,19.34v52.74c0,5.18,2.63,9.59,6.91,11.56"/>
      <path class="cls-1" d="m82.83,6.61c5.67,1.5,9.59,6.46,9.59,13.16v52.85c0,9.29-7.53,18.43-16.83,20.41l-2.36.5c-3.47.74-6.69.37-9.37-.86"/>
      <path class="cls-1" d="m83.65,6.86l-10.38-3.62-.22-.07-.09-.03c-.05-.02-.09-.04-.15-.06-.47-.19-.96-.35-1.47-.48-2.21-.6-4.69-.67-7.3-.12l-2.36.5c-9.3,1.97-16.83,11.11-16.83,20.4v53c0,6.01,3.11,10.63,7.88,12.6l11.43,3.82"/>
    </g>
    <g>
      <path class="cls-2" d="m29.76,20.05c-1.46-.39-3.1-.36-4.74-.02l-1.63.35c-6.1,1.3-11.06,7.31-11.06,13.4v36.53c0,3.59,1.82,6.65,4.79,8.01"/>
      <path class="cls-1" d="m29.89,19.33c3.93,1.04,6.64,4.47,6.64,9.11v36.61c0,6.44-5.22,12.77-11.66,14.14l-1.64.35c-2.4.51-4.64.26-6.49-.59"/>
      <path class="cls-1" d="m23.11,16.94l-.07-.02s-.07-.03-.1-.04c-.33-.13-.67-.24-1.02-.33-1.53-.41-3.25-.46-5.06-.08l-1.63.35c-6.44,1.36-11.66,7.7-11.66,14.13v36.72c0,4.16,2.16,7.36,5.46,8.73l7.92,2.65"/>
      <line class="cls-1" x1="22.4" y1="16.69" x2="30.46" y2="19.5"/>
    </g>
  </g>
  <line class="cls-2" x1="12.48" y1="31.9" x2="3.76" y2="28.9"/>
  <line class="cls-2" x1="57.54" y1="26.15" x2="44.93" y2="21.82"/>
</svg>