<?xml version="1.0" encoding="UTF-8"?>
<svg id="Layer_1" data-name="Layer 1" xmlns="http://www.w3.org/2000/svg" width="960" height="960" viewBox="0 0 96 96">
  <defs>
    <style>
      .cls-1 {
        stroke-width: 4px;
      }

      .cls-1, .cls-2 {
        fill: none;
        stroke: #000;
        stroke-linecap: round;
        stroke-linejoin: round;
      }

      .cls-2 {
        stroke-width: 2px;
      }
    </style>
  </defs>
  <path class="cls-2" d="m56.9,78.9c.28-1.5.49-3.02.63-4.56"/>
  <path class="cls-2" d="m38.04,74.63c-.2,1.55-.35,3.11-.42,4.69h0"/>
  <path class="cls-2" d="m56.9,78.9c-6.48,2.66-13.17,2.66-19.28.43h0c.07-1.59.21-3.15.42-4.7,6.15,2.33,12.93,2.38,19.49-.3-.14,1.54-.36,3.06-.63,4.56Z"/>
  <path class="cls-1" d="m56.15,10.55c-.13-2.9-.47-5.74-.95-8.45"/>
  <path class="cls-1" d="m45.8,11.26c-.11-1.14-.42-4.66-.47-9.16"/>
  <ellipse class="cls-2" cx="49.91" cy="50.16" rx="14.11" ry="11.64" transform="translate(-12.38 83.73) rotate(-73.47)"/>
  <ellipse class="cls-1" cx="48" cy="52.45" rx="42.07" ry="33.54" transform="translate(-15.94 83.54) rotate(-73.47)"/>
</svg>