<?xml version="1.0" encoding="UTF-8"?>
<svg id="Layer_1" data-name="Layer 1" xmlns="http://www.w3.org/2000/svg" width="960" height="960" viewBox="0 0 96 96">
  <defs>
    <style>
      .cls-1, .cls-2, .cls-3, .cls-4 {
        fill: none;
        stroke: #000;
        stroke-linejoin: round;
      }

      .cls-2 {
        stroke-width: 4px;
      }

      .cls-2, .cls-4 {
        stroke-linecap: round;
      }

      .cls-3 {
        stroke-width: 2px;
      }

      .cls-4 {
        stroke-width: 1.5px;
      }
    </style>
  </defs>
  <path class="cls-2" d="m8.39,82.53V11.31c0-1.51,1.05-2.81,2.53-3.12l28.56-6.02c1.98-.42,3.84,1.09,3.84,3.12v5.58l10,3.29v64.7l-9.93,2.11"/>
  <polyline class="cls-3" points="43.17 79.98 36.64 81.37 33.42 82.05 18.96 85.11 18.93 85.1 8.72 81.57"/>
  <path class="cls-3" d="m38.44,8.08h0c0,.7-.49,1.31-1.18,1.46l-22.66,4.77c-.93.2-1.8-.51-1.8-1.46h0c0-.7.49-1.31,1.18-1.46l22.66-4.77c.93-.2,1.8.51,1.8,1.46Z"/>
  <path class="cls-4" d="m38.44,82.83c0,.7-.49,1.32-1.18,1.46l-22.65,4.77c-.93.19-1.81-.51-1.81-1.46,0-.7.5-1.31,1.18-1.46l4.95-1.04h.03s14.46-3.05,14.46-3.05l3.22-.68c.93-.19,1.79.51,1.79,1.46Z"/>
  <polyline class="cls-3" points="8.39 18.24 18.88 21.76 18.9 85.09"/>
  <line class="cls-3" x1="18.88" y1="21.76" x2="53.32" y2="14.16"/>
  <path class="cls-3" d="m18.89,50.93l14.67-3.24c.88-.19,1.71.48,1.71,1.38v1.29c0,.66-.46,1.23-1.11,1.38l-15.27,3.37"/>
  <path class="cls-3" d="m18.89,58.45l14.67-3.23c.88-.19,1.71.48,1.71,1.38v1.29c0,.66-.46,1.23-1.1,1.38l-15.28,3.38"/>
  <path class="cls-3" d="m18.89,65.74l14.67-3.23c.88-.19,1.71.48,1.71,1.38v1.28c0,.66-.46,1.23-1.11,1.38l-15.27,3.37"/>
  <path class="cls-3" d="m18.9,73.31l14.66-3.23c.88-.19,1.71.48,1.71,1.38v1.28c0,.66-.46,1.23-1.11,1.38l-15.26,3.37"/>
  <polyline class="cls-3" points="27.16 83.37 27.16 79.2 43.39 75.62 43.39 79.79"/>
  <line class="cls-4" x1="8.39" y1="18.24" x2="43.32" y2="10.87"/>
  <polyline class="cls-2" points="8.39 82.53 8.39 93.9 43.31 86.37 43.31 80.99"/>
  <g>
    <path class="cls-3" d="m91.24,48.25l-5.45,1.2c-.91.2-1.79-.5-1.79-1.43v-1.34c0-.69.48-1.28,1.15-1.43l6.09-1.34"/>
    <path class="cls-3" d="m91.24,40.43l-5.46,1.2c-.9.21-1.78-.49-1.78-1.42v-1.34c0-.69.48-1.28,1.15-1.42l6.09-1.35"/>
    <path class="cls-3" d="m91.24,32.86l-5.46,1.2c-.9.21-1.78-.49-1.78-1.42v-1.34c0-.69.48-1.28,1.15-1.42l6.09-1.34"/>
    <path class="cls-3" d="m91.24,25.01l-5.45,1.2c-.91.2-1.79-.5-1.79-1.43v-1.33c0-.69.48-1.29,1.15-1.43l6.09-1.34"/>
    <path class="cls-2" d="m60.7,82.1V8.14c0-1.56,1.1-2.91,2.63-3.24l13.54-2.73c2.06-.43,3.99,1.14,3.99,3.24v5.8l10.39,3.42v67.19l-10.31,2.19"/>
    <polyline class="cls-3" points="80.7 82.98 73.92 84.42 71.68 84.77 71.65 84.76 61.05 81.1"/>
    <polyline class="cls-3" points="60.7 15.33 71.59 18.99 71.62 84.75"/>
    <line class="cls-3" x1="71.59" y1="18.99" x2="91.24" y2="14.63"/>
    <line class="cls-4" x1="60.7" y1="15.33" x2="80.85" y2="11.21"/>
    <polyline class="cls-2" points="60.7 82.1 60.7 93.9 80.84 89.61 80.84 84.03"/>
    <ellipse class="cls-3" cx="70.8" cy="9.02" rx="2.17" ry="1.76" transform="translate(16.75 55.63) rotate(-48.03)"/>
    <path class="cls-3" d="m72.5,84.64c.16.24.25.55.25.9,0,1.07-.88,2.13-1.95,2.36-1.08.23-1.96-.46-1.96-1.53,0-.86.56-1.71,1.33-2.12"/>
  </g>
  <polygon class="cls-1" points="43.5 46.46 46.6 45.81 46.6 44.08 49.63 46.67 46.6 50.8 46.6 49.08 43.5 49.73 43.5 46.46"/>
  <polygon class="cls-1" points="80.08 50.21 76.98 50.86 76.98 52.59 73.95 50 76.98 45.87 76.98 47.58 80.08 46.94 80.08 50.21"/>
</svg>