<svg height="960" viewBox="0 0 960 960" width="960" xmlns="http://www.w3.org/2000/svg"><g fill="none" fill-rule="evenodd"><g fill="#000" fill-rule="nonzero"><path d="m351.782049 776.231468v42l-180.285316 6.174155.843021-42.028871z"/><path d="m351.782049 698.231468v42l-179.340428 6.141796 1.165724-42.039922z"/><path d="m351.782049 621.231468v42l-176.306858 6.037906-.485508-41.983373z"/><path d="m351.782049 543.231468v42l-177.51989 6.079448.5495-42.018818z"/><path d="m129.782049 771.478468 50.156979 12.898284.843021 42.028871-51-13.062155zm0-77.796 48.889388 12.650874 1.165724 42.039922-50.055112-12.879796zm0-76.773 47.50705 12.376533-.485508 41.983373-47.021542-12.278906zm0-78.029 47.685074 12.41163.5495 42.018818-48.234574-12.520448z"/><path d="m910 399.5v42l-98 1v-42z"/><path d="m910 321.5v42l-98 1v-42z"/><path d="m910 244.5v42l-98 1v-42z"/><path d="m910 166.5v42l-98 1v-42z"/></g><path d="m262.74244 41.3992852 1.442141.1625335 194.233664 23.7600231c41.690821 5.1026874 73.323549 44.0504972 73.964168 90.7615022l.009905 1.417834.061152 321.48802-.061152 323.487822-.009905 1.417834c-.640619 46.711005-32.273347 85.658815-73.964168 90.761502l-194.233664 23.760023-1.442141.162534c-47.53312 4.900742-89.254673-35.910913-90.988982-89.440166l-.297988-348.149747h-.002l.001-1-.001-.999802.002-.000198.297988-348.149549c1.734309-53.5292532 43.455862-94.3409081 90.988982-89.4401658z" stroke="#000" stroke-linecap="round" stroke-linejoin="round" stroke-width="20"/><path d="m238.889061 41.2279685 213.736502 15.362873c46.351348 3.3312723 82.47852 43.6118325 83.924552 93.5543145l9.510885 329.014242.053.000692-.026.913308.026.915h-.053l-9.510885 329.014934c-1.431571 49.443057-36.854129 89.416465-82.537103 93.443319l-1.387449.110995-213.736502 15.362873c-15.723798 1.124649-63.151737-11.58502-142.2838177-38.129009-4.1740437-2.842363-8.1423469-6.002256-11.7644487-9.555364l-.0172152-.006894c-16.2994582-15.988985-26.6554889-38.738344-26.8235794-64.107652l1.244-327.047202-1.244-327.047511c.1680905-25.369308 10.5241212-48.118666 26.8235794-64.1076515l.0172152-.0068937c3.6221018-3.553108 7.590405-6.7130011 11.7644487-9.5553643 79.1320807-26.5439884 126.5600197-39.2536581 142.2838177-38.129009z" stroke="#000" stroke-linecap="round" stroke-linejoin="round" stroke-width="40"/><path d="m772.111701 87.4148374 1.26827.148395 79.205975 11.1304058c20.325775 4.6505168 37.040853 44.5311428 37.379021 87.1908578l.005222 1.293536.029811 290.821968-.029811 294.821968-.004829 1.292203c-.309185 42.146316-16.746709 80.881601-36.771122 86.094013l-.608292.148746-84.944974 12.934028c-43.80799 2.249909-52.242551-26.644103-53.464009-74.709905l-.031198-1.460077-.143893-315.12243-.001872-3.998546.145765-315.120976c.837101-48.298275 16.067461-79.3734824 56.726062-75.5895398z" stroke="#000" stroke-linecap="round" stroke-linejoin="round" stroke-width="20"/><path d="m730.05878 73.0628899 118.228141 14.2869151c25.639223 3.097773 45.622949 40.554942 46.422821 86.996798l5.221258 303.652592.069.00061-.034 1.99939.034 2.001h-.069l-5.221258 303.653202c-.791873 45.977438-20.385842 83.148983-45.655355 86.893582l-.767466.103216-118.228141 14.286915c-8.697672 1.045236-34.932442-10.773864-78.70431-35.457301-2.30887-2.643133-4.503935-5.581539-6.507499-8.885599l-.009522-.00641c-9.016037-14.868267-14.74447-36.023052-14.837449-59.614145l.685-302.97346-.685-302.97385c.092979-23.591093 5.821412-44.745878 14.837449-59.614145l.009522-.00641c2.003564-3.30406 4.198629-6.242466 6.507499-8.885599 43.771868-24.6834367 70.006638-36.5025371 78.70431-35.4573011z" stroke="#000" stroke-linecap="round" stroke-linejoin="round" stroke-width="40"/></g></svg>