<?xml version="1.0" encoding="UTF-8"?>
<svg id="Layer_1" data-name="Layer 1" xmlns="http://www.w3.org/2000/svg" width="960" height="960" viewBox="0 0 96 96">
  <defs>
    <style>
      .cls-1 {
        stroke-width: 4px;
      }

      .cls-1, .cls-2 {
        fill: none;
        stroke: #000;
        stroke-linejoin: round;
      }

      .cls-2 {
        stroke-linecap: round;
        stroke-width: 2px;
      }
    </style>
  </defs>
  <path class="cls-2" d="m50.59,92.88c-2.42,0-4.84-.3-7.18-.88-7.96-1.98-14.84-7.28-19.36-14.93-5.91-9.98-7.4-22.91-4.08-35.48C25.18,21.8,41.32,7.44,58.33,7.44c2.42,0,4.84.3,7.18.88,7.96,1.98,14.84,7.28,19.36,14.93,5.91,9.98,7.4,22.91,4.08,35.48-5.22,19.79-21.36,34.16-38.37,34.16Z"/>
  <path class="cls-2" d="m40.25,92.11l-11.49-3.85s-1.09-.35-1.61-.54C9.52,81.31.15,59.41,6.05,37.02,12.29,13.36,33.24-1.87,52.84,3.01c.29.07,2.93.86,3.92,1.26h-.01.01l9.66,3.23s.04.01.05.02l3.3,1.1s.04.01.06.02"/>
  <path class="cls-1" d="m89.95,58.99c-6.24,23.65-27.19,38.88-46.79,34.01-.99-.25-1.95-.54-2.9-.88l-11.49-3.85s-1.09-.35-1.61-.54C9.52,81.31.15,59.41,6.05,37.02,12.29,13.36,33.24-1.87,52.84,3.01c.29.07,2.9.86,3.91,1.26h.01l9.66,3.23s.04.01.05.02l3.3,1.1s.04.01.06.02c17,6.86,25.92,28.37,20.12,50.34Z"/>
</svg>