<?xml version="1.0" encoding="UTF-8"?>
<svg id="Layer_1" data-name="Layer 1" xmlns="http://www.w3.org/2000/svg" width="960" height="960" viewBox="0 0 96 96">
  <defs>
    <style>
      .cls-1 {
        stroke-width: 4px;
      }

      .cls-1, .cls-2 {
        fill: none;
        stroke: #000;
        stroke-linecap: round;
        stroke-linejoin: round;
      }

      .cls-2 {
        stroke-width: 2px;
      }
    </style>
  </defs>
  <line class="cls-2" x1="42.84" y1="16.17" x2="30.17" y2="11.88"/>
  <ellipse class="cls-2" cx="63.06" cy="69.19" rx="14.09" ry="11.63" transform="translate(-21.21 109.95) rotate(-73.47)"/>
  <ellipse cx="62.72" cy="67.09" rx="1.91" ry="1.58" transform="translate(-19.44 108.12) rotate(-73.47)"/>
  <ellipse cx="53.37" cy="68.28" rx="1.91" ry="1.58" transform="translate(-27.28 100.02) rotate(-73.47)"/>
  <path class="cls-2" d="m54.96,80.23c5.94.16,9.34-2.48,11.63-6.3"/>
  <path class="cls-2" d="m68.1,64.58c.28,1.23.39,2.49.29,3.79"/>
  <path class="cls-2" d="m66.18,60.71c-1.21-2.05-3.01-3.76-5.21-4.89"/>
  <path class="cls-2" d="m67.12,55.74s-.07-.03-.12-.04c-.1-.04-.2-.07-.3-.1-.06-.02-.11-.03-.17-.05-7.83-2.22-16.57,2.71-18.35,10.68-1.71,7.68,3.76,15.87,11.44,16.6"/>
  <path class="cls-2" d="m72.14,69.05c-.06.76-.19,1.53-.39,2.3-.33,1.26-.83,2.41-1.46,3.44l-4.69-1.1v-4.3l2.32-1.1,4.22.77Z"/>
  <path class="cls-2" d="m71.77,64.97l-6.17-.89v-3.45l4.23.59c.89,1.04,1.55,2.32,1.93,3.74Z"/>
  <line class="cls-2" x1="28.98" y1="53.83" x2="28.98" y2="80.11"/>
  <path class="cls-1" d="m78.83,13.19v63.62c0,5.46-3.57,10.3-8.78,11.91l-22.34,4.83c-3.15.76-6.21.19-9.48-.97l-4.91-1.64c-3.17-1.06-5.31-4.03-5.31-7.38v-5.41c-4.35-1.1-6.29-4.98-6.41-5.25h0v-12.24c.89-1.5,2.01-2.58,3.16-3.35,1.14-.77,2.3-1.25,3.25-1.53V18.1c0-4.8,3.41-8.92,8.12-9.82l27.68-6.08c.93-.18,1.88-.14,2.8.11l5.39,1.9c3.98,1.31,6.84,4.78,6.84,8.97Z"/>
  <path class="cls-2" d="m76.92,83.44l-28.66,6.18c-.97.22-1.96,0-2.74-.64-.46-.36-1.22-1.17-1.22-2.53V20.86c0-2.34,1.66-4.39,3.95-4.85l29.98-6.02"/>
  <path class="cls-2" d="m78.83,43.09V12.66c0-.51-.08-.98-.22-1.44,0,0,0-.02,0-.03-.72-2.23-3.04-3.71-5.49-3.2l-25.44,5.09c-3.7.75-6.36,4.01-6.36,7.78v66.35c0,4.04,3.76,6.96,7.61,6.08"/>
  <ellipse cx="61.69" cy="30.79" rx="1.88" ry="1.55" transform="translate(14.62 81.17) rotate(-73.47)"/>
  <line class="cls-1" x1="21.58" y1="66.8" x2="17.17" y2="65.33"/>
</svg>