<?xml version="1.0" encoding="UTF-8"?>
<svg id="Layer_1" data-name="Layer 1" xmlns="http://www.w3.org/2000/svg" width="960" height="960" viewBox="0 0 96 96">
  <defs>
    <style>
      .cls-1 {
        stroke-width: 4px;
      }

      .cls-1, .cls-2, .cls-3 {
        fill: none;
        stroke: #000;
        stroke-linejoin: round;
      }

      .cls-2, .cls-3 {
        stroke-width: 2px;
      }

      .cls-3 {
        stroke-linecap: round;
      }
    </style>
  </defs>
  <g>
    <path class="cls-2" d="m68.1,6.81c-.69-.26-1.5-.31-2.34-.13l-29.22,6.21c-2.68.57-4.94,3.3-4.94,5.97v70.33c0,1.56.77,2.81,2.07,3.34"/>
    <path class="cls-2" d="m63.49,29.53l-19.83,4.22v-8.62c0-1.7,1.38-3.37,3.08-3.73l13.68-2.91c1.7-.36,3.08.72,3.08,2.42v8.62Z"/>
    <polygon class="cls-2" points="63.49 41.23 43.66 45.44 43.66 33.74 63.49 29.53 63.49 41.23"/>
    <polygon class="cls-2" points="63.49 52.92 43.66 57.14 43.66 45.44 63.49 41.23 63.49 52.92"/>
    <polygon class="cls-2" points="63.49 64.59 43.66 68.81 43.66 57.11 63.49 52.89 63.49 64.59"/>
    <path class="cls-2" d="m60.42,79.73l-13.68,2.91c-1.7.36-3.08-.72-3.08-2.42v-11.41l19.83-4.22v11.41c0,1.7-1.38,3.37-3.08,3.73Z"/>
    <path class="cls-2" d="m41.6,81.29h-.04l-.3-.1-.06-.02c-.84-.37-1.41-1.2-1.41-2.28V22.92c0-1.71,1.39-3.37,3.08-3.74l12.04-2.55c.5-.11.98-.09,1.39.03l.23.08"/>
    <path class="cls-1" d="m33.24,93.54l-5.34-1.81c-1.94-.66-3.25-2.48-3.25-4.54V14.73c0-3.21,2.61-6.37,5.81-7.05l25.75-5.49c.67-.14,1.36-.1,2,.12l10.22,3.45.07.03c1.71.65,2.85,2.27,2.85,4.4v70.33c0,3.21-2.6,6.37-5.82,7.05l-29.22,6.21c-1.12.24-2.17.14-3.06-.22l-.02-.02Z"/>
    <polyline class="cls-2" points="61.87 18.54 56.53 16.74 56.3 16.67"/>
    <polyline class="cls-2" points="41.2 81.16 41.56 81.28 44.8 82.37"/>
  </g>
  <line class="cls-3" x1="33.6" y1="14.53" x2="25.4" y2="11.71"/>
</svg>