<?xml version="1.0" encoding="UTF-8"?>
<svg id="Layer_1" data-name="Layer 1" xmlns="http://www.w3.org/2000/svg" width="960" height="960" viewBox="0 0 96 96">
  <defs>
    <style>
      .cls-1 {
        stroke-width: 4px;
      }

      .cls-1, .cls-2 {
        fill: none;
        stroke: #000;
        stroke-linecap: round;
        stroke-linejoin: round;
      }

      .cls-2 {
        stroke-width: 2px;
      }
    </style>
  </defs>
  <path class="cls-1" d="m29.14,62.48c.74,19.13,3.15,28.68,3.15,28.68l7.04,2.41s8.58,1.47,21.52-1.88c12.94-3.35,13.07-2.21,13.54-6.5s1.52-20.17,2.5-38.23-.45-41.02-.45-41.02c0,0-24.35-9.45-45.85,1.25,0,0-.15,1.3-.36,4.06"/>
  <path class="cls-2" d="m30.59,7.2l8.45,2.84s-3.67,33.4.28,83.53"/>
  <path class="cls-2" d="m76.44,5.95c-26.99,1.25-37.39,4.09-37.39,4.09,0,0,32.86,14.77,37.39-4.09"/>
  <path class="cls-2" d="m66.12,52.29c-2.53,0-4.51-2-4.51-4.55v-13.67c0-2.48,1.84-4.74,4.29-5.26.34-.07.68-.11,1.02-.11,2.53,0,4.51,2,4.51,4.55v13.67c0,2.48-1.84,4.74-4.29,5.26-.34.07-.68.11-1.02.11Z"/>
  <path class="cls-2" d="m66.52,49.25h0c-1.06.23-1.92-.45-1.92-1.51v-13.67c0-1.06.86-2.1,1.92-2.33h0c1.06-.23,1.92.45,1.92,1.51v13.67c0,1.06-.86,2.1-1.92,2.33Z"/>
  <line class="cls-2" x1="66.52" y1="85.08" x2="66.52" y2="52.27"/>
  <line class="cls-2" x1="66.52" y1="28.72" x2="66.52" y2="15.54"/>
  <ellipse cx="33.04" cy="27.14" rx="1.44" ry="2.01" transform="translate(-4.18 6.1) rotate(-9.92)"/>
  <ellipse cx="33.04" cy="38" rx="1.44" ry="2.01" transform="translate(-6.05 6.26) rotate(-9.92)"/>
  <ellipse cx="33.04" cy="48.3" rx="1.44" ry="2.01" transform="translate(-7.82 6.41) rotate(-9.92)"/>
  <path class="cls-1" d="m29.15,62.75l-2.22-11.28c-.06-6.22.09-14.21.27-21.2l-3.18-1.11-3.31-4.29,4.33-7.02,2.52.79c.1-2.78.17-4.49.17-4.49l2.51-2.96"/>
  <line class="cls-1" x1="22.83" y1="21.44" x2="16.1" y2="19.16"/>
  <line class="cls-2" x1="28.56" y1="18.67" x2="28.2" y2="30.3"/>
  <path class="cls-2" d="m73.8,87.69s1.14-9.22-34.48,6.21"/>
</svg>