<svg height="960" viewBox="0 0 960 960" width="960" xmlns="http://www.w3.org/2000/svg"><g fill="none" fill-rule="evenodd"><path d="m705.60253 197c150.263641 0 193.278481 11.327787 203.410469 18.254193 6.754659 4.617605 12.059879 10.652576 15.91566 18.104914 5.442213 2.649692 8.892799 5.594966 10.351756 8.835819 1.458957 3.240854 2.698818 21.575733 3.719585 55.004637-6.42214 11.545788-16.417807 19.793664-29.987001 24.743629-20.353791 7.424946-105.568304 32.865636-265.954352 20.145291-12.566941-.996694-24.591748-1.996736-36.074423-3.000125 61.440071 30.922018 102.130197 104.308597 103.904705 189.278645.420034 14.063889-.345445 28.509514-2.401615 43.154391-.084431.60135-.170861 1.201777-.25928 1.80127l-.064019.436991c-17.182716 122.382258-109.188941 210.847223-206.344575 199.212771l1.022148.2456c-19.809732.921247-41.613676-.949994-65.411832-5.613721l-1.198057-.156364c-12.488202-1.756837-24.448479-5.090756-35.777613-9.826352-14.361721-5.036616-34.069182-12.630417-59.119786-22.786396l-1.10864-.44972-61.19516-14.863222 92.754523 22.253165c-8.738156-6.120216-16.937741-13.168316-24.532393-21.031528-.833334.180269-1.668655.351475-2.505392.515428l-.122795 5.759299c-2.891968-1.312814-5.730237-2.758011-8.512224-4.330439-12.802856 1.719243-25.889975 1.740071-39.070545-.114169-44.503897-6.2608-82.097222-32.776442-107.64655-71.124968-1.04976-.12342-2.104167-.259877-3.159547-.408348-44.198765-6.217874-80.954264-32.218136-103.2594224-68.286661l-7.9762463-151.022652c27.6330147-58.570523 89.0121627-95.097646 154.0935637-85.942007 1.006644.141615 2.009428.293491 3.008267.455514l.894987-.760432c34.990424-29.405089 78.135704-44.269722 122.331685-38.05224 3.374457.474718 6.709184 1.065886 10.001942 1.769833l1.730288-6.508775c6.198846-14.318021 10.994825-23.801707 14.387939-28.451058 5.089669-6.974026 16.592073-14.680218 25.185773-14.680218 5.729133 0 10.935068-.891373 15.617807-2.674119l32.195388-34.707276c6.900836-1.45181 14.635749-3.062642 23.20474-4.832497 12.853486-2.654783 77.686602-20.348103 227.950242-20.348103z" stroke="#000" stroke-linecap="round" stroke-linejoin="round" stroke-width="40"/><path d="m529.060134 745.887255c84.137429 11.824744 164.710038-66.576259 179.963958-175.113543 15.253921-108.537284-40.587196-206.109986-124.724626-217.934731-84.137429-11.824744-164.710037 66.576259-179.963958 175.113543-15.25392 108.537284 40.587197 206.109986 124.724626 217.934731z" stroke="#000" stroke-linecap="round" stroke-linejoin="round" stroke-width="20"/><path d="m528.336679 320.738076-33.729693 10.329178c-70.32509 23.564926-128.123609 97.687371-141.375931 191.98254-17.342958 123.401563 48.172469 234.621786 146.332803 248.417321s191.794254-75.057706 209.137212-198.459269c13.035733-92.754061-20.740945-178.626043-80.006602-221.416886" stroke="#000" stroke-linecap="round" stroke-linejoin="round" stroke-width="20"/><path d="m504.913018 717.327372c68.151317 9.578043 134.071122-58.594393 147.236004-152.267398 13.164883-93.673004-31.410431-177.374516-99.561748-186.952559-68.151318-9.578043-134.071123 58.594392-147.236005 152.267397s31.410431 177.374517 99.561749 186.95256z" stroke="#000" stroke-linecap="round" stroke-linejoin="round" stroke-width="20"/><path d="m444.572864 693.292435c39.459473-14.921538 73.568923-54.493702 90.632353-106.620816m11.004801-56.762363c.962376-13.917232.65711-27.520172-.798491-40.588547m-19.949724-67.188173c-8.022401-15.206378-18.08928-28.311803-29.816701-38.595341" stroke="#000" stroke-linecap="round" stroke-linejoin="round" stroke-width="20"/><path d="m485.445617 536.930166c10.202293 1.433839 20.070527-8.771615 22.041318-22.79452s-4.70216-26.553071-14.904453-27.98691-20.070527 8.771615-22.041318 22.79452 4.70216 26.553072 14.904453 27.98691z" fill="#000"/><g stroke="#000" stroke-linecap="round" stroke-linejoin="round"><path d="m348.366337 382.396123c-28.898345 33.352988-49.560455 77.627694-56.626949 127.908407-16.751721 119.194692 49.242999 227.004572 147.403333 240.800107" stroke-width="20"/><path d="m246.48806 348.893477c-39.023737 33.121132-67.757107 84.391774-76.223667 144.634476-8.545906 60.807277 5.276366 118.519132 34.206122 161.235356" stroke-width="20"/><path d="m353.664141 339.147148c-46.593915 30.454193-83.593771 92.447872-94.171697 167.713732-14.083753 100.211104 23.341347 190.716367 85.980423 219.123392" stroke-width="20"/><path d="m378.037145 293.229756c6.198547-14.271615 10.994296-23.724564 14.387246-28.358845 5.089425-6.951422 16.591275-14.632639 25.184561-14.632639 5.728857 0 10.934543-.888484 15.617056-2.665452l32.193838-34.594786c6.900504-1.447104 14.635045-3.052716 23.203624-4.816835 12.852868-2.646179 77.682863-20.282153 227.939272-20.282153s193.269179 11.291073 203.40068 18.19503c6.754334 4.602639 12.059298 10.61805 15.914894 18.046234 5.441951 2.641105 8.892371 5.576832 10.351257 8.807182 1.458887 3.23035 2.698689 21.505804 3.719407 54.826362-6.421831 11.508367-16.417017 19.729511-29.985558 24.663433-20.352812 7.400881-105.563224 32.759116-265.941553 20.079998-106.918886-8.452744-174.593446-17.147049-203.023681-26.082915l-23.355618 6.002917c-16.746498 19.318307-26.463618 35.228872-29.151359 47.731695-2.687742 12.502823-5.512914 29.171924-8.475516 50.007303l-42.037745-4.241475z" stroke-width="20"/><path d="m533.090775 527.700637 92.897984 8.328411c.553535 13.016579.095625 23.653856-1.37373 31.911831-1.469355 8.257976-3.908842 17.844562-7.318459 28.759758l-81.136388-10.456992z" stroke-width="20"/><path d="m530.686903 482.794809 91.269116 4.658059c-7.701925-23.544246-14.063854-39.991025-19.085789-49.340336-24.821502-1.454273-49.66602-2.845857-74.533551-4.174751z" stroke-width="20"/><path d="m432.016492 246.250454c34.574017 21.256256 95.746512 35.624571 183.517485 43.104947 131.656458 11.220563 315.369966-6.2432 323.133745-34.28763" stroke-width="20"/><path d="m80.4482606 478.17043-43.9971784-5.821344c-10.9131451-1.443937-21.0497759 5.899496-23.0786007 16.719179-1.8674956 9.95932 4.6922234 19.546847 14.6515426 21.414343.4060546.07614.8145651.138544 1.2248328.187104l52.9700502 6.269659" stroke-width="20"/></g></g></svg>