<?xml version="1.0" encoding="UTF-8"?>
<svg id="Layer_1" data-name="Layer 1" xmlns="http://www.w3.org/2000/svg" width="960" height="960" viewBox="0 0 96 96">
  <defs>
    <style>
      .cls-1 {
        stroke-width: 4px;
      }

      .cls-1, .cls-2, .cls-3 {
        fill: none;
        stroke: #000;
        stroke-linecap: round;
        stroke-linejoin: round;
      }

      .cls-3 {
        stroke-width: 2px;
      }
    </style>
  </defs>
  <path class="cls-1" d="m23.48,4.54c0-2.08,14.97-3.43,28.61-1.52,13.64,1.92,20.43,5.12,20.43,8.08"/>
  <path class="cls-1" d="m23.48,4.54v80.62c0,2.97,10.71,6.36,24.34,8.27,13.64,1.92,24.69-2.48,24.69-5.45V11.1"/>
  <path class="cls-3" d="m72.52,79.55c0,3.23-10.12,6.93-24.69,5.24-13.63-1.58-24.34-4.16-24.34-6.48"/>
  <path class="cls-3" d="m64.37,69.43h0c-1.17.25-2.12-.5-2.12-1.67v-11.21c0-1.17.95-2.32,2.12-2.57h0c1.17-.25,2.12.5,2.12,1.67v11.21c0,1.17-.95,2.32-2.12,2.57Z"/>
  <path class="cls-3" d="m72.52,11.1c0,2.97-11.06,3.82-24.69,1.9-13.64-1.92-24.34-5.5-24.34-8.46"/>
  <path class="cls-2" d="m61.89,11.68c-4.06,0-8.8-.38-13.69-1.1-8.14-1.2-13.96-2.76-17.75-4.14-.51-.19-.42-.98.12-1.03,1.98-.18,4.42-.31,7.31-.31,4.74,0,9.56.34,13.93.99,8.63,1.28,13.62,2.91,16.29,4.21.45.22.35.93-.14,1-1.45.21-3.43.38-6.08.38Z"/>
  <path class="cls-2" d="m61.21,9.94c-3.78,0-8.19-.39-12.76-1.12-4.27-.68-7.74-1.46-10.52-2.22.18,0,.36,0,.54,0,4.42,0,8.91.35,12.99,1,4.54.73,7.9,1.56,10.37,2.33-.2,0-.41,0-.62,0Z"/>
</svg>