<?xml version="1.0" encoding="UTF-8"?>
<svg id="Layer_1" data-name="Layer 1" xmlns="http://www.w3.org/2000/svg" width="960" height="960" viewBox="0 0 96 96">
  <defs>
    <style>
      .cls-1 {
        stroke-width: 4px;
      }

      .cls-1, .cls-2 {
        fill: none;
        stroke: #000;
        stroke-linejoin: round;
      }

      .cls-2 {
        stroke-width: 2px;
      }

      .cls-3 {
        fill-rule: evenodd;
      }
    </style>
  </defs>
  <g>
    <path class="cls-3" d="m56.75,27.94c-.3.87-1.21,1.48-2.04,1.37l-2.31-.33v-3.3l3.4.48c.81.12,1.24.93.94,1.78Z"/>
    <path class="cls-3" d="m49.62,25.22v3.36l-3.39-.51c-.81-.12-1.24-.94-.94-1.82s1.21-1.49,2.03-1.37l2.31.34Z"/>
    <path class="cls-3" d="m56.75,38.15c-.3.87-1.21,1.48-2.04,1.37l-2.31-.33v-3.3l3.4.48c.81.12,1.24.93.94,1.78Z"/>
    <path class="cls-3" d="m49.62,35.42v3.36l-3.39-.51c-.81-.12-1.24-.94-.94-1.82s1.21-1.5,2.03-1.37l2.31.34Z"/>
    <path class="cls-3" d="m56.75,48.8c-.3.87-1.21,1.48-2.04,1.37l-2.31-.33v-3.3l3.4.48c.81.12,1.24.92.94,1.78Z"/>
    <path class="cls-3" d="m49.62,45.98v3.36l-3.39-.51c-.81-.12-1.24-.94-.94-1.82s1.21-1.49,2.03-1.37l2.31.34Z"/>
  </g>
  <path class="cls-1" d="m38.04,93.85l-6.04-2.03h-.01.01-.01c-.23-.1-.39-.33-.39-.63V8.02c0-.46.37-.9.82-1l23.08-4.91h.03s-.03,0-.03,0l8.52,2.85.14.08c.15.12.24.3.24.53v81.97c0,.45-.37.9-.82.99l-25.14,5.34c-.21.04-.4,0-.54-.09l.13.06Z"/>
  <g>
    <ellipse cx="51.01" cy="12.79" rx="1.32" ry="1.06" transform="translate(7.39 42.17) rotate(-48.03)"/>
    <ellipse cx="54.89" cy="58.74" rx="2.18" ry="1.76" transform="translate(-25.49 60.27) rotate(-48.03)"/>
  </g>
  <polyline class="cls-2" points="63.81 5.99 38.67 11.33 38.71 93.24"/>
  <line class="cls-2" x1="38.71" y1="11.35" x2="31.6" y2="8.96"/>
</svg>