<?xml version="1.0" encoding="UTF-8"?>
<svg id="Layer_1" data-name="Layer 1" xmlns="http://www.w3.org/2000/svg" width="960" height="960" viewBox="0 0 96 96">
  <defs>
    <style>
      .cls-1 {
        stroke-width: 4px;
      }

      .cls-1, .cls-2, .cls-3 {
        fill: none;
        stroke: #000;
        stroke-linejoin: round;
      }

      .cls-2, .cls-3 {
        stroke-width: 2px;
      }

      .cls-3 {
        stroke-linecap: round;
      }
    </style>
  </defs>
  <g>
    <path class="cls-2" d="m37.03,86.52V15.8c0-1.18.82-2.19,1.97-2.44l20.74-4.41c1.55-.33,3.01.85,3.01,2.44v70.72c0,1.18-.82,2.19-1.97,2.44l-20.74,4.41c-1.55.33-3.01-.85-3.01-2.44Z"/>
    <g>
      <line class="cls-2" x1="37.03" y1="31.94" x2="62.76" y2="26.48"/>
      <line class="cls-2" x1="37.03" y1="51.69" x2="62.76" y2="46.22"/>
      <line class="cls-2" x1="37.03" y1="71.43" x2="62.76" y2="65.97"/>
    </g>
    <polyline class="cls-2" points="49.89 29.21 49.89 48.95 49.89 68.7"/>
    <line class="cls-1" x1="65.02" y1="4.49" x2="65" y2="4.48"/>
    <path class="cls-1" d="m31.28,92.58l.04.02.74.24s4.99,1.28,6.2,1.02l25.47-5.41c2.46-.52,4.22-2.7,4.22-5.21V9.26c0-2.62-1.87-4.73-4.25-5.22,0,0-6-1.74-6.44-1.83-.68-.15-1.42-.15-2.15.01l-22.85,4.92c-2.47.52-4.22,2.7-4.22,5.21v75.32c.01,2.23,1.36,4.09,3.23,4.9l.04.02"/>
    <path class="cls-2" d="m63.49,5.06c-.58-.12-1.17-.12-1.76,0l-25.47,5.41c-1.96.42-3.39,2.18-3.39,4.19v73.98c0,1.65.93,3.13,2.42,3.85"/>
  </g>
  <path class="cls-3" d="m49.86,82.91c-.29,0-.58-.04-.86-.11-.96-.24-1.78-.88-2.33-1.79-.71-1.2-.89-2.75-.49-4.27.63-2.38,2.57-4.11,4.61-4.11.29,0,.58.04.86.11.96.24,1.78.88,2.33,1.79.71,1.2.89,2.75.49,4.27-.63,2.38-2.57,4.11-4.61,4.11Z"/>
  <line class="cls-3" x1="33.74" y1="12.12" x2="28.45" y2="10.3"/>
</svg>