<?xml version="1.0" encoding="UTF-8"?>
<svg id="Layer_1" data-name="Layer 1" xmlns="http://www.w3.org/2000/svg" width="960" height="960" viewBox="0 0 96 96">
  <defs>
    <style>
      .cls-1 {
        stroke-width: 4px;
      }

      .cls-1, .cls-2 {
        fill: none;
        stroke: #000;
        stroke-linejoin: round;
      }

      .cls-2 {
        stroke-linecap: round;
        stroke-width: 2px;
      }
    </style>
  </defs>
  <polyline class="cls-2" points="85.21 41.16 85.21 41.21 85.21 67.82"/>
  <path class="cls-2" d="m46.61,47.08h.01c.19.06.38.1.57.15h.01c22.56,5.43,35.77-1.02,38.03-4.86"/>
  <path class="cls-2" d="m46.61,72.45c26.91,5.15,35.76-3.85,38.6-7.24"/>
  <polyline class="cls-2" points="46.62 43.28 46.62 45.88 46.62 65.96 46.62 73.92 46.62 78.7 46.62 78.71 46.61 79.1"/>
  <path class="cls-2" d="m93.88,32.9c.1.73-.3,1.53-1.19,1.72l-36.04,7.67c-.16.03-.32.03-.48.02-.11-.02-.22-.03-.32-.07"/>
  <polyline class="cls-2" points="41.08 80.39 41.08 42.61 41.08 40.57 41.08 39.95 41.08 39.92"/>
  <path class="cls-2" d="m31.23,77.13l-.02-41.76c0-.98.69-1.83,1.65-2.04l42.48-8.94"/>
  <path class="cls-2" d="m41.07,37.38s.02,2.45.02,2.53"/>
  <line class="cls-2" x1="85.23" y1="40.06" x2="56.18" y2="46.37"/>
  <path class="cls-2" d="m31.56,34.3c-6.8-2.08-12.94-6.38-26-5.1"/>
  <path class="cls-1" d="m75.35,24.38c-9.58-3.91-14.87-7.01-29.65-4.28L5.56,29.19c-1.93.53-3.47,1.83-3.46,3.8v22.77c0,1.06.44,2.06,1.22,2.77,2.19,1.99,7,6.3,10.52,10.46,4.74,5.6,17.39,8.14,17.39,8.14h0s9.84,3.28,9.84,3.28v-.03s7.04-1.18,7.04-1.18h0c32.73,4.92,37.09-8.19,37.09-8.19v-29.86s.03,0,.03,0l8.08-1.75c.35-.08.59-.38.59-.74v-5.54s-.02-.22-.02-.22c-.07-.53-.41-1.01-1.03-1.22l-17.74-7.38"/>
  <path class="cls-1" d="m85.2,71.02v-29.86s.03,0,.03,0l8.08-1.75c.35-.08.59-.38.59-.74v-5.54"/>
  <path class="cls-2" d="m31.47,34.24l9.6,3.15,5.2,1.7,9.6,3.15c.09.03.21.05.31.07v4.06l-15.11-4.88"/>
  <path class="cls-2" d="m8.55,63.41c3.07-10.11,11.35-17.2,32.43-10.04"/>
</svg>