<?xml version="1.0" encoding="UTF-8"?>
<svg id="Layer_1" data-name="Layer 1" xmlns="http://www.w3.org/2000/svg" width="960" height="960" viewBox="0 0 96 96">
  <defs>
    <style>
      .cls-1 {
        stroke-width: 4px;
      }

      .cls-1, .cls-2, .cls-3 {
        fill: none;
        stroke: #000;
        stroke-linejoin: round;
      }

      .cls-1, .cls-3 {
        stroke-linecap: round;
      }

      .cls-2, .cls-3 {
        stroke-width: 2px;
      }
    </style>
  </defs>
  <line class="cls-2" x1="19.61" y1="20.85" x2="8.24" y2="17.01"/>
  <path class="cls-2" d="m84.28,6.98c-1.07-.36-2.22-.43-3.33-.19l-58.26,12.4c-2.9.62-5,3.21-5,6.18v61.19c0,2.47,1.39,4.66,3.63,5.72"/>
  <path class="cls-1" d="m84.61,6.01c2.86.97,4.99,3.67,4.99,6.96v61.19c0,3.46-2.42,6.46-5.81,7.18l-58.26,12.4c-1.65.35-3.26.12-4.65-.53"/>
  <path class="cls-1" d="m20.56,93.03l-8.19-2.78-1.84-.62c-2.43-1.17-4.14-3.64-4.14-6.6V21.85c0-3.46,2.43-6.45,5.81-7.18L70.47,2.27c1.14-.24,2.26-.21,3.31.06.01,0,.03,0,.04.01l1.07.37,9.64,3.26"/>
  <ellipse cx="53.62" cy="24.61" rx="1.21" ry=".98" transform="translate(-.53 48.02) rotate(-48.03)"/>
  <path class="cls-3" d="m56.77,74.79c-1.17,0-2.33-.14-3.46-.42-3.84-.95-7.15-3.51-9.33-7.19-2.85-4.81-3.56-11.04-1.97-17.1,2.52-9.54,10.29-16.46,18.49-16.46,1.17,0,2.33.14,3.46.42,3.84.95,7.15,3.51,9.33,7.19,2.85,4.81,3.56,11.04,1.97,17.1-2.52,9.54-10.29,16.46-18.49,16.46Z"/>
  <path class="cls-2" d="m51.87,73.95l-5.42-2.01s-.52-.16-.76-.26c-8.3-3.02-12.71-13.33-9.94-23.87,2.94-11.13,12.8-18.3,22.02-16.01.13.03,1.84.59,1.84.59l6.14,2.25s.02,0,.03,0"/>
</svg>