<?xml version="1.0" encoding="UTF-8"?>
<svg id="Layer_1" data-name="Layer 1" xmlns="http://www.w3.org/2000/svg" width="960" height="960" viewBox="0 0 96 96">
  <defs>
    <style>
      .cls-1 {
        stroke-width: 4px;
      }

      .cls-1, .cls-2, .cls-3 {
        fill: none;
        stroke: #000;
        stroke-linejoin: round;
      }

      .cls-1, .cls-3 {
        stroke-linecap: round;
      }

      .cls-2, .cls-3 {
        stroke-width: 2px;
      }
    </style>
  </defs>
  <path class="cls-2" d="m88.54,32.17V14.93c-.13.05-.27.09-.41.12-.73.16-1.43,0-1.96-.38-.42.37-.92.63-1.44.74-.76.16-1.51,0-2.06-.45-.54-.44-.84-1.1-.84-1.85,0-.53.15-1.05.42-1.53-.49-.43-.77-1.07-.77-1.8,0-.13,0-.26.03-.4l-3.35.67-54.72,11.63-5.06,6.15v59.05l5.21,6.34"/>
  <path class="cls-2" d="m67.07,67.9l23.76-5.05v18.09l-23.76,5.05v-18.09Z"/>
  <path class="cls-2" d="m38.22,74.03l22.76-4.84v18.09l-22.76,4.84v-18.09Z"/>
  <g>
    <ellipse cx="84.28" cy="75.99" rx="3.16" ry="2.54" transform="translate(-29.12 80.26) rotate(-44.19)"/>
    <ellipse cx="72.78" cy="78.44" rx="3.16" ry="2.54" transform="translate(-34.08 72.93) rotate(-44.19)"/>
  </g>
  <g>
    <ellipse cx="55.35" cy="82.22" rx="3.16" ry="2.54" transform="translate(-41.65 61.86) rotate(-44.19)"/>
    <ellipse cx="43.85" cy="84.67" rx="3.16" ry="2.54" transform="translate(-46.61 54.53) rotate(-44.19)"/>
  </g>
  <ellipse cx="28.22" cy="32.55" rx="1.21" ry=".97" transform="translate(-14.86 31.77) rotate(-48.03)"/>
  <path class="cls-2" d="m27.88,38.46l49.27-10.47c1.01-.22,1.83.43,1.83,1.44v29.51c0,1.01-.82,2.01-1.83,2.22l-49.27,10.47c-1.01.22-1.83-.43-1.83-1.44v-29.51c0-1.01.82-2.01,1.83-2.22Z"/>
  <line class="cls-3" x1="23.79" y1="21.39" x2="10.73" y2="16.81"/>
  <line class="cls-3" x1="18.36" y1="28.38" x2="5.05" y2="23.7"/>
  <path class="cls-3" d="m57.09,6.85l10.26,3.75,18.83-3.97"/>
  <path class="cls-1" d="m61,6.07l18.83-3.97,6.35,2.21,4.77,4.16v23.65l-1.36.05v30.38l1.23-.26v18.69l-24.62,5.23v-1.55l-4.3.91v1.55l-24.62,5.23v-1.55l-14.45,3.07"/>
  <path class="cls-1" d="m22.75,93.9l-13.06-4.6-4.65-5.73V23.7l5.69-6.91L61,6.07"/>
  <line class="cls-3" x1="18.56" y1="87.15" x2="5.05" y2="82.4"/>
</svg>