<?xml version="1.0" encoding="UTF-8"?>
<svg id="Layer_1" data-name="Layer 1" xmlns="http://www.w3.org/2000/svg" width="960" height="960" viewBox="0 0 96 96">
  <defs>
    <style>
      .cls-1 {
        stroke-width: 4px;
      }

      .cls-1, .cls-2 {
        fill: none;
        stroke: #000;
        stroke-linecap: round;
        stroke-linejoin: round;
      }

      .cls-2 {
        stroke-width: 2px;
      }
    </style>
  </defs>
  <path d="m45.43,22.03c-.98.21-1.77-.58-1.77-1.74s.79-2.28,1.77-2.49,1.77.58,1.77,1.74-.79,2.28-1.77,2.49Z"/>
  <path class="cls-2" d="m37.03,13.79c.4.23,1.19.7,1.56,1.68.75,2.63,1.8,17.99,1.8,37.82,0,21.65-1.35,36.26-2.01,38.95-.3,1.22-.24.96-.39,1.62"/>
  <path class="cls-2" d="m71.21,85.8c-.15-.36-.64-.67-.76-1.28-.49-2.63-.73-8.82-.85-11.51-.4-9.19-.6-16.53-.6-26.46s.21-19.49.6-28.7c.12-2.71.34-7.22.83-9.97.11-.62.6-.87.78-1.21h0"/>
  <path class="cls-2" d="m70.41,8c-3.82-.24-12.21.88-16.67,1.44-5.59.83-12.96,3.35-15.93,5.01h0c-.16.08-.3.16-.43.26-.08.06-.16.11-.23.16-.79.6-1.26,2.55-1.47,3.66-.86,4.55-1.04,30.85-1.04,37.12s.28,29.71.99,34.36c.28,1.74,1.58,3.58,2.37,3.85"/>
  <path class="cls-1" d="m37.53,93.75l-10.11-3.46c-1.77-.61-3.22-2.04-3.6-3.87,0-.01,0-.02,0-.03-.86-4.19-1.04-32.12-1.04-38.39s.92-30.48,1.77-35.03c.21-1.11.68-3.06,1.47-3.66.07-.05.15-.11.23-.16.13-.09,1.46-.76,1.62-.84l-1.19.58c2.97-1.66,10.98-3.94,15.93-5.01,4.93-1.01,12.88-2.09,15.89-1.71.18,0,.36.03.54.1.06.02.11.03.17.05,2.41.47,11.78,4.09,11.78,4.09h0c.28.22.51.62.69,1.08.24.6.41,1.29.51,1.8.86,4.19,1.04,30.42,1.04,36.69s-.18,32.19-1.04,36.73c-.2,1.11-.67,3.06-1.46,3.66-.17.12-.36.25-.6.38-.01.01-.03.02-.04.03-2.96,1.66-30.34,7.28-31.9,7.09h0c-.09,0-.17-.02-.25-.04-.15-.02-.28-.06-.4-.1"/>
  <path class="cls-2" d="m37.03,13.79s-8.74-2.99-11.71-3.46"/>
</svg>