<?xml version="1.0" encoding="UTF-8"?>
<svg id="Layer_1" data-name="Layer 1" xmlns="http://www.w3.org/2000/svg" width="960" height="960" viewBox="0 0 96 96">
  <defs>
    <style>
      .cls-1 {
        stroke-width: 4px;
      }

      .cls-1, .cls-2 {
        fill: none;
        stroke: #000;
        stroke-linecap: round;
        stroke-linejoin: round;
      }

      .cls-2 {
        stroke-width: 2px;
      }
    </style>
  </defs>
  <path class="cls-2" d="m62,7.65c-2.11-.56-4.48-.52-6.84-.02l-2.36.5c-8.8,1.87-15.96,10.55-15.96,19.34v52.74c0,5.18,2.63,9.59,6.91,11.56"/>
  <path class="cls-1" d="m62.2,6.61c5.67,1.5,9.59,6.46,9.59,13.16v52.85c0,9.29-7.53,18.43-16.83,20.41l-2.36.5c-3.47.74-6.69.37-9.37-.86"/>
  <path class="cls-1" d="m52.41,3.17l-.09-.03c-.05-.02-.09-.04-.15-.06-.47-.19-.96-.35-1.47-.48-2.21-.6-4.69-.67-7.3-.12l-2.36.5c-9.3,1.97-16.83,11.11-16.83,20.4v53c0,6.01,3.11,10.63,7.88,12.6l11.43,3.82"/>
  <line class="cls-1" x1="51.38" y1="2.8" x2="63.02" y2="6.86"/>
  <ellipse class="cls-2" cx="54.1" cy="67.42" rx="15.07" ry="12.44" transform="translate(-25.93 100.1) rotate(-73.47)"/>
  <path class="cls-2" d="m52.71,78.92c-.56,0-1.11-.07-1.65-.2-2.37-.59-3.8-2.28-4.57-3.59-1.6-2.71-1.99-6.28-1.06-9.8,1.44-5.45,5.67-9.41,10.07-9.41.56,0,1.11.07,1.65.2,2.37.59,3.8,2.28,4.57,3.59,1.6,2.71,1.99,6.28,1.06,9.8-1.44,5.45-5.67,9.41-10.07,9.41Z"/>
  <line class="cls-2" x1="37.53" y1="22.7" x2="24.94" y2="18.38"/>
</svg>