<?xml version="1.0" encoding="UTF-8"?>
<svg id="Layer_1" data-name="Layer 1" xmlns="http://www.w3.org/2000/svg" width="960" height="960" viewBox="0 0 96 96">
  <defs>
    <style>
      .cls-1, .cls-2 {
        stroke-width: 4px;
      }

      .cls-1, .cls-2, .cls-3, .cls-4 {
        fill: none;
        stroke: #000;
        stroke-linejoin: round;
      }

      .cls-2, .cls-4 {
        stroke-linecap: round;
      }

      .cls-3, .cls-4 {
        stroke-width: 2px;
      }

      .cls-5 {
        fill-rule: evenodd;
      }
    </style>
  </defs>
  <path class="cls-3" d="m78.2,6.3h0c-.89-.67-2.1-.95-3.4-.78l-31.39,6.67h-.02c-1.31.45-2.51,1.25-3.38,2.26-.94,1.1-1.44,2.36-1.44,3.64v35.98c0,.25.02,1.8.06,2.04.96,13.37,2.11,23.66,3.41,33.15v.02s0,.02,0,.02c.29,1.04.96,1.95,2,2.71"/>
  <g>
    <path class="cls-3" d="m38.91,57.47c6.13,12.22,10.12,23.1,10.12,36.36"/>
    <path class="cls-3" d="m79.18,47.03c-6.13,14.83-8.21,28.87-8.21,42.14"/>
  </g>
  <ellipse class="cls-3" cx="59.1" cy="71.02" rx="3.64" ry="2.94" transform="translate(-33.22 67.47) rotate(-48.03)"/>
  <path class="cls-5" d="m58.64,76.93l1.18-.25c.3-.06.55.13.55.43v2.27c0,.3-.24.6-.55.66l-1.18.25c-.3.06-.55-.13-.55-.43v-2.27c0-.3.24-.6.55-.66Z"/>
  <path class="cls-3" d="m42.56,17.55l33.08-7.03c2.21-.47,4,.94,4,3.15v33.08c0,2.21-1.79,4.38-4,4.85l-33.08,7.03c-2.21.47-4-.94-4-3.15V22.4c0-2.21,1.79-4.38,4-4.85Z"/>
  <path class="cls-1" d="m36.65,90.04h.03s.79.27.79.27l.15.05,11.4,3.47.21.07h.06c4.2-.42,7.29-.87,10.34-1.52h0c3.47-.74,7.08-1.78,11.68-3.38l.06-.02.05-.04c1.73-1.22,2.03-2.36,2.95-3.48.9-1.09,1.49-2.21,1.79-3.4v-.02s0-.02,0-.02c1.28-9.94,2.43-22.05,3.41-36.01.03-.22.04-.44.04-.65V9.37c0-1.28-.51-2.36-1.44-3.06l-.6-.41-10.32-3.44-.62-.21h-.02"/>
  <path class="cls-2" d="m67.28,2.46c-.2-.08-.4-.15-.62-.21-.6-.15-1.27-.19-1.97-.1l-31.39,6.67h-.02c-1.31.45-2.52,1.25-3.38,2.27-.95,1.1-1.45,2.36-1.45,3.64v8.23l-2.48-.78-4.65,7.56,3.55,4.62,3.57,1.24v15.11c0,.25.02.5.06.73.97,13.37,2.12,24.97,3.41,34.46v.04c.3,1.04.97,1.96,2.01,2.71.73.54,1.65,1.01,2.74,1.41.3.11.61.21.94.31"/>
  <line class="cls-2" x1="23.6" y1="26.04" x2="18.62" y2="24.38"/>
  <line class="cls-3" x1="29.46" y1="22.96" x2="29.46" y2="35.59"/>
  <ellipse class="cls-4" cx="61.57" cy="34.65" rx="15.15" ry="12.5" transform="translate(10.83 83.81) rotate(-73.47)"/>
  <ellipse cx="61.2" cy="32.4" rx="2.06" ry="1.7" transform="translate(12.73 81.85) rotate(-73.47)"/>
  <ellipse cx="51.16" cy="33.68" rx="2.06" ry="1.7" transform="translate(4.31 73.14) rotate(-73.47)"/>
  <path class="cls-4" d="m52.86,46.52c6.38.17,10.04-2.67,12.5-6.77"/>
  <path class="cls-4" d="m66.98,29.7c.3,1.32.42,2.68.31,4.07"/>
  <path class="cls-4" d="m64.92,25.54c-1.3-2.2-3.23-4.05-5.6-5.25"/>
  <path class="cls-4" d="m65.93,20.2s-.08-.03-.12-.04c-.11-.04-.21-.07-.32-.1-.06-.02-.12-.03-.18-.05-8.42-2.38-17.82,2.91-19.72,11.48-1.84,8.26,4.04,17.06,12.29,17.85"/>
  <path class="cls-4" d="m71.33,34.51c-.06.81-.2,1.64-.42,2.47-.36,1.35-.9,2.6-1.57,3.7l-5.04-1.19v-4.62l2.5-1.19,4.53.83Z"/>
  <path class="cls-4" d="m70.93,30.12l-6.63-.95v-3.71l4.55.64c.95,1.12,1.67,2.49,2.08,4.02Z"/>
  <line class="cls-3" x1="39.44" y1="15.23" x2="29.34" y2="11.84"/>
</svg>