<?xml version="1.0" encoding="UTF-8"?>
<svg id="Layer_1" data-name="Layer 1" xmlns="http://www.w3.org/2000/svg" width="960" height="960" viewBox="0 0 96 96">
  <defs>
    <style>
      .cls-1 {
        stroke-width: 4px;
      }

      .cls-1, .cls-2, .cls-3 {
        fill: none;
        stroke: #000;
        stroke-linejoin: round;
      }

      .cls-2, .cls-3 {
        stroke-width: 2px;
      }

      .cls-3 {
        stroke-linecap: round;
      }
    </style>
  </defs>
  <path class="cls-3" d="m42.78,89.1l-8.44-6.49-8.43-8.01v-34.55s8.43-10.49,8.43-10.49l8.44-10.08,34.25-7.28"/>
  <path class="cls-2" d="m33.7,30.37l-.08,11.21c-.04,6.17,5.5,10.81,11.44,9.57l33.7-7.02c4.41-.92,7.58-4.85,7.62-9.43l.11-15.16"/>
  <polygon class="cls-1" points="11.06 54.49 2.1 56.39 2.1 46.61 11.06 44.71 11.06 34.58 19.49 24.08 27.93 14.01 61.37 6.9 77.03 12.21 85.47 18.7 93.9 25.59 93.9 61.25 85.47 71.74 77.03 81.82 42.78 89.1 25.62 83.37 11.06 70.23 11.06 54.48 11.06 54.49"/>
  <circle cx="6.58" cy="50.55" r="1.86"/>
  <line class="cls-3" x1="12.06" y1="44.71" x2="12.06" y2="54.48"/>
  <path class="cls-3" d="m65.25,63.5l6.64-1.41c.64-.14,1.25.35,1.25,1.01v3.84c0,.49-.34.91-.82,1.01l-7.06,1.5"/>
  <path class="cls-3" d="m56.99,71.2l-6.64,1.41c-.64.14-1.25-.35-1.25-1.01v-3.84c0-.49.34-.91.82-1.01l7.06-1.5"/>
  <path class="cls-3" d="m64.43,71l-6.2,1.32c-.64.14-1.25-.35-1.25-1.01v-6.6c0-.49.34-.91.82-1.01l6.2-1.32c.64-.14,1.25.35,1.25,1.01v6.6c0,.49-.34.91-.82,1.01Z"/>
  <line class="cls-3" x1="73.12" y1="24.89" x2="73.12" y2="35.75"/>
  <path class="cls-3" d="m72.24,38.86c-.45,0-.9-.06-1.34-.16-1.51-.38-2.78-1.36-3.65-2.84-1.19-2.01-1.48-4.64-.8-7.21,1.06-4.02,4.26-6.93,7.61-6.93.45,0,.9.06,1.34.16,1.51.38,2.78,1.36,3.65,2.84,1.19,2.01,1.48,4.64.8,7.21-1.06,4.02-4.26,6.93-7.61,6.93Z"/>
  <polyline class="cls-3" points="27.52 14.5 42.61 19.69 42.62 19.69"/>
  <line class="cls-3" x1="25.9" y1="40.15" x2="11.06" y2="35.05"/>
  <polyline class="cls-3" points="11.06 69.5 25.9 74.6 25.91 74.61"/>
  <line class="cls-3" x1="49.07" y1="29.49" x2="49.07" y2="40.36"/>
  <path class="cls-3" d="m48.2,43.47c-.45,0-.9-.06-1.34-.16-1.51-.38-2.78-1.36-3.65-2.84-1.19-2.01-1.48-4.64-.8-7.21,1.06-4.02,4.26-6.93,7.61-6.93.45,0,.9.06,1.34.16,1.51.38,2.78,1.36,3.65,2.84,1.19,2.01,1.48,4.64.8,7.21-1.06,4.02-4.26,6.93-7.61,6.93Z"/>
</svg>