<?xml version="1.0" encoding="UTF-8"?>
<svg id="Layer_1" data-name="Layer 1" xmlns="http://www.w3.org/2000/svg" width="960" height="960" viewBox="0 0 96 96">
  <defs>
    <style>
      .cls-1 {
        stroke-width: 4px;
      }

      .cls-1, .cls-2, .cls-3 {
        fill: none;
        stroke: #000;
        stroke-linejoin: round;
      }

      .cls-2, .cls-3 {
        stroke-width: 2px;
      }

      .cls-3 {
        stroke-linecap: round;
      }
    </style>
  </defs>
  <path class="cls-2" d="m82.58,7.94c-.65-.12-1.34-.1-2.06.05l-54.35,11.55c-3.25.69-5.9,3.89-5.9,7.14v58.19c0,1.82.84,3.27,2.3,3.98"/>
  <path class="cls-2" d="m25.96,73.93l11.34-2.41c1.02-.22,1.85.44,1.85,1.46v8.15c0,.98-.79,1.94-1.77,2.14l-9.74,2.07c-1.95.42-3.54-.83-3.54-2.79v-6.38c0-1.02.83-2.03,1.85-2.25Z"/>
  <ellipse cx="73.92" cy="25.85" rx="1.61" ry="1.3" transform="translate(7.91 67.98) rotate(-51.82)"/>
  <ellipse cx="78.86" cy="15.17" rx="1.15" ry=".91" transform="translate(7.51 52.02) rotate(-38.21)"/>
  <path class="cls-2" d="m26.37,40.93l53.37-11.34c.81-.17,1.47.35,1.47,1.16v26.93c0,.81-.66,1.61-1.47,1.78l-53.37,11.34c-.81.17-1.47-.35-1.47-1.16v-26.93c0-.81.66-1.61,1.47-1.78Z"/>
  <g>
    <ellipse cx="34.64" cy="79.1" rx="2.79" ry="2.25" transform="translate(-46.27 48.91) rotate(-45.89)"/>
    <ellipse cx="28.58" cy="80.46" rx="2.79" ry="2.25" transform="translate(-49.08 44.98) rotate(-45.89)"/>
  </g>
  <path class="cls-1" d="m83.42,7.14l-.28-.09-13.48-4.52c-1.04-.35-2.16-.41-3.24-.18L15.69,13.16c-3.7.79-6.69,4.43-6.69,8.12v60.15c0,2.35,1.21,4.16,3.04,4.95l10.21,3.42-.1-.04c.92.44,2,.63,3.17.49v1.91c0,1.26,1.02,2.07,2.29,1.8l9.38-2c.63-.13,1.2-.52,1.61-1.01s.67-1.13.67-1.76v-1.87s.58-.12.58-.12c1.92-.41,3.55-2.07,4.02-3.96l17.52-3.72v1.8c0,1.26,1.02,2.07,2.29,1.8l9.31-1.97c.63-.13,1.2-.51,1.61-1.01s.67-1.13.67-1.76v-1.8l5.06-1.08c3.7-.79,6.69-4.42,6.69-8.12V12.29c0-2.84-1.76-4.89-4.25-5.33"/>
  <line class="cls-2" x1="25.11" y1="89.26" x2="39.07" y2="86.34"/>
  <line class="cls-2" x1="61.17" y1="78.53" x2="75.05" y2="75.58"/>
  <line class="cls-3" x1="22.45" y1="21.67" x2="10.08" y2="17.41"/>
</svg>